<svg width="280" height="70" viewBox="0 0 280 70" fill="none" xmlns="http://www.w3.org/2000/svg">
<rect width="280" height="70" rx="16" fill="#262626"/>
<path d="M21.58 36.012H23.82V44.874H21.594L19.074 41.122C18.878 40.8233 18.7147 40.5713 18.584 40.366C18.4533 40.1607 18.332 39.9553 18.22 39.75C18.108 39.5447 17.982 39.302 17.842 39.022L17.8 39.078C17.9307 39.526 18.01 39.946 18.038 40.338C18.066 40.7207 18.08 41.094 18.08 41.458V44.874H15.84V36.012H18.066L20.586 39.764C20.782 40.0533 20.9453 40.3053 21.076 40.52C21.2067 40.7253 21.328 40.9307 21.44 41.136C21.552 41.3413 21.678 41.584 21.818 41.864L21.86 41.808C21.7667 41.416 21.6967 41.038 21.65 40.674C21.6033 40.3007 21.58 39.932 21.58 39.568V36.012ZM25.016 41.514C25.016 40.2633 25.282 39.3627 25.814 38.812C26.346 38.2613 27.2467 37.986 28.516 37.986C29.3653 37.986 30.0467 38.1073 30.56 38.35C31.0733 38.5927 31.442 38.9753 31.666 39.498C31.8993 40.0113 32.016 40.6833 32.016 41.514C32.016 42.3353 31.8993 43.0027 31.666 43.516C31.442 44.0293 31.0733 44.4073 30.56 44.65C30.0467 44.8833 29.3653 45 28.516 45C27.2467 45 26.346 44.7293 25.814 44.188C25.282 43.6373 25.016 42.746 25.016 41.514ZM28.516 43.082C29.0573 43.082 29.4213 42.9653 29.608 42.732C29.804 42.4893 29.902 42.0693 29.902 41.472C29.902 40.9027 29.804 40.4967 29.608 40.254C29.4213 40.002 29.0573 39.876 28.516 39.876C27.9933 39.876 27.6293 40.002 27.424 40.254C27.228 40.4967 27.13 40.9027 27.13 41.472C27.13 42.0693 27.228 42.4893 27.424 42.732C27.6293 42.9653 27.9933 43.082 28.516 43.082ZM33.3433 42.83V39.89H32.5033V38.07H33.5533L33.9733 36.404H35.5833V38.07H37.1093V39.89H35.5833V42.34C35.5833 42.6013 35.6159 42.7833 35.6813 42.886C35.7466 42.9793 35.8959 43.026 36.1293 43.026C36.2786 43.026 36.4373 43.0213 36.6053 43.012C36.7733 42.9933 36.9413 42.9747 37.1093 42.956L37.1513 42.984V44.804C36.7033 44.9347 36.1106 45 35.3733 45C34.6359 45 34.1133 44.832 33.8053 44.496C33.4973 44.16 33.3433 43.6047 33.3433 42.83ZM44.8495 44.874H42.6095V36.012H49.1895V37.832H44.8495V39.862H48.9095V41.682H44.8495V44.874ZM49.7484 41.514C49.7484 40.2633 50.0144 39.3627 50.5464 38.812C51.0784 38.2613 51.9791 37.986 53.2484 37.986C54.0978 37.986 54.7791 38.1073 55.2924 38.35C55.8058 38.5927 56.1744 38.9753 56.3984 39.498C56.6318 40.0113 56.7484 40.6833 56.7484 41.514C56.7484 42.3353 56.6318 43.0027 56.3984 43.516C56.1744 44.0293 55.8058 44.4073 55.2924 44.65C54.7791 44.8833 54.0978 45 53.2484 45C51.9791 45 51.0784 44.7293 50.5464 44.188C50.0144 43.6373 49.7484 42.746 49.7484 41.514ZM53.2484 43.082C53.7898 43.082 54.1538 42.9653 54.3404 42.732C54.5364 42.4893 54.6344 42.0693 54.6344 41.472C54.6344 40.9027 54.5364 40.4967 54.3404 40.254C54.1538 40.002 53.7898 39.876 53.2484 39.876C52.7258 39.876 52.3618 40.002 52.1564 40.254C51.9604 40.4967 51.8624 40.9027 51.8624 41.472C51.8624 42.0693 51.9604 42.4893 52.1564 42.732C52.3618 42.9653 52.7258 43.082 53.2484 43.082ZM60.1757 45C59.317 45 58.7057 44.7713 58.3417 44.314C57.9777 43.8567 57.7957 43.2033 57.7957 42.354V38.056H60.0357L60.0497 41.808C60.0497 42.228 60.1244 42.5267 60.2737 42.704C60.423 42.872 60.7264 42.956 61.1837 42.956C61.6224 42.956 61.9164 42.8813 62.0657 42.732C62.2244 42.5733 62.3084 42.3073 62.3177 41.934V38.056H64.5577V44.874H62.4297L62.3177 44.104H62.2757C62.1544 44.3747 61.907 44.594 61.5337 44.762C61.1604 44.9207 60.7077 45 60.1757 45ZM68.4745 44.874H66.2345V38.056H68.3625L68.4745 39.302H68.5165C68.6472 38.882 68.8805 38.56 69.2165 38.336C69.5525 38.1027 70.0192 37.986 70.6165 37.986C71.4285 37.986 72.0259 38.2147 72.4085 38.672C72.8005 39.1293 72.9965 39.9227 72.9965 41.052V44.874H70.7565L70.7425 41.486C70.7425 40.9633 70.6632 40.59 70.5045 40.366C70.3459 40.142 70.0472 40.03 69.6085 40.03C69.1979 40.03 68.9085 40.1327 68.7405 40.338C68.5725 40.534 68.4839 40.8747 68.4745 41.36V44.874ZM78.7894 44.874L78.7054 43.88H78.6494C78.4907 44.2533 78.262 44.5333 77.9634 44.72C77.674 44.9067 77.2494 45 76.6894 45C75.784 45 75.1214 44.7387 74.7014 44.216C74.2814 43.684 74.062 42.886 74.0434 41.822C74.034 40.87 74.132 40.114 74.3374 39.554C74.5427 38.994 74.8647 38.5927 75.3034 38.35C75.742 38.1073 76.302 37.986 76.9834 37.986C77.338 37.986 77.66 38.0187 77.9494 38.084C78.2387 38.14 78.472 38.2193 78.6494 38.322L78.6774 38.308V35.452H80.9174V44.874H78.7894ZM77.4174 43.096C77.7907 43.096 78.094 42.9793 78.3274 42.746C78.5607 42.5127 78.6774 42.1253 78.6774 41.584V40.114C78.332 39.974 77.926 39.904 77.4594 39.904C77.0207 39.904 76.7034 40.0113 76.5074 40.226C76.3207 40.4313 76.2274 40.8513 76.2274 41.486C76.2274 42.0273 76.302 42.4333 76.4514 42.704C76.61 42.9653 76.932 43.096 77.4174 43.096ZM85.2178 38.602C85.2364 38.7793 85.2458 38.938 85.2458 39.078C85.2551 39.218 85.2598 39.358 85.2598 39.498C85.2598 39.638 85.2551 39.778 85.2458 39.918C85.2458 40.058 85.2364 40.2213 85.2178 40.408C84.7698 40.492 84.3358 40.534 83.9158 40.534C83.5051 40.534 83.0898 40.492 82.6698 40.408C82.6418 40.2307 82.6231 40.072 82.6138 39.932C82.6044 39.792 82.5998 39.652 82.5998 39.512C82.5998 39.3813 82.6044 39.2413 82.6138 39.092C82.6231 38.9427 82.6418 38.7793 82.6698 38.602C82.8844 38.5553 83.0991 38.5227 83.3138 38.504C83.5284 38.4853 83.7384 38.476 83.9438 38.476C84.1584 38.476 84.3684 38.4853 84.5738 38.504C84.7884 38.5227 85.0031 38.5553 85.2178 38.602ZM85.2178 43.054C85.2364 43.2407 85.2458 43.404 85.2458 43.544C85.2551 43.684 85.2598 43.824 85.2598 43.964C85.2598 44.2067 85.2458 44.5053 85.2178 44.86C84.7884 44.9533 84.3544 45 83.9158 45C83.7104 45 83.5051 44.9907 83.2998 44.972C83.0944 44.944 82.8891 44.9067 82.6838 44.86C82.6464 44.692 82.6231 44.538 82.6138 44.398C82.6044 44.258 82.5998 44.118 82.5998 43.978C82.5998 43.8473 82.6044 43.7073 82.6138 43.558C82.6231 43.4087 82.6464 43.2407 82.6838 43.054C82.8891 43.0073 83.0991 42.9793 83.3138 42.97C83.5284 42.9513 83.7384 42.942 83.9438 42.942C84.1584 42.942 84.3684 42.9513 84.5738 42.97C84.7884 42.9793 85.0031 43.0073 85.2178 43.054ZM93.371 44.874H91.131V36.012H95.359C96.4697 36.012 97.277 36.264 97.781 36.768C98.2943 37.2627 98.551 37.9953 98.551 38.966C98.551 39.694 98.369 40.3193 98.005 40.842C97.641 41.3553 97.1603 41.6773 96.563 41.808L96.549 41.85C96.7823 41.9993 97.039 42.2467 97.319 42.592C97.599 42.9373 97.8743 43.3153 98.145 43.726C98.425 44.1273 98.6723 44.5053 98.887 44.86V44.874H96.283L94.771 42.634C94.6403 42.438 94.533 42.298 94.449 42.214C94.3743 42.13 94.281 42.0787 94.169 42.06C94.0663 42.0413 93.8983 42.032 93.665 42.032H93.371V44.874ZM94.995 37.832H93.371V40.212H94.995C95.4617 40.212 95.7837 40.1187 95.961 39.932C96.1477 39.7453 96.241 39.442 96.241 39.022C96.241 38.602 96.1477 38.2987 95.961 38.112C95.7837 37.9253 95.4617 37.832 94.995 37.832ZM106.16 44.65C105.899 44.7433 105.535 44.8273 105.068 44.902C104.611 44.9673 104.065 45 103.43 45C102.628 45 101.942 44.8973 101.372 44.692C100.812 44.4773 100.388 44.118 100.098 43.614C99.8091 43.1007 99.6645 42.3913 99.6645 41.486C99.6645 40.254 99.9445 39.3627 100.504 38.812C101.074 38.2613 101.951 37.986 103.136 37.986C103.986 37.986 104.653 38.1073 105.138 38.35C105.633 38.5927 105.983 38.938 106.188 39.386C106.403 39.8247 106.51 40.3473 106.51 40.954C106.51 41.1313 106.501 41.3227 106.482 41.528C106.473 41.7333 106.45 41.934 106.412 42.13L106.356 42.186H101.75C101.816 42.5967 102.007 42.8673 102.324 42.998C102.651 43.1287 103.178 43.194 103.906 43.194C104.392 43.194 104.793 43.1847 105.11 43.166C105.437 43.138 105.768 43.1007 106.104 43.054L106.16 43.096V44.65ZM104.564 40.716C104.564 40.492 104.527 40.3007 104.452 40.142C104.387 39.974 104.252 39.848 104.046 39.764C103.841 39.6707 103.538 39.624 103.136 39.624C102.548 39.624 102.161 39.7267 101.974 39.932C101.797 40.128 101.708 40.3893 101.708 40.716H104.564ZM107.393 42.942C108.121 43.1473 108.929 43.25 109.815 43.25C110.245 43.25 110.567 43.236 110.781 43.208C110.996 43.18 111.141 43.1333 111.215 43.068C111.29 43.0027 111.327 42.914 111.327 42.802C111.327 42.6433 111.267 42.5453 111.145 42.508C111.033 42.4707 110.805 42.4193 110.459 42.354L109.353 42.144C108.644 42.004 108.131 41.7847 107.813 41.486C107.505 41.178 107.351 40.7207 107.351 40.114C107.351 39.2927 107.594 38.7327 108.079 38.434C108.574 38.1353 109.358 37.986 110.431 37.986C111.075 37.986 111.64 38.0233 112.125 38.098C112.62 38.1633 113.031 38.2473 113.357 38.35L113.329 40.044L113.287 40.086C112.531 39.8433 111.705 39.722 110.809 39.722C110.371 39.722 110.063 39.7547 109.885 39.82C109.717 39.876 109.633 39.9927 109.633 40.17C109.633 40.2633 109.657 40.338 109.703 40.394C109.759 40.45 109.881 40.506 110.067 40.562C110.254 40.6087 110.548 40.6693 110.949 40.744L111.971 40.94C112.541 41.0613 112.961 41.262 113.231 41.542C113.502 41.822 113.637 42.2653 113.637 42.872C113.637 43.404 113.539 43.8287 113.343 44.146C113.147 44.454 112.816 44.6733 112.349 44.804C111.892 44.9347 111.257 45 110.445 45C109.829 45 109.26 44.972 108.737 44.916C108.224 44.8507 107.762 44.776 107.351 44.692V42.97L107.393 42.942ZM114.334 41.514C114.334 40.2633 114.6 39.3627 115.132 38.812C115.664 38.2613 116.565 37.986 117.834 37.986C118.684 37.986 119.365 38.1073 119.878 38.35C120.392 38.5927 120.76 38.9753 120.984 39.498C121.218 40.0113 121.334 40.6833 121.334 41.514C121.334 42.3353 121.218 43.0027 120.984 43.516C120.76 44.0293 120.392 44.4073 119.878 44.65C119.365 44.8833 118.684 45 117.834 45C116.565 45 115.664 44.7293 115.132 44.188C114.6 43.6373 114.334 42.746 114.334 41.514ZM117.834 43.082C118.376 43.082 118.74 42.9653 118.926 42.732C119.122 42.4893 119.22 42.0693 119.22 41.472C119.22 40.9027 119.122 40.4967 118.926 40.254C118.74 40.002 118.376 39.876 117.834 39.876C117.312 39.876 116.948 40.002 116.742 40.254C116.546 40.4967 116.448 40.9027 116.448 41.472C116.448 42.0693 116.546 42.4893 116.742 42.732C116.948 42.9653 117.312 43.082 117.834 43.082ZM124.762 45C123.903 45 123.292 44.7713 122.928 44.314C122.564 43.8567 122.382 43.2033 122.382 42.354V38.056H124.622L124.636 41.808C124.636 42.228 124.71 42.5267 124.86 42.704C125.009 42.872 125.312 42.956 125.77 42.956C126.208 42.956 126.502 42.8813 126.652 42.732C126.81 42.5733 126.894 42.3073 126.904 41.934V38.056H129.144V44.874H127.016L126.904 44.104H126.862C126.74 44.3747 126.493 44.594 126.12 44.762C125.746 44.9207 125.294 45 124.762 45ZM133.06 44.874H130.82V38.056H132.64L132.822 39.456H132.864C132.948 38.9333 133.149 38.56 133.466 38.336C133.784 38.1027 134.255 37.986 134.88 37.986C135.132 37.986 135.361 38 135.566 38.028C135.772 38.0467 135.944 38.0653 136.084 38.084V40.268L136.056 40.296C135.907 40.2587 135.734 40.226 135.538 40.198C135.352 40.17 135.137 40.156 134.894 40.156C134.549 40.156 134.236 40.212 133.956 40.324C133.686 40.436 133.471 40.6553 133.312 40.982C133.163 41.2993 133.088 41.7753 133.088 42.41L133.06 44.874ZM142.375 42.9V44.72C142.141 44.8133 141.796 44.8833 141.339 44.93C140.881 44.9767 140.396 45 139.883 45C139.145 45 138.529 44.8973 138.035 44.692C137.549 44.4867 137.185 44.132 136.943 43.628C136.709 43.124 136.588 42.424 136.579 41.528C136.579 40.604 136.705 39.8853 136.957 39.372C137.218 38.8587 137.596 38.4993 138.091 38.294C138.585 38.0887 139.178 37.986 139.869 37.986C140.279 37.986 140.713 38.014 141.171 38.07C141.628 38.126 142.001 38.2007 142.291 38.294L142.305 40.17L142.263 40.198C141.983 40.142 141.684 40.1 141.367 40.072C141.049 40.044 140.737 40.03 140.429 40.03C139.803 40.03 139.369 40.1467 139.127 40.38C138.884 40.6133 138.763 41.0053 138.763 41.556C138.763 41.976 138.814 42.2887 138.917 42.494C139.019 42.6993 139.192 42.8347 139.435 42.9C139.677 42.9653 140.009 42.998 140.429 42.998C140.755 42.998 141.068 42.984 141.367 42.956C141.665 42.928 141.983 42.8953 142.319 42.858L142.375 42.9ZM149.637 44.65C149.376 44.7433 149.012 44.8273 148.545 44.902C148.088 44.9673 147.542 45 146.907 45C146.104 45 145.418 44.8973 144.849 44.692C144.289 44.4773 143.864 44.118 143.575 43.614C143.286 43.1007 143.141 42.3913 143.141 41.486C143.141 40.254 143.421 39.3627 143.981 38.812C144.55 38.2613 145.428 37.986 146.613 37.986C147.462 37.986 148.13 38.1073 148.615 38.35C149.11 38.5927 149.46 38.938 149.665 39.386C149.88 39.8247 149.987 40.3473 149.987 40.954C149.987 41.1313 149.978 41.3227 149.959 41.528C149.95 41.7333 149.926 41.934 149.889 42.13L149.833 42.186H145.227C145.292 42.5967 145.484 42.8673 145.801 42.998C146.128 43.1287 146.655 43.194 147.383 43.194C147.868 43.194 148.27 43.1847 148.587 43.166C148.914 43.138 149.245 43.1007 149.581 43.054L149.637 43.096V44.65ZM148.041 40.716C148.041 40.492 148.004 40.3007 147.929 40.142C147.864 39.974 147.728 39.848 147.523 39.764C147.318 39.6707 147.014 39.624 146.613 39.624C146.025 39.624 145.638 39.7267 145.451 39.932C145.274 40.128 145.185 40.3893 145.185 40.716H148.041ZM157.615 44.874H155.375V38.056H157.503L157.615 39.302H157.657C157.788 38.882 158.021 38.56 158.357 38.336C158.693 38.1027 159.16 37.986 159.757 37.986C160.569 37.986 161.166 38.2147 161.549 38.672C161.941 39.1293 162.137 39.9227 162.137 41.052V44.874H159.897L159.883 41.486C159.883 40.9633 159.804 40.59 159.645 40.366C159.486 40.142 159.188 40.03 158.749 40.03C158.338 40.03 158.049 40.1327 157.881 40.338C157.713 40.534 157.624 40.8747 157.615 41.36V44.874ZM163.184 41.514C163.184 40.2633 163.45 39.3627 163.982 38.812C164.514 38.2613 165.415 37.986 166.684 37.986C167.533 37.986 168.215 38.1073 168.728 38.35C169.241 38.5927 169.61 38.9753 169.834 39.498C170.067 40.0113 170.184 40.6833 170.184 41.514C170.184 42.3353 170.067 43.0027 169.834 43.516C169.61 44.0293 169.241 44.4073 168.728 44.65C168.215 44.8833 167.533 45 166.684 45C165.415 45 164.514 44.7293 163.982 44.188C163.45 43.6373 163.184 42.746 163.184 41.514ZM166.684 43.082C167.225 43.082 167.589 42.9653 167.776 42.732C167.972 42.4893 168.07 42.0693 168.07 41.472C168.07 40.9027 167.972 40.4967 167.776 40.254C167.589 40.002 167.225 39.876 166.684 39.876C166.161 39.876 165.797 40.002 165.592 40.254C165.396 40.4967 165.298 40.9027 165.298 41.472C165.298 42.0693 165.396 42.4893 165.592 42.732C165.797 42.9653 166.161 43.082 166.684 43.082ZM171.511 42.83V39.89H170.671V38.07H171.721L172.141 36.404H173.751V38.07H175.277V39.89H173.751V42.34C173.751 42.6013 173.784 42.7833 173.849 42.886C173.915 42.9793 174.064 43.026 174.297 43.026C174.447 43.026 174.605 43.0213 174.773 43.012C174.941 42.9933 175.109 42.9747 175.277 42.956L175.319 42.984V44.804C174.871 44.9347 174.279 45 173.541 45C172.804 45 172.281 44.832 171.973 44.496C171.665 44.16 171.511 43.6047 171.511 42.83ZM180.218 39.876V38.056H181.212V37.706C181.212 36.782 181.426 36.1193 181.856 35.718C182.285 35.3073 182.924 35.102 183.774 35.102C184.072 35.102 184.348 35.13 184.6 35.186C184.852 35.2327 185.071 35.2887 185.258 35.354V36.922L185.216 36.95C185.048 36.9313 184.88 36.9173 184.712 36.908C184.544 36.8893 184.385 36.88 184.236 36.88C183.918 36.88 183.694 36.9407 183.564 37.062C183.442 37.174 183.382 37.3513 183.382 37.594V38.056H185.258V39.876H183.382V44.874H181.212V39.876H180.218ZM185.893 41.514C185.893 40.2633 186.159 39.3627 186.691 38.812C187.223 38.2613 188.124 37.986 189.393 37.986C190.242 37.986 190.924 38.1073 191.437 38.35C191.95 38.5927 192.319 38.9753 192.543 39.498C192.776 40.0113 192.893 40.6833 192.893 41.514C192.893 42.3353 192.776 43.0027 192.543 43.516C192.319 44.0293 191.95 44.4073 191.437 44.65C190.924 44.8833 190.242 45 189.393 45C188.124 45 187.223 44.7293 186.691 44.188C186.159 43.6373 185.893 42.746 185.893 41.514ZM189.393 43.082C189.934 43.082 190.298 42.9653 190.485 42.732C190.681 42.4893 190.779 42.0693 190.779 41.472C190.779 40.9027 190.681 40.4967 190.485 40.254C190.298 40.002 189.934 39.876 189.393 39.876C188.87 39.876 188.506 40.002 188.301 40.254C188.105 40.4967 188.007 40.9027 188.007 41.472C188.007 42.0693 188.105 42.4893 188.301 42.732C188.506 42.9653 188.87 43.082 189.393 43.082ZM196.32 45C195.462 45 194.85 44.7713 194.486 44.314C194.122 43.8567 193.94 43.2033 193.94 42.354V38.056H196.18L196.194 41.808C196.194 42.228 196.269 42.5267 196.418 42.704C196.568 42.872 196.871 42.956 197.328 42.956C197.767 42.956 198.061 42.8813 198.21 42.732C198.369 42.5733 198.453 42.3073 198.462 41.934V38.056H200.702V44.874H198.574L198.462 44.104H198.42C198.299 44.3747 198.052 44.594 197.678 44.762C197.305 44.9207 196.852 45 196.32 45ZM204.619 44.874H202.379V38.056H204.507L204.619 39.302H204.661C204.792 38.882 205.025 38.56 205.361 38.336C205.697 38.1027 206.164 37.986 206.761 37.986C207.573 37.986 208.17 38.2147 208.553 38.672C208.945 39.1293 209.141 39.9227 209.141 41.052V44.874H206.901L206.887 41.486C206.887 40.9633 206.808 40.59 206.649 40.366C206.49 40.142 206.192 40.03 205.753 40.03C205.342 40.03 205.053 40.1327 204.885 40.338C204.717 40.534 204.628 40.8747 204.619 41.36V44.874ZM214.934 44.874L214.85 43.88H214.794C214.635 44.2533 214.407 44.5333 214.108 44.72C213.819 44.9067 213.394 45 212.834 45C211.929 45 211.266 44.7387 210.846 44.216C210.426 43.684 210.207 42.886 210.188 41.822C210.179 40.87 210.277 40.114 210.482 39.554C210.687 38.994 211.009 38.5927 211.448 38.35C211.887 38.1073 212.447 37.986 213.128 37.986C213.483 37.986 213.805 38.0187 214.094 38.084C214.383 38.14 214.617 38.2193 214.794 38.322L214.822 38.308V35.452H217.062V44.874H214.934ZM213.562 43.096C213.935 43.096 214.239 42.9793 214.472 42.746C214.705 42.5127 214.822 42.1253 214.822 41.584V40.114C214.477 39.974 214.071 39.904 213.604 39.904C213.165 39.904 212.848 40.0113 212.652 40.226C212.465 40.4313 212.372 40.8513 212.372 41.486C212.372 42.0273 212.447 42.4333 212.596 42.704C212.755 42.9653 213.077 43.096 213.562 43.096ZM221.096 42.886C221.115 43.0913 221.129 43.2687 221.138 43.418C221.148 43.558 221.152 43.7073 221.152 43.866C221.152 44.0153 221.148 44.1693 221.138 44.328C221.129 44.4773 221.115 44.65 221.096 44.846C220.863 44.8833 220.63 44.916 220.396 44.944C220.163 44.972 219.93 44.986 219.696 44.986C219.472 44.986 219.248 44.972 219.024 44.944C218.8 44.916 218.572 44.8833 218.338 44.846C218.31 44.6593 218.292 44.4913 218.282 44.342C218.273 44.1833 218.268 44.0293 218.268 43.88C218.268 43.74 218.273 43.5907 218.282 43.432C218.292 43.2733 218.31 43.0913 218.338 42.886C218.805 42.802 219.267 42.76 219.724 42.76C220.182 42.76 220.639 42.802 221.096 42.886Z" fill="#EB1313"/>
<g filter="url(#filter0_f_186_77)">
<path d="M16.32 24.802V10.876H26.66V13.736H19.84V16.376H25.758V19.236H19.84V21.942H26.66V24.802H16.32ZM31.9357 24.802H28.4157V14.088H31.2757L31.5617 16.288H31.6277C31.7597 15.4667 32.075 14.88 32.5737 14.528C33.0724 14.1613 33.813 13.978 34.7957 13.978C35.1917 13.978 35.551 14 35.8737 14.044C36.1964 14.0733 36.4677 14.1027 36.6877 14.132V17.564L36.6437 17.608C36.409 17.5493 36.1377 17.498 35.8297 17.454C35.5364 17.41 35.199 17.388 34.8177 17.388C34.275 17.388 33.7837 17.476 33.3437 17.652C32.9184 17.828 32.581 18.1727 32.3317 18.686C32.097 19.1847 31.9797 19.9327 31.9797 20.93L31.9357 24.802ZM41.7541 24.802H38.2341V14.088H41.0941L41.3801 16.288H41.4461C41.5781 15.4667 41.8934 14.88 42.3921 14.528C42.8907 14.1613 43.6314 13.978 44.6141 13.978C45.0101 13.978 45.3694 14 45.6921 14.044C46.0147 14.0733 46.2861 14.1027 46.5061 14.132V17.564L46.4621 17.608C46.2274 17.5493 45.9561 17.498 45.6481 17.454C45.3547 17.41 45.0174 17.388 44.6361 17.388C44.0934 17.388 43.6021 17.476 43.1621 17.652C42.7367 17.828 42.3994 18.1727 42.1501 18.686C41.9154 19.1847 41.7981 19.9327 41.7981 20.93L41.7541 24.802ZM47.2824 19.522C47.2824 17.5567 47.7004 16.1413 48.5364 15.276C49.3724 14.4107 50.7878 13.978 52.7824 13.978C54.1171 13.978 55.1878 14.1687 55.9944 14.55C56.8011 14.9313 57.3804 15.5327 57.7324 16.354C58.0991 17.1607 58.2824 18.2167 58.2824 19.522C58.2824 20.8127 58.0991 21.8613 57.7324 22.668C57.3804 23.4747 56.8011 24.0687 55.9944 24.45C55.1878 24.8167 54.1171 25 52.7824 25C50.7878 25 49.3724 24.5747 48.5364 23.724C47.7004 22.8587 47.2824 21.458 47.2824 19.522ZM52.7824 21.986C53.6331 21.986 54.2051 21.8027 54.4984 21.436C54.8064 21.0547 54.9604 20.3947 54.9604 19.456C54.9604 18.5613 54.8064 17.9233 54.4984 17.542C54.2051 17.146 53.6331 16.948 52.7824 16.948C51.9611 16.948 51.3891 17.146 51.0664 17.542C50.7584 17.9233 50.6044 18.5613 50.6044 19.456C50.6044 20.3947 50.7584 21.0547 51.0664 21.436C51.3891 21.8027 51.9611 21.986 52.7824 21.986ZM63.6681 24.802H60.1481V14.088H63.0081L63.2941 16.288H63.3601C63.4921 15.4667 63.8075 14.88 64.3061 14.528C64.8048 14.1613 65.5455 13.978 66.5281 13.978C66.9241 13.978 67.2835 14 67.6061 14.044C67.9288 14.0733 68.2001 14.1027 68.4201 14.132V17.564L68.3761 17.608C68.1415 17.5493 67.8701 17.498 67.5621 17.454C67.2688 17.41 66.9315 17.388 66.5501 17.388C66.0075 17.388 65.5161 17.476 65.0761 17.652C64.6508 17.828 64.3135 18.1727 64.0641 18.686C63.8295 19.1847 63.7121 19.9327 63.7121 20.93L63.6681 24.802ZM74.0805 14.946C74.1098 15.2247 74.1245 15.474 74.1245 15.694C74.1392 15.914 74.1465 16.134 74.1465 16.354C74.1465 16.574 74.1392 16.794 74.1245 17.014C74.1245 17.234 74.1098 17.4907 74.0805 17.784C73.3765 17.916 72.6945 17.982 72.0345 17.982C71.3892 17.982 70.7365 17.916 70.0765 17.784C70.0325 17.5053 70.0032 17.256 69.9885 17.036C69.9738 16.816 69.9665 16.596 69.9665 16.376C69.9665 16.1707 69.9738 15.9507 69.9885 15.716C70.0032 15.4813 70.0325 15.2247 70.0765 14.946C70.4138 14.8727 70.7512 14.8213 71.0885 14.792C71.4258 14.7627 71.7558 14.748 72.0785 14.748C72.4158 14.748 72.7458 14.7627 73.0685 14.792C73.4058 14.8213 73.7432 14.8727 74.0805 14.946ZM74.0805 21.942C74.1098 22.2353 74.1245 22.492 74.1245 22.712C74.1392 22.932 74.1465 23.152 74.1465 23.372C74.1465 23.7533 74.1245 24.2227 74.0805 24.78C73.4058 24.9267 72.7238 25 72.0345 25C71.7118 25 71.3892 24.9853 71.0665 24.956C70.7438 24.912 70.4212 24.8533 70.0985 24.78C70.0398 24.516 70.0032 24.274 69.9885 24.054C69.9738 23.834 69.9665 23.614 69.9665 23.394C69.9665 23.1887 69.9738 22.9687 69.9885 22.734C70.0032 22.4993 70.0398 22.2353 70.0985 21.942C70.4212 21.8687 70.7512 21.8247 71.0885 21.81C71.4258 21.7807 71.7558 21.766 72.0785 21.766C72.4158 21.766 72.7458 21.7807 73.0685 21.81C73.4058 21.8247 73.7432 21.8687 74.0805 21.942ZM82.4927 19.742L87.5967 11.316H92.6347V19.984H94.9447V22.58H92.6787V24.846H89.3787L89.3127 22.58H82.4927V19.742ZM89.5547 19.984V13.296L85.8367 19.984H89.5547ZM107.566 18.092C107.566 19.764 107.376 21.106 106.994 22.118C106.613 23.13 105.997 23.8633 105.146 24.318C104.296 24.7727 103.159 25 101.736 25C100.328 25 99.1989 24.7727 98.3482 24.318C97.4975 23.8633 96.8815 23.13 96.5002 22.118C96.1189 21.106 95.9282 19.764 95.9282 18.092C95.9282 16.4053 96.1189 15.056 96.5002 14.044C96.8815 13.032 97.4975 12.2987 98.3482 11.844C99.1989 11.3893 100.328 11.162 101.736 11.162C103.159 11.162 104.296 11.3893 105.146 11.844C105.997 12.2987 106.613 13.032 106.994 14.044C107.376 15.056 107.566 16.4053 107.566 18.092ZM101.736 22.074C102.734 22.074 103.386 21.7513 103.694 21.106C104.017 20.446 104.178 19.4413 104.178 18.092C104.178 16.728 104.017 15.7233 103.694 15.078C103.386 14.4327 102.734 14.11 101.736 14.11C100.754 14.11 100.101 14.4327 99.7782 15.078C99.4702 15.7233 99.3162 16.728 99.3162 18.092C99.3162 19.4413 99.4702 20.446 99.7782 21.106C100.101 21.7513 100.754 22.074 101.736 22.074ZM108.768 19.742L113.872 11.316H118.91V19.984H121.22V22.58H118.954V24.846H115.654L115.588 22.58H108.768V19.742ZM115.83 19.984V13.296L112.112 19.984H115.83Z" fill="#EB1313"/>
</g>
<defs>
<filter id="filter0_f_186_77" x="6.32001" y="0.875977" width="124.9" height="34.124" filterUnits="userSpaceOnUse" color-interpolation-filters="sRGB">
<feFlood flood-opacity="0" result="BackgroundImageFix"/>
<feBlend mode="normal" in="SourceGraphic" in2="BackgroundImageFix" result="shape"/>
<feGaussianBlur stdDeviation="5" result="effect1_foregroundBlur_186_77"/>
</filter>
</defs>
</svg>
