<svg width="2000" height="500" viewBox="0 0 2000 500" fill="none" xmlns="http://www.w3.org/2000/svg">
<path d="M0 0H2000V500H0V0Z" fill="#1E1E1E"/>
<path d="M50 78C50 71.3726 55.3726 66 62 66H338C344.627 66 350 71.3726 350 78V354C350 360.627 344.627 366 338 366H62C55.3726 366 50 360.627 50 354V78Z" fill="#444444"/>
<path d="M450 78C450 71.3726 455.373 66 462 66H738C744.627 66 750 71.3726 750 78V354C750 360.627 744.627 366 738 366H462C455.373 366 450 360.627 450 354V78Z" fill="#444444"/>
<path d="M500 128C500 121.373 505.373 116 512 116H688C694.627 116 700 121.373 700 128V304C700 310.627 694.627 316 688 316H512C505.373 316 500 310.627 500 304V128Z" fill="#333333"/>
<path d="M549.84 223.802H546.32V209.876H552.524C553.917 209.876 555.032 210.045 555.868 210.382C556.704 210.719 557.305 211.269 557.672 212.032C558.039 212.795 558.222 213.829 558.222 215.134C558.222 216.366 558.039 217.371 557.672 218.148C557.305 218.911 556.704 219.475 555.868 219.842C555.032 220.209 553.917 220.392 552.524 220.392H549.84V223.802ZM551.952 212.758H549.84V217.51H551.952C552.993 217.51 553.69 217.334 554.042 216.982C554.394 216.63 554.57 216.014 554.57 215.134C554.57 214.298 554.394 213.697 554.042 213.33C553.69 212.949 552.993 212.758 551.952 212.758Z" fill="#666666"/>
<path d="M564.161 212.978C565.569 212.978 566.706 213.125 567.571 213.418C568.437 213.711 569.068 214.254 569.464 215.046C569.874 215.823 570.079 216.953 570.079 218.434V223.802H566.889L566.779 222.79H566.714C566.435 223.157 566.002 223.45 565.415 223.67C564.829 223.89 564.066 224 563.128 224C560.59 224 559.321 222.812 559.321 220.436C559.321 219.424 559.651 218.632 560.311 218.06C560.986 217.473 562.042 217.18 563.479 217.18H566.735C566.633 216.564 566.369 216.153 565.943 215.948C565.518 215.728 564.792 215.618 563.766 215.618C563.12 215.618 562.482 215.669 561.852 215.772C561.236 215.86 560.693 215.963 560.224 216.08L560.157 216.036L560.18 213.484C560.473 213.396 560.847 213.315 561.302 213.242C561.756 213.154 562.233 213.088 562.732 213.044C563.245 213 563.721 212.978 564.161 212.978ZM564.029 221.404C564.939 221.404 565.621 221.294 566.076 221.074C566.53 220.839 566.765 220.473 566.779 219.974V219.424H564.293C563.648 219.424 563.194 219.519 562.93 219.71C562.68 219.886 562.555 220.128 562.555 220.436C562.555 220.803 562.687 221.059 562.951 221.206C563.215 221.338 563.575 221.404 564.029 221.404Z" fill="#666666"/>
<path d="M575.901 223.802H572.381V213.088H575.241L575.527 215.288H575.593C575.725 214.467 576.04 213.88 576.539 213.528C577.037 213.161 577.778 212.978 578.761 212.978C579.157 212.978 579.516 213 579.839 213.044C580.161 213.073 580.433 213.103 580.653 213.132V216.564L580.609 216.608C580.374 216.549 580.103 216.498 579.795 216.454C579.501 216.41 579.164 216.388 578.783 216.388C578.24 216.388 577.749 216.476 577.309 216.652C576.883 216.828 576.546 217.173 576.297 217.686C576.062 218.185 575.945 218.933 575.945 219.93L575.901 223.802Z" fill="#666666"/>
<path d="M582.419 220.59V215.97H581.099V213.11H582.749L583.409 210.492H585.939V213.11H588.337V215.97H585.939V219.82C585.939 220.231 585.99 220.517 586.093 220.678C586.196 220.825 586.43 220.898 586.797 220.898C587.032 220.898 587.281 220.891 587.545 220.876C587.809 220.847 588.073 220.817 588.337 220.788L588.403 220.832V223.692C587.699 223.897 586.768 224 585.609 224C584.45 224 583.629 223.736 583.145 223.208C582.661 222.68 582.419 221.807 582.419 220.59Z" fill="#666666"/>
<path d="M593.706 209.106C593.75 209.634 593.772 210.074 593.772 210.426C593.772 210.631 593.765 210.844 593.75 211.064C593.75 211.269 593.736 211.504 593.706 211.768C593.398 211.827 593.098 211.871 592.804 211.9C592.511 211.929 592.218 211.944 591.924 211.944C591.646 211.944 591.36 211.929 591.066 211.9C590.788 211.871 590.502 211.827 590.208 211.768C590.179 211.519 590.157 211.291 590.142 211.086C590.128 210.866 590.12 210.653 590.12 210.448C590.12 210.257 590.128 210.052 590.142 209.832C590.157 209.612 590.179 209.37 590.208 209.106C590.502 209.033 590.795 208.989 591.088 208.974C591.396 208.945 591.697 208.93 591.99 208.93C592.269 208.93 592.548 208.945 592.826 208.974C593.12 208.989 593.413 209.033 593.706 209.106ZM593.706 223.802H590.186V213.088H593.706V223.802Z" fill="#666666"/>
<path d="M600.212 212.978C601.62 212.978 602.757 213.125 603.622 213.418C604.488 213.711 605.118 214.254 605.514 215.046C605.925 215.823 606.13 216.953 606.13 218.434V223.802H602.94L602.83 222.79H602.764C602.486 223.157 602.053 223.45 601.466 223.67C600.88 223.89 600.117 224 599.178 224C596.641 224 595.372 222.812 595.372 220.436C595.372 219.424 595.702 218.632 596.362 218.06C597.037 217.473 598.093 217.18 599.53 217.18H602.786C602.684 216.564 602.42 216.153 601.994 215.948C601.569 215.728 600.843 215.618 599.816 215.618C599.171 215.618 598.533 215.669 597.902 215.772C597.286 215.86 596.744 215.963 596.274 216.08L596.208 216.036L596.23 213.484C596.524 213.396 596.898 213.315 597.352 213.242C597.807 213.154 598.284 213.088 598.782 213.044C599.296 213 599.772 212.978 600.212 212.978ZM600.08 221.404C600.99 221.404 601.672 221.294 602.126 221.074C602.581 220.839 602.816 220.473 602.83 219.974V219.424H600.344C599.699 219.424 599.244 219.519 598.98 219.71C598.731 219.886 598.606 220.128 598.606 220.436C598.606 220.803 598.738 221.059 599.002 221.206C599.266 221.338 599.626 221.404 600.08 221.404Z" fill="#666666"/>
<path d="M611.951 223.802H608.431V208.996H611.951V223.802Z" fill="#666666"/>
<path d="M629.531 220.7V223.56C629.164 223.707 628.622 223.817 627.903 223.89C627.184 223.963 626.422 224 625.615 224C624.456 224 623.488 223.839 622.711 223.516C621.948 223.193 621.376 222.636 620.995 221.844C620.628 221.052 620.438 219.952 620.423 218.544C620.423 217.092 620.621 215.963 621.017 215.156C621.428 214.349 622.022 213.785 622.799 213.462C623.576 213.139 624.508 212.978 625.593 212.978C626.238 212.978 626.92 213.022 627.639 213.11C628.358 213.198 628.944 213.315 629.399 213.462L629.421 216.41L629.355 216.454C628.915 216.366 628.446 216.3 627.947 216.256C627.448 216.212 626.957 216.19 626.473 216.19C625.49 216.19 624.808 216.373 624.427 216.74C624.046 217.107 623.855 217.723 623.855 218.588C623.855 219.248 623.936 219.739 624.097 220.062C624.258 220.385 624.53 220.597 624.911 220.7C625.292 220.803 625.813 220.854 626.473 220.854C626.986 220.854 627.478 220.832 627.947 220.788C628.416 220.744 628.915 220.693 629.443 220.634L629.531 220.7Z" fill="#666666"/>
<path d="M635.576 212.978C636.984 212.978 638.12 213.125 638.986 213.418C639.851 213.711 640.482 214.254 640.878 215.046C641.288 215.823 641.494 216.953 641.494 218.434V223.802H638.304L638.194 222.79H638.128C637.849 223.157 637.416 223.45 636.83 223.67C636.243 223.89 635.48 224 634.542 224C632.004 224 630.736 222.812 630.736 220.436C630.736 219.424 631.066 218.632 631.726 218.06C632.4 217.473 633.456 217.18 634.894 217.18H638.15C638.047 216.564 637.783 216.153 637.358 215.948C636.932 215.728 636.206 215.618 635.18 215.618C634.534 215.618 633.896 215.669 633.266 215.772C632.65 215.86 632.107 215.963 631.638 216.08L631.572 216.036L631.594 213.484C631.887 213.396 632.261 213.315 632.716 213.242C633.17 213.154 633.647 213.088 634.146 213.044C634.659 213 635.136 212.978 635.576 212.978ZM635.444 221.404C636.353 221.404 637.035 221.294 637.49 221.074C637.944 220.839 638.179 220.473 638.194 219.974V219.424H635.708C635.062 219.424 634.608 219.519 634.344 219.71C634.094 219.886 633.97 220.128 633.97 220.436C633.97 220.803 634.102 221.059 634.366 221.206C634.63 221.338 634.989 221.404 635.444 221.404Z" fill="#666666"/>
<path d="M647.315 223.802H643.795V208.996H647.315V223.802Z" fill="#666666"/>
<path d="M653.481 223.802H649.961V208.996H653.481V223.802Z" fill="#666666"/>
<path d="M100 128C100 121.373 105.373 116 112 116H288C294.627 116 300 121.373 300 128V304C300 310.627 294.627 316 288 316H112C105.373 316 100 310.627 100 304V128Z" fill="#333333"/>
<path d="M164.84 222.802H161.32V208.876H171.66V211.736H164.84V214.926H171.22V217.786H164.84V222.802Z" fill="#666666"/>
<path d="M176.828 223C175.479 223 174.518 222.641 173.946 221.922C173.374 221.203 173.088 220.177 173.088 218.842V212.088H176.608L176.63 217.984C176.63 218.644 176.748 219.113 176.982 219.392C177.217 219.656 177.694 219.788 178.412 219.788C179.102 219.788 179.564 219.671 179.798 219.436C180.048 219.187 180.18 218.769 180.194 218.182V212.088H183.714V222.802H180.37L180.194 221.592H180.128C179.938 222.017 179.549 222.362 178.962 222.626C178.376 222.875 177.664 223 176.828 223Z" fill="#666666"/>
<path d="M189.869 222.802H186.349V207.996H189.869V222.802Z" fill="#666666"/>
<path d="M196.035 222.802H192.515V207.996H196.035V222.802Z" fill="#666666"/>
<path d="M213.615 219.7V222.56C213.248 222.707 212.706 222.817 211.987 222.89C211.268 222.963 210.506 223 209.699 223C208.54 223 207.572 222.839 206.795 222.516C206.032 222.193 205.46 221.636 205.079 220.844C204.712 220.052 204.522 218.952 204.507 217.544C204.507 216.092 204.705 214.963 205.101 214.156C205.512 213.349 206.106 212.785 206.883 212.462C207.66 212.139 208.592 211.978 209.677 211.978C210.322 211.978 211.004 212.022 211.723 212.11C212.442 212.198 213.028 212.315 213.483 212.462L213.505 215.41L213.439 215.454C212.999 215.366 212.53 215.3 212.031 215.256C211.532 215.212 211.041 215.19 210.557 215.19C209.574 215.19 208.892 215.373 208.511 215.74C208.13 216.107 207.939 216.723 207.939 217.588C207.939 218.248 208.02 218.739 208.181 219.062C208.342 219.385 208.614 219.597 208.995 219.7C209.376 219.803 209.897 219.854 210.557 219.854C211.07 219.854 211.562 219.832 212.031 219.788C212.5 219.744 212.999 219.693 213.527 219.634L213.615 219.7Z" fill="#666666"/>
<path d="M219.66 211.978C221.068 211.978 222.204 212.125 223.07 212.418C223.935 212.711 224.566 213.254 224.962 214.046C225.372 214.823 225.578 215.953 225.578 217.434V222.802H222.388L222.278 221.79H222.212C221.933 222.157 221.5 222.45 220.914 222.67C220.327 222.89 219.564 223 218.626 223C216.088 223 214.82 221.812 214.82 219.436C214.82 218.424 215.15 217.632 215.81 217.06C216.484 216.473 217.54 216.18 218.978 216.18H222.234C222.131 215.564 221.867 215.153 221.442 214.948C221.016 214.728 220.29 214.618 219.264 214.618C218.618 214.618 217.98 214.669 217.35 214.772C216.734 214.86 216.191 214.963 215.722 215.08L215.656 215.036L215.678 212.484C215.971 212.396 216.345 212.315 216.8 212.242C217.254 212.154 217.731 212.088 218.23 212.044C218.743 212 219.22 211.978 219.66 211.978ZM219.528 220.404C220.437 220.404 221.119 220.294 221.574 220.074C222.028 219.839 222.263 219.473 222.278 218.974V218.424H219.792C219.146 218.424 218.692 218.519 218.428 218.71C218.178 218.886 218.054 219.128 218.054 219.436C218.054 219.803 218.186 220.059 218.45 220.206C218.714 220.338 219.073 220.404 219.528 220.404Z" fill="#666666"/>
<path d="M231.399 222.802H227.879V207.996H231.399V222.802Z" fill="#666666"/>
<path d="M237.565 222.802H234.045V207.996H237.565V222.802Z" fill="#666666"/>
<path d="M363.64 207.936V205.216L365.512 204.032H367.912L367.944 213.856H365.512V206.8H365.432L363.72 207.936H363.64Z" fill="white"/>
<path d="M369.91 209.76V204.112H376.854V206.176H372.118V207.744L372.151 207.792H373.862C375.036 207.792 375.889 208.032 376.422 208.512C376.956 208.992 377.223 209.755 377.223 210.8C377.223 211.909 376.876 212.72 376.182 213.232C375.489 213.744 374.412 214 372.951 214C372.257 214 371.628 213.968 371.062 213.904C370.497 213.829 369.991 213.739 369.543 213.632V211.68L369.574 211.648C369.809 211.712 370.086 211.765 370.406 211.808C370.737 211.851 371.073 211.888 371.414 211.92C371.756 211.941 372.065 211.952 372.342 211.952C373.004 211.952 373.51 211.92 373.862 211.856C374.214 211.792 374.454 211.68 374.582 211.52C374.721 211.349 374.79 211.115 374.79 210.816C374.79 210.443 374.7 210.176 374.518 210.016C374.348 209.845 374.001 209.76 373.479 209.76H369.91Z" fill="white"/>
<path d="M378.569 215.488C378.633 215.499 378.708 215.504 378.793 215.504C379.113 215.504 379.353 215.445 379.513 215.328C379.673 215.221 379.753 215.029 379.753 214.752L379.737 214.736C379.556 214.843 379.294 214.896 378.953 214.896C378.121 214.896 377.705 214.501 377.705 213.712C377.705 213.307 377.806 213.003 378.009 212.8C378.222 212.587 378.606 212.48 379.161 212.48C379.726 212.48 380.126 212.64 380.361 212.96C380.606 213.28 380.729 213.739 380.729 214.336C380.729 215.115 380.569 215.653 380.249 215.952C379.929 216.251 379.476 216.4 378.889 216.4C378.836 216.4 378.782 216.395 378.729 216.384C378.676 216.384 378.617 216.379 378.553 216.368V215.504L378.569 215.488Z" fill="white"/>
<path d="M389.868 208.976C389.868 210.192 389.729 211.168 389.452 211.904C389.174 212.64 388.726 213.173 388.108 213.504C387.489 213.835 386.662 214 385.628 214C384.604 214 383.782 213.835 383.164 213.504C382.545 213.173 382.097 212.64 381.82 211.904C381.542 211.168 381.404 210.192 381.404 208.976C381.404 207.749 381.542 206.768 381.82 206.032C382.097 205.296 382.545 204.763 383.164 204.432C383.782 204.101 384.604 203.936 385.628 203.936C386.662 203.936 387.489 204.101 388.108 204.432C388.726 204.763 389.174 205.296 389.452 206.032C389.729 206.768 389.868 207.749 389.868 208.976ZM385.628 211.872C386.353 211.872 386.828 211.637 387.052 211.168C387.286 210.688 387.404 209.957 387.404 208.976C387.404 207.984 387.286 207.253 387.052 206.784C386.828 206.315 386.353 206.08 385.628 206.08C384.913 206.08 384.438 206.315 384.204 206.784C383.98 207.253 383.868 207.984 383.868 208.976C383.868 209.957 383.98 210.688 384.204 211.168C384.438 211.637 384.913 211.872 385.628 211.872Z" fill="white"/>
<path d="M399.446 208.976C399.446 210.192 399.307 211.168 399.03 211.904C398.753 212.64 398.305 213.173 397.686 213.504C397.067 213.835 396.241 214 395.206 214C394.182 214 393.361 213.835 392.742 213.504C392.123 213.173 391.675 212.64 391.398 211.904C391.121 211.168 390.982 210.192 390.982 208.976C390.982 207.749 391.121 206.768 391.398 206.032C391.675 205.296 392.123 204.763 392.742 204.432C393.361 204.101 394.182 203.936 395.206 203.936C396.241 203.936 397.067 204.101 397.686 204.432C398.305 204.763 398.753 205.296 399.03 206.032C399.307 206.768 399.446 207.749 399.446 208.976ZM395.206 211.872C395.931 211.872 396.406 211.637 396.63 211.168C396.865 210.688 396.982 209.957 396.982 208.976C396.982 207.984 396.865 207.253 396.63 206.784C396.406 206.315 395.931 206.08 395.206 206.08C394.491 206.08 394.017 206.315 393.782 206.784C393.558 207.253 393.446 207.984 393.446 208.976C393.446 209.957 393.558 210.688 393.782 211.168C394.017 211.637 394.491 211.872 395.206 211.872Z" fill="white"/>
<path d="M409.024 208.976C409.024 210.192 408.885 211.168 408.608 211.904C408.331 212.64 407.883 213.173 407.264 213.504C406.645 213.835 405.819 214 404.784 214C403.76 214 402.939 213.835 402.32 213.504C401.701 213.173 401.253 212.64 400.976 211.904C400.699 211.168 400.56 210.192 400.56 208.976C400.56 207.749 400.699 206.768 400.976 206.032C401.253 205.296 401.701 204.763 402.32 204.432C402.939 204.101 403.76 203.936 404.784 203.936C405.819 203.936 406.645 204.101 407.264 204.432C407.883 204.763 408.331 205.296 408.608 206.032C408.885 206.768 409.024 207.749 409.024 208.976ZM404.784 211.872C405.509 211.872 405.984 211.637 406.208 211.168C406.443 210.688 406.56 209.957 406.56 208.976C406.56 207.984 406.443 207.253 406.208 206.784C405.984 206.315 405.509 206.08 404.784 206.08C404.069 206.08 403.595 206.315 403.36 206.784C403.136 207.253 403.024 207.984 403.024 208.976C403.024 209.957 403.136 210.688 403.36 211.168C403.595 211.637 404.069 211.872 404.784 211.872Z" fill="white"/>
<path d="M425.015 205.984C425.804 205.984 426.428 206.245 426.887 206.768C427.356 207.291 427.591 208.197 427.591 209.488V213.856H425.031L425.015 209.808C425.015 209.285 424.935 208.907 424.775 208.672C424.626 208.437 424.327 208.32 423.879 208.32C423.431 208.32 423.127 208.437 422.967 208.672C422.818 208.907 422.743 209.285 422.743 209.808V213.856H420.183L420.167 209.808C420.167 209.285 420.087 208.907 419.927 208.672C419.778 208.437 419.479 208.32 419.031 208.32C418.583 208.32 418.279 208.437 418.119 208.672C417.97 208.907 417.895 209.285 417.895 209.808V213.856H415.335V206.064H417.767L417.895 207.488H417.943C418.082 207.019 418.322 206.651 418.663 206.384C419.015 206.117 419.511 205.984 420.151 205.984C420.791 205.984 421.292 206.117 421.655 206.384C422.028 206.651 422.268 207.019 422.375 207.488H422.423C422.562 207.008 422.828 206.64 423.223 206.384C423.628 206.117 424.226 205.984 425.015 205.984Z" fill="white"/>
<path d="M428.999 211.648C429.831 211.883 430.753 212 431.767 212C432.257 212 432.625 211.984 432.871 211.952C433.116 211.92 433.281 211.867 433.367 211.792C433.452 211.717 433.495 211.616 433.495 211.488C433.495 211.307 433.425 211.195 433.287 211.152C433.159 211.109 432.897 211.051 432.503 210.976L431.239 210.736C430.428 210.576 429.841 210.325 429.479 209.984C429.127 209.632 428.951 209.109 428.951 208.416C428.951 207.477 429.228 206.837 429.783 206.496C430.348 206.155 431.244 205.984 432.471 205.984C433.207 205.984 433.852 206.027 434.407 206.112C434.972 206.187 435.441 206.283 435.815 206.4L435.783 208.336L435.735 208.384C434.871 208.107 433.927 207.968 432.903 207.968C432.401 207.968 432.049 208.005 431.847 208.08C431.655 208.144 431.559 208.277 431.559 208.48C431.559 208.587 431.585 208.672 431.639 208.736C431.703 208.8 431.841 208.864 432.055 208.928C432.268 208.981 432.604 209.051 433.063 209.136L434.231 209.36C434.881 209.499 435.361 209.728 435.671 210.048C435.98 210.368 436.135 210.875 436.135 211.568C436.135 212.176 436.023 212.661 435.799 213.024C435.575 213.376 435.196 213.627 434.663 213.776C434.14 213.925 433.415 214 432.487 214C431.783 214 431.132 213.968 430.535 213.904C429.948 213.829 429.42 213.744 428.951 213.648V211.68L428.999 211.648Z" fill="white"/>
<path d="M131.84 98.802H128.32V84.876H134.524C135.917 84.876 137.032 85.0447 137.868 85.382C138.704 85.7193 139.305 86.2693 139.672 87.032C140.039 87.7947 140.222 88.8287 140.222 90.134C140.222 91.366 140.039 92.3707 139.672 93.148C139.305 93.9107 138.704 94.4753 137.868 94.842C137.032 95.2087 135.917 95.392 134.524 95.392H131.84V98.802ZM133.952 87.758H131.84V92.51H133.952C134.993 92.51 135.69 92.334 136.042 91.982C136.394 91.63 136.57 91.014 136.57 90.134C136.57 89.298 136.394 88.6967 136.042 88.33C135.69 87.9487 134.993 87.758 133.952 87.758Z" fill="#262626"/>
<path d="M145.611 98.802H142.091V88.088H144.951L145.237 90.288H145.303C145.435 89.4667 145.751 88.88 146.249 88.528C146.748 88.1613 147.489 87.978 148.471 87.978C148.867 87.978 149.227 88 149.549 88.044C149.872 88.0733 150.143 88.1027 150.363 88.132V91.564L150.319 91.608C150.085 91.5493 149.813 91.498 149.505 91.454C149.212 91.41 148.875 91.388 148.493 91.388C147.951 91.388 147.459 91.476 147.019 91.652C146.594 91.828 146.257 92.1727 146.007 92.686C145.773 93.1847 145.655 93.9327 145.655 94.93L145.611 98.802Z" fill="#262626"/>
<path d="M151.14 93.522C151.14 91.5567 151.558 90.1413 152.394 89.276C153.23 88.4107 154.645 87.978 156.64 87.978C157.975 87.978 159.045 88.1687 159.852 88.55C160.659 88.9313 161.238 89.5327 161.59 90.354C161.957 91.1607 162.14 92.2167 162.14 93.522C162.14 94.8127 161.957 95.8613 161.59 96.668C161.238 97.4747 160.659 98.0687 159.852 98.45C159.045 98.8167 157.975 99 156.64 99C154.645 99 153.23 98.5747 152.394 97.724C151.558 96.8587 151.14 95.458 151.14 93.522ZM156.64 95.986C157.491 95.986 158.063 95.8027 158.356 95.436C158.664 95.0547 158.818 94.3947 158.818 93.456C158.818 92.5613 158.664 91.9233 158.356 91.542C158.063 91.146 157.491 90.948 156.64 90.948C155.819 90.948 155.247 91.146 154.924 91.542C154.616 91.9233 154.462 92.5613 154.462 93.456C154.462 94.3947 154.616 95.0547 154.924 95.436C155.247 95.8027 155.819 95.986 156.64 95.986Z" fill="#262626"/>
<path d="M164.798 98.076C164.314 97.8707 163.962 97.6067 163.742 97.284C163.522 96.9613 163.412 96.5727 163.412 96.118C163.412 95.7073 163.522 95.348 163.742 95.04C163.976 94.732 164.284 94.49 164.666 94.314V94.248C164.299 93.9547 164.028 93.588 163.852 93.148C163.69 92.6933 163.61 92.1727 163.61 91.586C163.61 90.4127 163.991 89.518 164.754 88.902C165.516 88.286 166.836 87.978 168.714 87.978C170.254 87.978 171.427 88.198 172.234 88.638H172.344C172.578 88.2567 172.879 87.9413 173.246 87.692C173.612 87.4427 174.06 87.318 174.588 87.318C174.749 87.318 174.896 87.3253 175.028 87.34C175.16 87.34 175.284 87.3473 175.402 87.362V90.068C175.123 90.0093 174.793 89.98 174.412 89.98C174.104 89.98 173.81 90.0093 173.532 90.068C173.693 90.4933 173.774 90.9993 173.774 91.586C173.774 92.8473 173.392 93.7567 172.63 94.314C171.867 94.8713 170.562 95.15 168.714 95.15C168.288 95.15 167.892 95.1353 167.526 95.106C167.159 95.0767 166.822 95.0327 166.514 94.974C166.455 95.0913 166.426 95.2307 166.426 95.392C166.426 95.6267 166.499 95.8247 166.646 95.986C166.807 96.1327 167.078 96.206 167.46 96.206H170.628C171.977 96.206 172.982 96.4187 173.642 96.844C174.316 97.2693 174.654 98.0907 174.654 99.308C174.654 100.511 174.184 101.427 173.246 102.058C172.307 102.689 170.723 103.004 168.494 103.004C166.66 103.004 165.326 102.755 164.49 102.256C163.654 101.772 163.236 101.061 163.236 100.122C163.236 99.6087 163.375 99.1833 163.654 98.846C163.932 98.494 164.314 98.2593 164.798 98.142V98.076ZM168.714 92.796C169.403 92.796 169.887 92.7153 170.166 92.554C170.444 92.378 170.584 92.07 170.584 91.63C170.584 91.19 170.444 90.8673 170.166 90.662C169.887 90.4567 169.403 90.354 168.714 90.354C168.01 90.354 167.518 90.4567 167.24 90.662C166.961 90.8673 166.822 91.19 166.822 91.63C166.822 92.07 166.961 92.378 167.24 92.554C167.518 92.7153 168.01 92.796 168.714 92.796ZM168.912 100.408C169.689 100.408 170.261 100.371 170.628 100.298C170.994 100.225 171.236 100.115 171.354 99.968C171.471 99.8213 171.53 99.638 171.53 99.418C171.53 99.1687 171.456 98.9707 171.31 98.824C171.163 98.6627 170.943 98.582 170.65 98.582H167.284C166.99 98.582 166.77 98.6627 166.624 98.824C166.477 98.9707 166.404 99.1687 166.404 99.418C166.404 99.638 166.462 99.8213 166.58 99.968C166.712 100.115 166.954 100.225 167.306 100.298C167.672 100.371 168.208 100.408 168.912 100.408Z" fill="#262626"/>
<path d="M180.029 98.802H176.509V88.088H179.369L179.655 90.288H179.721C179.853 89.4667 180.169 88.88 180.667 88.528C181.166 88.1613 181.907 87.978 182.889 87.978C183.285 87.978 183.645 88 183.967 88.044C184.29 88.0733 184.561 88.1027 184.781 88.132V91.564L184.737 91.608C184.503 91.5493 184.231 91.498 183.923 91.454C183.63 91.41 183.293 91.388 182.911 91.388C182.369 91.388 181.877 91.476 181.437 91.652C181.012 91.828 180.675 92.1727 180.425 92.686C180.191 93.1847 180.073 93.9327 180.073 94.93L180.029 98.802Z" fill="#262626"/>
<path d="M190.398 87.978C191.806 87.978 192.942 88.1247 193.808 88.418C194.673 88.7113 195.304 89.254 195.7 90.046C196.11 90.8233 196.316 91.9527 196.316 93.434V98.802H193.126L193.016 97.79H192.95C192.671 98.1567 192.238 98.45 191.652 98.67C191.065 98.89 190.302 99 189.364 99C186.826 99 185.558 97.812 185.558 95.436C185.558 94.424 185.888 93.632 186.548 93.06C187.222 92.4733 188.278 92.18 189.716 92.18H192.972C192.869 91.564 192.605 91.1533 192.18 90.948C191.754 90.728 191.028 90.618 190.002 90.618C189.356 90.618 188.718 90.6693 188.088 90.772C187.472 90.86 186.929 90.9627 186.46 91.08L186.394 91.036L186.416 88.484C186.709 88.396 187.083 88.3153 187.538 88.242C187.992 88.154 188.469 88.088 188.968 88.044C189.481 88 189.958 87.978 190.398 87.978ZM190.266 96.404C191.175 96.404 191.857 96.294 192.312 96.074C192.766 95.8393 193.001 95.4727 193.016 94.974V94.424H190.53C189.884 94.424 189.43 94.5193 189.166 94.71C188.916 94.886 188.792 95.128 188.792 95.436C188.792 95.8027 188.924 96.0593 189.188 96.206C189.452 96.338 189.811 96.404 190.266 96.404Z" fill="#262626"/>
<path d="M211.927 87.978C213.012 87.978 213.87 88.3373 214.501 89.056C215.146 89.7747 215.469 91.0213 215.469 92.796V98.802H211.949L211.927 93.236C211.927 92.5173 211.817 91.9967 211.597 91.674C211.392 91.3513 210.981 91.19 210.365 91.19C209.749 91.19 209.331 91.3513 209.111 91.674C208.906 91.9967 208.803 92.5173 208.803 93.236V98.802H205.283L205.261 93.236C205.261 92.5173 205.151 91.9967 204.931 91.674C204.726 91.3513 204.315 91.19 203.699 91.19C203.083 91.19 202.665 91.3513 202.445 91.674C202.24 91.9967 202.137 92.5173 202.137 93.236V98.802H198.617V88.088H201.961L202.137 90.046H202.203C202.394 89.4007 202.724 88.8947 203.193 88.528C203.677 88.1613 204.359 87.978 205.239 87.978C206.119 87.978 206.808 88.1613 207.307 88.528C207.82 88.8947 208.15 89.4007 208.297 90.046H208.363C208.554 89.386 208.92 88.88 209.463 88.528C210.02 88.1613 210.842 87.978 211.927 87.978Z" fill="#262626"/>
<path d="M224 95.766C225.144 96.0887 226.413 96.25 227.806 96.25C228.481 96.25 228.987 96.228 229.324 96.184C229.661 96.14 229.889 96.0667 230.006 95.964C230.123 95.8613 230.182 95.722 230.182 95.546C230.182 95.2967 230.087 95.1427 229.896 95.084C229.72 95.0253 229.361 94.9447 228.818 94.842L227.08 94.512C225.965 94.292 225.159 93.9473 224.66 93.478C224.176 92.994 223.934 92.2753 223.934 91.322C223.934 90.0313 224.315 89.1513 225.078 88.682C225.855 88.2127 227.087 87.978 228.774 87.978C229.786 87.978 230.673 88.0367 231.436 88.154C232.213 88.2567 232.859 88.3887 233.372 88.55L233.328 91.212L233.262 91.278C232.074 90.8967 230.776 90.706 229.368 90.706C228.679 90.706 228.195 90.7573 227.916 90.86C227.652 90.948 227.52 91.1313 227.52 91.41C227.52 91.5567 227.557 91.674 227.63 91.762C227.718 91.85 227.909 91.938 228.202 92.026C228.495 92.0993 228.957 92.1947 229.588 92.312L231.194 92.62C232.089 92.8107 232.749 93.126 233.174 93.566C233.599 94.006 233.812 94.7027 233.812 95.656C233.812 96.492 233.658 97.1593 233.35 97.658C233.042 98.142 232.521 98.4867 231.788 98.692C231.069 98.8973 230.072 99 228.796 99C227.828 99 226.933 98.956 226.112 98.868C225.305 98.7653 224.579 98.648 223.934 98.516V95.81L224 95.766Z" fill="#262626"/>
<path d="M235.897 95.59V90.97H234.577V88.11H236.227L236.887 85.492H239.417V88.11H241.815V90.97H239.417V94.82C239.417 95.2307 239.469 95.5167 239.571 95.678C239.674 95.8247 239.909 95.898 240.275 95.898C240.51 95.898 240.759 95.8907 241.023 95.876C241.287 95.8467 241.551 95.8173 241.815 95.788L241.881 95.832V98.692C241.177 98.8973 240.246 99 239.087 99C237.929 99 237.107 98.736 236.623 98.208C236.139 97.68 235.897 96.8073 235.897 95.59Z" fill="#262626"/>
<path d="M247.933 87.978C249.341 87.978 250.478 88.1247 251.343 88.418C252.208 88.7113 252.839 89.254 253.235 90.046C253.646 90.8233 253.851 91.9527 253.851 93.434V98.802H250.661L250.551 97.79H250.485C250.206 98.1567 249.774 98.45 249.187 98.67C248.6 98.89 247.838 99 246.899 99C244.362 99 243.093 97.812 243.093 95.436C243.093 94.424 243.423 93.632 244.083 93.06C244.758 92.4733 245.814 92.18 247.251 92.18H250.507C250.404 91.564 250.14 91.1533 249.715 90.948C249.29 90.728 248.564 90.618 247.537 90.618C246.892 90.618 246.254 90.6693 245.623 90.772C245.007 90.86 244.464 90.9627 243.995 91.08L243.929 91.036L243.951 88.484C244.244 88.396 244.618 88.3153 245.073 88.242C245.528 88.154 246.004 88.088 246.503 88.044C247.016 88 247.493 87.978 247.933 87.978ZM247.801 96.404C248.71 96.404 249.392 96.294 249.847 96.074C250.302 95.8393 250.536 95.4727 250.551 94.974V94.424H248.065C247.42 94.424 246.965 94.5193 246.701 94.71C246.452 94.886 246.327 95.128 246.327 95.436C246.327 95.8027 246.459 96.0593 246.723 96.206C246.987 96.338 247.346 96.404 247.801 96.404Z" fill="#262626"/>
<path d="M259.672 98.802H256.152V88.088H259.012L259.298 90.288H259.364C259.496 89.4667 259.811 88.88 260.31 88.528C260.809 88.1613 261.549 87.978 262.532 87.978C262.928 87.978 263.287 88 263.61 88.044C263.933 88.0733 264.204 88.1027 264.424 88.132V91.564L264.38 91.608C264.145 91.5493 263.874 91.498 263.566 91.454C263.273 91.41 262.935 91.388 262.554 91.388C262.011 91.388 261.52 91.476 261.08 91.652C260.655 91.828 260.317 92.1727 260.068 92.686C259.833 93.1847 259.716 93.9327 259.716 94.93L259.672 98.802Z" fill="#262626"/>
<path d="M266.19 95.59V90.97H264.87V88.11H266.52L267.18 85.492H269.71V88.11H272.108V90.97H269.71V94.82C269.71 95.2307 269.762 95.5167 269.864 95.678C269.967 95.8247 270.202 95.898 270.568 95.898C270.803 95.898 271.052 95.8907 271.316 95.876C271.58 95.8467 271.844 95.8173 272.108 95.788L272.174 95.832V98.692C271.47 98.8973 270.539 99 269.38 99C268.222 99 267.4 98.736 266.916 98.208C266.432 97.68 266.19 96.8073 266.19 95.59Z" fill="#262626"/>
<path d="M564.84 98.802H561.32V84.876H567.524C568.917 84.876 570.032 85.0447 570.868 85.382C571.704 85.7193 572.305 86.2693 572.672 87.032C573.039 87.7947 573.222 88.8287 573.222 90.134C573.222 91.366 573.039 92.3707 572.672 93.148C572.305 93.9107 571.704 94.4753 570.868 94.842C570.032 95.2087 568.917 95.392 567.524 95.392H564.84V98.802ZM566.952 87.758H564.84V92.51H566.952C567.993 92.51 568.69 92.334 569.042 91.982C569.394 91.63 569.57 91.014 569.57 90.134C569.57 89.298 569.394 88.6967 569.042 88.33C568.69 87.9487 567.993 87.758 566.952 87.758Z" fill="#262626"/>
<path d="M584.529 98.45C584.119 98.5967 583.547 98.7287 582.813 98.846C582.095 98.9487 581.237 99 580.24 99C578.978 99 577.9 98.8387 577.005 98.516C576.125 98.1787 575.458 97.614 575.003 96.822C574.549 96.0153 574.321 94.9007 574.321 93.478C574.321 91.542 574.761 90.1413 575.641 89.276C576.536 88.4107 577.915 87.978 579.777 87.978C581.112 87.978 582.161 88.1687 582.923 88.55C583.701 88.9313 584.251 89.474 584.573 90.178C584.911 90.8673 585.079 91.6887 585.079 92.642C585.079 92.9207 585.065 93.2213 585.035 93.544C585.021 93.8667 584.984 94.182 584.925 94.49L584.837 94.578H577.599C577.702 95.2233 578.003 95.6487 578.501 95.854C579.015 96.0593 579.843 96.162 580.987 96.162C581.75 96.162 582.381 96.1473 582.879 96.118C583.393 96.074 583.913 96.0153 584.441 95.942L584.529 96.008V98.45ZM582.021 92.268C582.021 91.916 581.963 91.6153 581.845 91.366C581.743 91.102 581.53 90.904 581.207 90.772C580.885 90.6253 580.408 90.552 579.777 90.552C578.853 90.552 578.245 90.7133 577.951 91.036C577.673 91.344 577.534 91.7547 577.534 92.268H582.021Z" fill="#262626"/>
<path d="M590.471 98.802H586.951V88.088H589.811L590.097 90.288H590.163C590.295 89.4667 590.61 88.88 591.109 88.528C591.608 88.1613 592.348 87.978 593.331 87.978C593.727 87.978 594.086 88 594.409 88.044C594.732 88.0733 595.003 88.1027 595.223 88.132V91.564L595.179 91.608C594.944 91.5493 594.673 91.498 594.365 91.454C594.072 91.41 593.734 91.388 593.353 91.388C592.81 91.388 592.319 91.476 591.879 91.652C591.454 91.828 591.116 92.1727 590.867 92.686C590.632 93.1847 590.515 93.9327 590.515 94.93L590.471 98.802Z" fill="#262626"/>
<path d="M600.091 84.106C600.135 84.634 600.157 85.074 600.157 85.426C600.157 85.6313 600.15 85.844 600.135 86.064C600.135 86.2693 600.121 86.504 600.091 86.768C599.783 86.8267 599.483 86.8707 599.189 86.9C598.896 86.9293 598.603 86.944 598.309 86.944C598.031 86.944 597.745 86.9293 597.451 86.9C597.173 86.8707 596.887 86.8267 596.593 86.768C596.564 86.5187 596.542 86.2913 596.527 86.086C596.513 85.866 596.505 85.6533 596.505 85.448C596.505 85.2573 596.513 85.052 596.527 84.832C596.542 84.612 596.564 84.37 596.593 84.106C596.887 84.0327 597.18 83.9887 597.473 83.974C597.781 83.9447 598.082 83.93 598.375 83.93C598.654 83.93 598.933 83.9447 599.211 83.974C599.505 83.9887 599.798 84.0327 600.091 84.106ZM600.091 98.802H596.571V88.088H600.091V98.802Z" fill="#262626"/>
<path d="M601.757 93.522C601.757 91.5567 602.175 90.1413 603.011 89.276C603.847 88.4107 605.262 87.978 607.257 87.978C608.592 87.978 609.662 88.1687 610.469 88.55C611.276 88.9313 611.855 89.5327 612.207 90.354C612.574 91.1607 612.757 92.2167 612.757 93.522C612.757 94.8127 612.574 95.8613 612.207 96.668C611.855 97.4747 611.276 98.0687 610.469 98.45C609.662 98.8167 608.592 99 607.257 99C605.262 99 603.847 98.5747 603.011 97.724C602.175 96.8587 601.757 95.458 601.757 93.522ZM607.257 95.986C608.108 95.986 608.68 95.8027 608.973 95.436C609.281 95.0547 609.435 94.3947 609.435 93.456C609.435 92.5613 609.281 91.9233 608.973 91.542C608.68 91.146 608.108 90.948 607.257 90.948C606.436 90.948 605.864 91.146 605.541 91.542C605.233 91.9233 605.079 92.5613 605.079 93.456C605.079 94.3947 605.233 95.0547 605.541 95.436C605.864 95.8027 606.436 95.986 607.257 95.986Z" fill="#262626"/>
<path d="M621.311 98.802L621.179 97.24H621.091C620.841 97.8267 620.482 98.2667 620.013 98.56C619.558 98.8533 618.891 99 618.011 99C616.588 99 615.547 98.5893 614.887 97.768C614.227 96.932 613.882 95.678 613.853 94.006C613.838 92.51 613.992 91.322 614.315 90.442C614.637 89.562 615.143 88.9313 615.833 88.55C616.522 88.1687 617.402 87.978 618.473 87.978C619.03 87.978 619.536 88.0293 619.991 88.132C620.445 88.22 620.812 88.3447 621.091 88.506L621.135 88.484V83.996H624.655V98.802H621.311ZM619.155 96.008C619.741 96.008 620.218 95.8247 620.585 95.458C620.951 95.0913 621.135 94.4827 621.135 93.632V91.322C620.592 91.102 619.954 90.992 619.221 90.992C618.531 90.992 618.033 91.1607 617.725 91.498C617.431 91.8207 617.285 92.4807 617.285 93.478C617.285 94.3287 617.402 94.9667 617.637 95.392C617.886 95.8027 618.392 96.008 619.155 96.008Z" fill="#262626"/>
<path d="M633.454 90.662V86.922L636.028 85.294H639.328L639.372 98.802H636.028V89.1H635.918L633.564 90.662H633.454Z" fill="#262626"/>
<path d="M850 78C850 71.3726 855.373 66 862 66H1138C1144.63 66 1150 71.3726 1150 78V354C1150 360.627 1144.63 366 1138 366H862C855.373 366 850 360.627 850 354V78Z" fill="#444444"/>
<path d="M900 128C900 121.373 905.373 116 912 116H1088C1094.63 116 1100 121.373 1100 128V304C1100 310.627 1094.63 316 1088 316H912C905.373 316 900 310.627 900 304V128Z" fill="#333333"/>
<path d="M949.84 223.802H946.32V209.876H952.524C953.917 209.876 955.032 210.045 955.868 210.382C956.704 210.719 957.305 211.269 957.672 212.032C958.039 212.795 958.222 213.829 958.222 215.134C958.222 216.366 958.039 217.371 957.672 218.148C957.305 218.911 956.704 219.475 955.868 219.842C955.032 220.209 953.917 220.392 952.524 220.392H949.84V223.802ZM951.952 212.758H949.84V217.51H951.952C952.993 217.51 953.69 217.334 954.042 216.982C954.394 216.63 954.57 216.014 954.57 215.134C954.57 214.298 954.394 213.697 954.042 213.33C953.69 212.949 952.993 212.758 951.952 212.758Z" fill="#666666"/>
<path d="M964.161 212.978C965.569 212.978 966.706 213.125 967.571 213.418C968.437 213.711 969.068 214.254 969.464 215.046C969.874 215.823 970.079 216.953 970.079 218.434V223.802H966.889L966.779 222.79H966.714C966.435 223.157 966.002 223.45 965.415 223.67C964.829 223.89 964.066 224 963.128 224C960.59 224 959.321 222.812 959.321 220.436C959.321 219.424 959.651 218.632 960.311 218.06C960.986 217.473 962.042 217.18 963.479 217.18H966.735C966.633 216.564 966.369 216.153 965.943 215.948C965.518 215.728 964.792 215.618 963.766 215.618C963.12 215.618 962.482 215.669 961.852 215.772C961.236 215.86 960.693 215.963 960.224 216.08L960.157 216.036L960.18 213.484C960.473 213.396 960.847 213.315 961.302 213.242C961.756 213.154 962.233 213.088 962.732 213.044C963.245 213 963.721 212.978 964.161 212.978ZM964.029 221.404C964.939 221.404 965.621 221.294 966.076 221.074C966.53 220.839 966.765 220.473 966.779 219.974V219.424H964.293C963.648 219.424 963.194 219.519 962.93 219.71C962.68 219.886 962.555 220.128 962.555 220.436C962.555 220.803 962.687 221.059 962.951 221.206C963.215 221.338 963.575 221.404 964.029 221.404Z" fill="#666666"/>
<path d="M975.901 223.802H972.381V213.088H975.241L975.527 215.288H975.593C975.725 214.467 976.04 213.88 976.539 213.528C977.037 213.161 977.778 212.978 978.761 212.978C979.157 212.978 979.516 213 979.839 213.044C980.161 213.073 980.433 213.103 980.653 213.132V216.564L980.609 216.608C980.374 216.549 980.103 216.498 979.795 216.454C979.501 216.41 979.164 216.388 978.783 216.388C978.24 216.388 977.749 216.476 977.309 216.652C976.883 216.828 976.546 217.173 976.297 217.686C976.062 218.185 975.945 218.933 975.945 219.93L975.901 223.802Z" fill="#666666"/>
<path d="M982.419 220.59V215.97H981.099V213.11H982.749L983.409 210.492H985.939V213.11H988.337V215.97H985.939V219.82C985.939 220.231 985.99 220.517 986.093 220.678C986.196 220.825 986.43 220.898 986.797 220.898C987.032 220.898 987.281 220.891 987.545 220.876C987.809 220.847 988.073 220.817 988.337 220.788L988.403 220.832V223.692C987.699 223.897 986.768 224 985.609 224C984.45 224 983.629 223.736 983.145 223.208C982.661 222.68 982.419 221.807 982.419 220.59Z" fill="#666666"/>
<path d="M993.706 209.106C993.75 209.634 993.772 210.074 993.772 210.426C993.772 210.631 993.765 210.844 993.75 211.064C993.75 211.269 993.736 211.504 993.706 211.768C993.398 211.827 993.098 211.871 992.804 211.9C992.511 211.929 992.218 211.944 991.924 211.944C991.646 211.944 991.36 211.929 991.066 211.9C990.788 211.871 990.502 211.827 990.208 211.768C990.179 211.519 990.157 211.291 990.142 211.086C990.128 210.866 990.12 210.653 990.12 210.448C990.12 210.257 990.128 210.052 990.142 209.832C990.157 209.612 990.179 209.37 990.208 209.106C990.502 209.033 990.795 208.989 991.088 208.974C991.396 208.945 991.697 208.93 991.99 208.93C992.269 208.93 992.548 208.945 992.826 208.974C993.12 208.989 993.413 209.033 993.706 209.106ZM993.706 223.802H990.186V213.088H993.706V223.802Z" fill="#666666"/>
<path d="M1000.21 212.978C1001.62 212.978 1002.76 213.125 1003.62 213.418C1004.49 213.711 1005.12 214.254 1005.51 215.046C1005.92 215.823 1006.13 216.953 1006.13 218.434V223.802H1002.94L1002.83 222.79H1002.76C1002.49 223.157 1002.05 223.45 1001.47 223.67C1000.88 223.89 1000.12 224 999.178 224C996.641 224 995.372 222.812 995.372 220.436C995.372 219.424 995.702 218.632 996.362 218.06C997.037 217.473 998.093 217.18 999.53 217.18H1002.79C1002.68 216.564 1002.42 216.153 1001.99 215.948C1001.57 215.728 1000.84 215.618 999.816 215.618C999.171 215.618 998.533 215.669 997.902 215.772C997.286 215.86 996.744 215.963 996.274 216.08L996.208 216.036L996.23 213.484C996.524 213.396 996.898 213.315 997.352 213.242C997.807 213.154 998.284 213.088 998.782 213.044C999.296 213 999.772 212.978 1000.21 212.978ZM1000.08 221.404C1000.99 221.404 1001.67 221.294 1002.13 221.074C1002.58 220.839 1002.82 220.473 1002.83 219.974V219.424H1000.34C999.699 219.424 999.244 219.519 998.98 219.71C998.731 219.886 998.606 220.128 998.606 220.436C998.606 220.803 998.738 221.059 999.002 221.206C999.266 221.338 999.626 221.404 1000.08 221.404Z" fill="#666666"/>
<path d="M1011.95 223.802H1008.43V208.996H1011.95V223.802Z" fill="#666666"/>
<path d="M1029.53 220.7V223.56C1029.16 223.707 1028.62 223.817 1027.9 223.89C1027.18 223.963 1026.42 224 1025.61 224C1024.46 224 1023.49 223.839 1022.71 223.516C1021.95 223.193 1021.38 222.636 1021 221.844C1020.63 221.052 1020.44 219.952 1020.42 218.544C1020.42 217.092 1020.62 215.963 1021.02 215.156C1021.43 214.349 1022.02 213.785 1022.8 213.462C1023.58 213.139 1024.51 212.978 1025.59 212.978C1026.24 212.978 1026.92 213.022 1027.64 213.11C1028.36 213.198 1028.94 213.315 1029.4 213.462L1029.42 216.41L1029.36 216.454C1028.92 216.366 1028.45 216.3 1027.95 216.256C1027.45 216.212 1026.96 216.19 1026.47 216.19C1025.49 216.19 1024.81 216.373 1024.43 216.74C1024.05 217.107 1023.86 217.723 1023.86 218.588C1023.86 219.248 1023.94 219.739 1024.1 220.062C1024.26 220.385 1024.53 220.597 1024.91 220.7C1025.29 220.803 1025.81 220.854 1026.47 220.854C1026.99 220.854 1027.48 220.832 1027.95 220.788C1028.42 220.744 1028.91 220.693 1029.44 220.634L1029.53 220.7Z" fill="#666666"/>
<path d="M1035.58 212.978C1036.98 212.978 1038.12 213.125 1038.99 213.418C1039.85 213.711 1040.48 214.254 1040.88 215.046C1041.29 215.823 1041.49 216.953 1041.49 218.434V223.802H1038.3L1038.19 222.79H1038.13C1037.85 223.157 1037.42 223.45 1036.83 223.67C1036.24 223.89 1035.48 224 1034.54 224C1032 224 1030.74 222.812 1030.74 220.436C1030.74 219.424 1031.07 218.632 1031.73 218.06C1032.4 217.473 1033.46 217.18 1034.89 217.18H1038.15C1038.05 216.564 1037.78 216.153 1037.36 215.948C1036.93 215.728 1036.21 215.618 1035.18 215.618C1034.53 215.618 1033.9 215.669 1033.27 215.772C1032.65 215.86 1032.11 215.963 1031.64 216.08L1031.57 216.036L1031.59 213.484C1031.89 213.396 1032.26 213.315 1032.72 213.242C1033.17 213.154 1033.65 213.088 1034.15 213.044C1034.66 213 1035.14 212.978 1035.58 212.978ZM1035.44 221.404C1036.35 221.404 1037.03 221.294 1037.49 221.074C1037.94 220.839 1038.18 220.473 1038.19 219.974V219.424H1035.71C1035.06 219.424 1034.61 219.519 1034.34 219.71C1034.09 219.886 1033.97 220.128 1033.97 220.436C1033.97 220.803 1034.1 221.059 1034.37 221.206C1034.63 221.338 1034.99 221.404 1035.44 221.404Z" fill="#666666"/>
<path d="M1047.31 223.802H1043.79V208.996H1047.31V223.802Z" fill="#666666"/>
<path d="M1053.48 223.802H1049.96V208.996H1053.48V223.802Z" fill="#666666"/>
<path d="M962.84 98.802H959.32V84.876H965.524C966.917 84.876 968.032 85.0447 968.868 85.382C969.704 85.7193 970.305 86.2693 970.672 87.032C971.039 87.7947 971.222 88.8287 971.222 90.134C971.222 91.366 971.039 92.3707 970.672 93.148C970.305 93.9107 969.704 94.4753 968.868 94.842C968.032 95.2087 966.917 95.392 965.524 95.392H962.84V98.802ZM964.952 87.758H962.84V92.51H964.952C965.993 92.51 966.69 92.334 967.042 91.982C967.394 91.63 967.57 91.014 967.57 90.134C967.57 89.298 967.394 88.6967 967.042 88.33C966.69 87.9487 965.993 87.758 964.952 87.758Z" fill="#262626"/>
<path d="M982.529 98.45C982.119 98.5967 981.547 98.7287 980.813 98.846C980.095 98.9487 979.237 99 978.24 99C976.978 99 975.9 98.8387 975.005 98.516C974.125 98.1787 973.458 97.614 973.003 96.822C972.549 96.0153 972.321 94.9007 972.321 93.478C972.321 91.542 972.761 90.1413 973.641 89.276C974.536 88.4107 975.915 87.978 977.777 87.978C979.112 87.978 980.161 88.1687 980.923 88.55C981.701 88.9313 982.251 89.474 982.573 90.178C982.911 90.8673 983.079 91.6887 983.079 92.642C983.079 92.9207 983.065 93.2213 983.035 93.544C983.021 93.8667 982.984 94.182 982.925 94.49L982.837 94.578H975.599C975.702 95.2233 976.003 95.6487 976.501 95.854C977.015 96.0593 977.843 96.162 978.987 96.162C979.75 96.162 980.381 96.1473 980.879 96.118C981.393 96.074 981.913 96.0153 982.441 95.942L982.529 96.008V98.45ZM980.021 92.268C980.021 91.916 979.963 91.6153 979.845 91.366C979.743 91.102 979.53 90.904 979.207 90.772C978.885 90.6253 978.408 90.552 977.777 90.552C976.853 90.552 976.245 90.7133 975.951 91.036C975.673 91.344 975.534 91.7547 975.534 92.268H980.021Z" fill="#262626"/>
<path d="M988.471 98.802H984.951V88.088H987.811L988.097 90.288H988.163C988.295 89.4667 988.61 88.88 989.109 88.528C989.608 88.1613 990.348 87.978 991.331 87.978C991.727 87.978 992.086 88 992.409 88.044C992.732 88.0733 993.003 88.1027 993.223 88.132V91.564L993.179 91.608C992.944 91.5493 992.673 91.498 992.365 91.454C992.072 91.41 991.734 91.388 991.353 91.388C990.81 91.388 990.319 91.476 989.879 91.652C989.454 91.828 989.116 92.1727 988.867 92.686C988.632 93.1847 988.515 93.9327 988.515 94.93L988.471 98.802Z" fill="#262626"/>
<path d="M998.091 84.106C998.135 84.634 998.157 85.074 998.157 85.426C998.157 85.6313 998.15 85.844 998.135 86.064C998.135 86.2693 998.121 86.504 998.091 86.768C997.783 86.8267 997.483 86.8707 997.189 86.9C996.896 86.9293 996.603 86.944 996.309 86.944C996.031 86.944 995.745 86.9293 995.451 86.9C995.173 86.8707 994.887 86.8267 994.593 86.768C994.564 86.5187 994.542 86.2913 994.527 86.086C994.513 85.866 994.505 85.6533 994.505 85.448C994.505 85.2573 994.513 85.052 994.527 84.832C994.542 84.612 994.564 84.37 994.593 84.106C994.887 84.0327 995.18 83.9887 995.473 83.974C995.781 83.9447 996.082 83.93 996.375 83.93C996.654 83.93 996.933 83.9447 997.211 83.974C997.505 83.9887 997.798 84.0327 998.091 84.106ZM998.091 98.802H994.571V88.088H998.091V98.802Z" fill="#262626"/>
<path d="M999.757 93.522C999.757 91.5567 1000.18 90.1413 1001.01 89.276C1001.85 88.4107 1003.26 87.978 1005.26 87.978C1006.59 87.978 1007.66 88.1687 1008.47 88.55C1009.28 88.9313 1009.86 89.5327 1010.21 90.354C1010.57 91.1607 1010.76 92.2167 1010.76 93.522C1010.76 94.8127 1010.57 95.8613 1010.21 96.668C1009.86 97.4747 1009.28 98.0687 1008.47 98.45C1007.66 98.8167 1006.59 99 1005.26 99C1003.26 99 1001.85 98.5747 1001.01 97.724C1000.18 96.8587 999.757 95.458 999.757 93.522ZM1005.26 95.986C1006.11 95.986 1006.68 95.8027 1006.97 95.436C1007.28 95.0547 1007.44 94.3947 1007.44 93.456C1007.44 92.5613 1007.28 91.9233 1006.97 91.542C1006.68 91.146 1006.11 90.948 1005.26 90.948C1004.44 90.948 1003.86 91.146 1003.54 91.542C1003.23 91.9233 1003.08 92.5613 1003.08 93.456C1003.08 94.3947 1003.23 95.0547 1003.54 95.436C1003.86 95.8027 1004.44 95.986 1005.26 95.986Z" fill="#262626"/>
<path d="M1019.31 98.802L1019.18 97.24H1019.09C1018.84 97.8267 1018.48 98.2667 1018.01 98.56C1017.56 98.8533 1016.89 99 1016.01 99C1014.59 99 1013.55 98.5893 1012.89 97.768C1012.23 96.932 1011.88 95.678 1011.85 94.006C1011.84 92.51 1011.99 91.322 1012.31 90.442C1012.64 89.562 1013.14 88.9313 1013.83 88.55C1014.52 88.1687 1015.4 87.978 1016.47 87.978C1017.03 87.978 1017.54 88.0293 1017.99 88.132C1018.45 88.22 1018.81 88.3447 1019.09 88.506L1019.13 88.484V83.996H1022.65V98.802H1019.31ZM1017.15 96.008C1017.74 96.008 1018.22 95.8247 1018.58 95.458C1018.95 95.0913 1019.13 94.4827 1019.13 93.632V91.322C1018.59 91.102 1017.95 90.992 1017.22 90.992C1016.53 90.992 1016.03 91.1607 1015.72 91.498C1015.43 91.8207 1015.28 92.4807 1015.28 93.478C1015.28 94.3287 1015.4 94.9667 1015.64 95.392C1015.89 95.8027 1016.39 96.008 1017.15 96.008Z" fill="#262626"/>
<path d="M1031.5 89.166V86.284C1032.01 85.9613 1032.69 85.6973 1033.52 85.492C1034.36 85.2867 1035.27 85.184 1036.25 85.184C1037.82 85.184 1039.07 85.492 1040.01 86.108C1040.97 86.724 1041.44 87.7653 1041.44 89.232C1041.44 90.3907 1041.17 91.322 1040.63 92.026C1040.1 92.7153 1039.16 93.3167 1037.81 93.83C1036.51 94.3287 1035.6 94.754 1035.11 95.106C1034.62 95.4433 1034.38 95.7807 1034.38 96.118H1041.55V98.912H1031.12V96.448C1031.12 95.7 1031.25 95.062 1031.5 94.534C1031.76 94.006 1032.21 93.522 1032.84 93.082C1033.47 92.642 1034.34 92.1873 1035.46 91.718C1036.29 91.366 1036.95 91.0287 1037.42 90.706C1037.9 90.3687 1038.13 89.9653 1038.12 89.496C1038.11 88.9387 1037.89 88.55 1037.48 88.33C1037.09 88.0953 1036.52 87.978 1035.79 87.978C1035.08 87.978 1034.37 88.1027 1033.63 88.352C1032.9 88.5867 1032.25 88.858 1031.7 89.166H1031.5Z" fill="#262626"/>
<path d="M1250 78C1250 71.3726 1255.37 66 1262 66H1538C1544.63 66 1550 71.3726 1550 78V354C1550 360.627 1544.63 366 1538 366H1262C1255.37 366 1250 360.627 1250 354V78Z" fill="#444444"/>
<path d="M1300 128C1300 121.373 1305.37 116 1312 116H1488C1494.63 116 1500 121.373 1500 128V304C1500 310.627 1494.63 316 1488 316H1312C1305.37 316 1300 310.627 1300 304V128Z" fill="#333333"/>
<path d="M1349.84 223.802H1346.32V209.876H1352.52C1353.92 209.876 1355.03 210.045 1355.87 210.382C1356.7 210.719 1357.31 211.269 1357.67 212.032C1358.04 212.795 1358.22 213.829 1358.22 215.134C1358.22 216.366 1358.04 217.371 1357.67 218.148C1357.31 218.911 1356.7 219.475 1355.87 219.842C1355.03 220.209 1353.92 220.392 1352.52 220.392H1349.84V223.802ZM1351.95 212.758H1349.84V217.51H1351.95C1352.99 217.51 1353.69 217.334 1354.04 216.982C1354.39 216.63 1354.57 216.014 1354.57 215.134C1354.57 214.298 1354.39 213.697 1354.04 213.33C1353.69 212.949 1352.99 212.758 1351.95 212.758Z" fill="#666666"/>
<path d="M1364.16 212.978C1365.57 212.978 1366.71 213.125 1367.57 213.418C1368.44 213.711 1369.07 214.254 1369.46 215.046C1369.87 215.823 1370.08 216.953 1370.08 218.434V223.802H1366.89L1366.78 222.79H1366.71C1366.43 223.157 1366 223.45 1365.42 223.67C1364.83 223.89 1364.07 224 1363.13 224C1360.59 224 1359.32 222.812 1359.32 220.436C1359.32 219.424 1359.65 218.632 1360.31 218.06C1360.99 217.473 1362.04 217.18 1363.48 217.18H1366.74C1366.63 216.564 1366.37 216.153 1365.94 215.948C1365.52 215.728 1364.79 215.618 1363.77 215.618C1363.12 215.618 1362.48 215.669 1361.85 215.772C1361.24 215.86 1360.69 215.963 1360.22 216.08L1360.16 216.036L1360.18 213.484C1360.47 213.396 1360.85 213.315 1361.3 213.242C1361.76 213.154 1362.23 213.088 1362.73 213.044C1363.24 213 1363.72 212.978 1364.16 212.978ZM1364.03 221.404C1364.94 221.404 1365.62 221.294 1366.08 221.074C1366.53 220.839 1366.76 220.473 1366.78 219.974V219.424H1364.29C1363.65 219.424 1363.19 219.519 1362.93 219.71C1362.68 219.886 1362.56 220.128 1362.56 220.436C1362.56 220.803 1362.69 221.059 1362.95 221.206C1363.22 221.338 1363.57 221.404 1364.03 221.404Z" fill="#666666"/>
<path d="M1375.9 223.802H1372.38V213.088H1375.24L1375.53 215.288H1375.59C1375.72 214.467 1376.04 213.88 1376.54 213.528C1377.04 213.161 1377.78 212.978 1378.76 212.978C1379.16 212.978 1379.52 213 1379.84 213.044C1380.16 213.073 1380.43 213.103 1380.65 213.132V216.564L1380.61 216.608C1380.37 216.549 1380.1 216.498 1379.79 216.454C1379.5 216.41 1379.16 216.388 1378.78 216.388C1378.24 216.388 1377.75 216.476 1377.31 216.652C1376.88 216.828 1376.55 217.173 1376.3 217.686C1376.06 218.185 1375.94 218.933 1375.94 219.93L1375.9 223.802Z" fill="#666666"/>
<path d="M1382.42 220.59V215.97H1381.1V213.11H1382.75L1383.41 210.492H1385.94V213.11H1388.34V215.97H1385.94V219.82C1385.94 220.231 1385.99 220.517 1386.09 220.678C1386.2 220.825 1386.43 220.898 1386.8 220.898C1387.03 220.898 1387.28 220.891 1387.54 220.876C1387.81 220.847 1388.07 220.817 1388.34 220.788L1388.4 220.832V223.692C1387.7 223.897 1386.77 224 1385.61 224C1384.45 224 1383.63 223.736 1383.14 223.208C1382.66 222.68 1382.42 221.807 1382.42 220.59Z" fill="#666666"/>
<path d="M1393.71 209.106C1393.75 209.634 1393.77 210.074 1393.77 210.426C1393.77 210.631 1393.77 210.844 1393.75 211.064C1393.75 211.269 1393.74 211.504 1393.71 211.768C1393.4 211.827 1393.1 211.871 1392.8 211.9C1392.51 211.929 1392.22 211.944 1391.92 211.944C1391.65 211.944 1391.36 211.929 1391.07 211.9C1390.79 211.871 1390.5 211.827 1390.21 211.768C1390.18 211.519 1390.16 211.291 1390.14 211.086C1390.13 210.866 1390.12 210.653 1390.12 210.448C1390.12 210.257 1390.13 210.052 1390.14 209.832C1390.16 209.612 1390.18 209.37 1390.21 209.106C1390.5 209.033 1390.8 208.989 1391.09 208.974C1391.4 208.945 1391.7 208.93 1391.99 208.93C1392.27 208.93 1392.55 208.945 1392.83 208.974C1393.12 208.989 1393.41 209.033 1393.71 209.106ZM1393.71 223.802H1390.19V213.088H1393.71V223.802Z" fill="#666666"/>
<path d="M1400.21 212.978C1401.62 212.978 1402.76 213.125 1403.62 213.418C1404.49 213.711 1405.12 214.254 1405.51 215.046C1405.92 215.823 1406.13 216.953 1406.13 218.434V223.802H1402.94L1402.83 222.79H1402.76C1402.49 223.157 1402.05 223.45 1401.47 223.67C1400.88 223.89 1400.12 224 1399.18 224C1396.64 224 1395.37 222.812 1395.37 220.436C1395.37 219.424 1395.7 218.632 1396.36 218.06C1397.04 217.473 1398.09 217.18 1399.53 217.18H1402.79C1402.68 216.564 1402.42 216.153 1401.99 215.948C1401.57 215.728 1400.84 215.618 1399.82 215.618C1399.17 215.618 1398.53 215.669 1397.9 215.772C1397.29 215.86 1396.74 215.963 1396.27 216.08L1396.21 216.036L1396.23 213.484C1396.52 213.396 1396.9 213.315 1397.35 213.242C1397.81 213.154 1398.28 213.088 1398.78 213.044C1399.3 213 1399.77 212.978 1400.21 212.978ZM1400.08 221.404C1400.99 221.404 1401.67 221.294 1402.13 221.074C1402.58 220.839 1402.82 220.473 1402.83 219.974V219.424H1400.34C1399.7 219.424 1399.24 219.519 1398.98 219.71C1398.73 219.886 1398.61 220.128 1398.61 220.436C1398.61 220.803 1398.74 221.059 1399 221.206C1399.27 221.338 1399.63 221.404 1400.08 221.404Z" fill="#666666"/>
<path d="M1411.95 223.802H1408.43V208.996H1411.95V223.802Z" fill="#666666"/>
<path d="M1429.53 220.7V223.56C1429.16 223.707 1428.62 223.817 1427.9 223.89C1427.18 223.963 1426.42 224 1425.61 224C1424.46 224 1423.49 223.839 1422.71 223.516C1421.95 223.193 1421.38 222.636 1420.99 221.844C1420.63 221.052 1420.44 219.952 1420.42 218.544C1420.42 217.092 1420.62 215.963 1421.02 215.156C1421.43 214.349 1422.02 213.785 1422.8 213.462C1423.58 213.139 1424.51 212.978 1425.59 212.978C1426.24 212.978 1426.92 213.022 1427.64 213.11C1428.36 213.198 1428.94 213.315 1429.4 213.462L1429.42 216.41L1429.36 216.454C1428.92 216.366 1428.45 216.3 1427.95 216.256C1427.45 216.212 1426.96 216.19 1426.47 216.19C1425.49 216.19 1424.81 216.373 1424.43 216.74C1424.05 217.107 1423.86 217.723 1423.86 218.588C1423.86 219.248 1423.94 219.739 1424.1 220.062C1424.26 220.385 1424.53 220.597 1424.91 220.7C1425.29 220.803 1425.81 220.854 1426.47 220.854C1426.99 220.854 1427.48 220.832 1427.95 220.788C1428.42 220.744 1428.91 220.693 1429.44 220.634L1429.53 220.7Z" fill="#666666"/>
<path d="M1435.58 212.978C1436.98 212.978 1438.12 213.125 1438.99 213.418C1439.85 213.711 1440.48 214.254 1440.88 215.046C1441.29 215.823 1441.49 216.953 1441.49 218.434V223.802H1438.3L1438.19 222.79H1438.13C1437.85 223.157 1437.42 223.45 1436.83 223.67C1436.24 223.89 1435.48 224 1434.54 224C1432 224 1430.74 222.812 1430.74 220.436C1430.74 219.424 1431.07 218.632 1431.73 218.06C1432.4 217.473 1433.46 217.18 1434.89 217.18H1438.15C1438.05 216.564 1437.78 216.153 1437.36 215.948C1436.93 215.728 1436.21 215.618 1435.18 215.618C1434.53 215.618 1433.9 215.669 1433.27 215.772C1432.65 215.86 1432.11 215.963 1431.64 216.08L1431.57 216.036L1431.59 213.484C1431.89 213.396 1432.26 213.315 1432.72 213.242C1433.17 213.154 1433.65 213.088 1434.15 213.044C1434.66 213 1435.14 212.978 1435.58 212.978ZM1435.44 221.404C1436.35 221.404 1437.03 221.294 1437.49 221.074C1437.94 220.839 1438.18 220.473 1438.19 219.974V219.424H1435.71C1435.06 219.424 1434.61 219.519 1434.34 219.71C1434.09 219.886 1433.97 220.128 1433.97 220.436C1433.97 220.803 1434.1 221.059 1434.37 221.206C1434.63 221.338 1434.99 221.404 1435.44 221.404Z" fill="#666666"/>
<path d="M1447.31 223.802H1443.79V208.996H1447.31V223.802Z" fill="#666666"/>
<path d="M1453.48 223.802H1449.96V208.996H1453.48V223.802Z" fill="#666666"/>
<path d="M1362.71 98.802H1359.19V84.876H1365.39C1366.79 84.876 1367.9 85.0447 1368.74 85.382C1369.57 85.7193 1370.17 86.2693 1370.54 87.032C1370.91 87.7947 1371.09 88.8287 1371.09 90.134C1371.09 91.366 1370.91 92.3707 1370.54 93.148C1370.17 93.9107 1369.57 94.4753 1368.74 94.842C1367.9 95.2087 1366.79 95.392 1365.39 95.392H1362.71V98.802ZM1364.82 87.758H1362.71V92.51H1364.82C1365.86 92.51 1366.56 92.334 1366.91 91.982C1367.26 91.63 1367.44 91.014 1367.44 90.134C1367.44 89.298 1367.26 88.6967 1366.91 88.33C1366.56 87.9487 1365.86 87.758 1364.82 87.758Z" fill="#262626"/>
<path d="M1382.4 98.45C1381.99 98.5967 1381.42 98.7287 1380.68 98.846C1379.96 98.9487 1379.11 99 1378.11 99C1376.85 99 1375.77 98.8387 1374.87 98.516C1373.99 98.1787 1373.33 97.614 1372.87 96.822C1372.42 96.0153 1372.19 94.9007 1372.19 93.478C1372.19 91.542 1372.63 90.1413 1373.51 89.276C1374.41 88.4107 1375.78 87.978 1377.65 87.978C1378.98 87.978 1380.03 88.1687 1380.79 88.55C1381.57 88.9313 1382.12 89.474 1382.44 90.178C1382.78 90.8673 1382.95 91.6887 1382.95 92.642C1382.95 92.9207 1382.93 93.2213 1382.9 93.544C1382.89 93.8667 1382.85 94.182 1382.79 94.49L1382.71 94.578H1375.47C1375.57 95.2233 1375.87 95.6487 1376.37 95.854C1376.88 96.0593 1377.71 96.162 1378.86 96.162C1379.62 96.162 1380.25 96.1473 1380.75 96.118C1381.26 96.074 1381.78 96.0153 1382.31 95.942L1382.4 96.008V98.45ZM1379.89 92.268C1379.89 91.916 1379.83 91.6153 1379.71 91.366C1379.61 91.102 1379.4 90.904 1379.08 90.772C1378.75 90.6253 1378.28 90.552 1377.65 90.552C1376.72 90.552 1376.11 90.7133 1375.82 91.036C1375.54 91.344 1375.4 91.7547 1375.4 92.268H1379.89Z" fill="#262626"/>
<path d="M1388.34 98.802H1384.82V88.088H1387.68L1387.97 90.288H1388.03C1388.16 89.4667 1388.48 88.88 1388.98 88.528C1389.48 88.1613 1390.22 87.978 1391.2 87.978C1391.6 87.978 1391.96 88 1392.28 88.044C1392.6 88.0733 1392.87 88.1027 1393.09 88.132V91.564L1393.05 91.608C1392.81 91.5493 1392.54 91.498 1392.23 91.454C1391.94 91.41 1391.6 91.388 1391.22 91.388C1390.68 91.388 1390.19 91.476 1389.75 91.652C1389.32 91.828 1388.99 92.1727 1388.74 92.686C1388.5 93.1847 1388.38 93.9327 1388.38 94.93L1388.34 98.802Z" fill="#262626"/>
<path d="M1397.96 84.106C1398 84.634 1398.03 85.074 1398.03 85.426C1398.03 85.6313 1398.02 85.844 1398 86.064C1398 86.2693 1397.99 86.504 1397.96 86.768C1397.65 86.8267 1397.35 86.8707 1397.06 86.9C1396.77 86.9293 1396.47 86.944 1396.18 86.944C1395.9 86.944 1395.61 86.9293 1395.32 86.9C1395.04 86.8707 1394.76 86.8267 1394.46 86.768C1394.43 86.5187 1394.41 86.2913 1394.4 86.086C1394.38 85.866 1394.37 85.6533 1394.37 85.448C1394.37 85.2573 1394.38 85.052 1394.4 84.832C1394.41 84.612 1394.43 84.37 1394.46 84.106C1394.76 84.0327 1395.05 83.9887 1395.34 83.974C1395.65 83.9447 1395.95 83.93 1396.24 83.93C1396.52 83.93 1396.8 83.9447 1397.08 83.974C1397.37 83.9887 1397.67 84.0327 1397.96 84.106ZM1397.96 98.802H1394.44V88.088H1397.96V98.802Z" fill="#262626"/>
<path d="M1399.63 93.522C1399.63 91.5567 1400.04 90.1413 1400.88 89.276C1401.72 88.4107 1403.13 87.978 1405.13 87.978C1406.46 87.978 1407.53 88.1687 1408.34 88.55C1409.14 88.9313 1409.72 89.5327 1410.08 90.354C1410.44 91.1607 1410.63 92.2167 1410.63 93.522C1410.63 94.8127 1410.44 95.8613 1410.08 96.668C1409.72 97.4747 1409.14 98.0687 1408.34 98.45C1407.53 98.8167 1406.46 99 1405.13 99C1403.13 99 1401.72 98.5747 1400.88 97.724C1400.04 96.8587 1399.63 95.458 1399.63 93.522ZM1405.13 95.986C1405.98 95.986 1406.55 95.8027 1406.84 95.436C1407.15 95.0547 1407.3 94.3947 1407.3 93.456C1407.3 92.5613 1407.15 91.9233 1406.84 91.542C1406.55 91.146 1405.98 90.948 1405.13 90.948C1404.3 90.948 1403.73 91.146 1403.41 91.542C1403.1 91.9233 1402.95 92.5613 1402.95 93.456C1402.95 94.3947 1403.1 95.0547 1403.41 95.436C1403.73 95.8027 1404.3 95.986 1405.13 95.986Z" fill="#262626"/>
<path d="M1419.18 98.802L1419.05 97.24H1418.96C1418.71 97.8267 1418.35 98.2667 1417.88 98.56C1417.43 98.8533 1416.76 99 1415.88 99C1414.46 99 1413.42 98.5893 1412.76 97.768C1412.1 96.932 1411.75 95.678 1411.72 94.006C1411.71 92.51 1411.86 91.322 1412.18 90.442C1412.51 89.562 1413.01 88.9313 1413.7 88.55C1414.39 88.1687 1415.27 87.978 1416.34 87.978C1416.9 87.978 1417.41 88.0293 1417.86 88.132C1418.31 88.22 1418.68 88.3447 1418.96 88.506L1419 88.484V83.996H1422.52V98.802H1419.18ZM1417.02 96.008C1417.61 96.008 1418.09 95.8247 1418.45 95.458C1418.82 95.0913 1419 94.4827 1419 93.632V91.322C1418.46 91.102 1417.82 90.992 1417.09 90.992C1416.4 90.992 1415.9 91.1607 1415.59 91.498C1415.3 91.8207 1415.15 92.4807 1415.15 93.478C1415.15 94.3287 1415.27 94.9667 1415.51 95.392C1415.76 95.8027 1416.26 96.008 1417.02 96.008Z" fill="#262626"/>
<path d="M1431.98 85.69C1432.63 85.4847 1433.3 85.3453 1433.99 85.272C1434.69 85.184 1435.44 85.14 1436.25 85.14C1437.51 85.14 1438.51 85.2647 1439.24 85.514C1439.98 85.7487 1440.5 86.1153 1440.81 86.614C1441.13 87.1127 1441.29 87.7433 1441.29 88.506C1441.29 89.4007 1441.08 90.156 1440.65 90.772C1440.23 91.3733 1439.49 91.74 1438.45 91.872V91.982C1439.54 92.0407 1440.31 92.3413 1440.76 92.884C1441.23 93.4267 1441.47 94.094 1441.47 94.886C1441.47 96.206 1441.03 97.2033 1440.15 97.878C1439.28 98.538 1437.89 98.89 1435.97 98.934C1434.98 98.9487 1434.12 98.8973 1433.37 98.78C1432.62 98.6627 1431.94 98.5013 1431.32 98.296V95.546H1431.46C1432.04 95.7367 1432.64 95.876 1433.24 95.964C1433.84 96.052 1434.52 96.096 1435.28 96.096C1436.31 96.096 1437.05 95.986 1437.51 95.766C1437.96 95.546 1438.19 95.1647 1438.19 94.622C1438.19 94.1233 1438.01 93.786 1437.66 93.61C1437.32 93.4193 1436.69 93.324 1435.77 93.324H1434.01V90.486H1435.48C1436.54 90.486 1437.25 90.398 1437.62 90.222C1438 90.0313 1438.19 89.694 1438.19 89.21C1438.19 88.7113 1437.97 88.3813 1437.55 88.22C1437.14 88.0587 1436.41 87.978 1435.37 87.978C1434.8 87.978 1434.22 88.022 1433.63 88.11C1433.06 88.198 1432.54 88.3153 1432.07 88.462L1431.98 88.44V85.69Z" fill="#262626"/>
<path d="M1650 78C1650 71.3726 1655.37 66 1662 66H1938C1944.63 66 1950 71.3726 1950 78V354C1950 360.627 1944.63 366 1938 366H1662C1655.37 366 1650 360.627 1650 354V78Z" fill="#444444"/>
<path d="M1700 128C1700 121.373 1705.37 116 1712 116H1888C1894.63 116 1900 121.373 1900 128V304C1900 310.627 1894.63 316 1888 316H1712C1705.37 316 1700 310.627 1700 304V128Z" fill="#333333"/>
<path d="M1765.39 223.802H1761.87V209.876H1772.21V212.736H1765.39V215.926H1771.77V218.786H1765.39V223.802Z" fill="#666666"/>
<path d="M1777.38 224C1776.03 224 1775.07 223.641 1774.5 222.922C1773.93 222.203 1773.64 221.177 1773.64 219.842V213.088H1777.16L1777.18 218.984C1777.18 219.644 1777.3 220.113 1777.54 220.392C1777.77 220.656 1778.25 220.788 1778.97 220.788C1779.66 220.788 1780.12 220.671 1780.35 220.436C1780.6 220.187 1780.73 219.769 1780.75 219.182V213.088H1784.27V223.802H1780.92L1780.75 222.592H1780.68C1780.49 223.017 1780.1 223.362 1779.52 223.626C1778.93 223.875 1778.22 224 1777.38 224Z" fill="#666666"/>
<path d="M1790.42 223.802H1786.9V208.996H1790.42V223.802Z" fill="#666666"/>
<path d="M1796.59 223.802H1793.07V208.996H1796.59V223.802Z" fill="#666666"/>
<path d="M1814.17 220.7V223.56C1813.8 223.707 1813.26 223.817 1812.54 223.89C1811.82 223.963 1811.06 224 1810.25 224C1809.09 224 1808.13 223.839 1807.35 223.516C1806.59 223.193 1806.02 222.636 1805.63 221.844C1805.27 221.052 1805.08 219.952 1805.06 218.544C1805.06 217.092 1805.26 215.963 1805.66 215.156C1806.07 214.349 1806.66 213.785 1807.44 213.462C1808.22 213.139 1809.15 212.978 1810.23 212.978C1810.88 212.978 1811.56 213.022 1812.28 213.11C1813 213.198 1813.58 213.315 1814.04 213.462L1814.06 216.41L1813.99 216.454C1813.55 216.366 1813.08 216.3 1812.59 216.256C1812.09 216.212 1811.6 216.19 1811.11 216.19C1810.13 216.19 1809.45 216.373 1809.07 216.74C1808.68 217.107 1808.49 217.723 1808.49 218.588C1808.49 219.248 1808.57 219.739 1808.74 220.062C1808.9 220.385 1809.17 220.597 1809.55 220.7C1809.93 220.803 1810.45 220.854 1811.11 220.854C1811.63 220.854 1812.12 220.832 1812.59 220.788C1813.06 220.744 1813.55 220.693 1814.08 220.634L1814.17 220.7Z" fill="#666666"/>
<path d="M1820.21 212.978C1821.62 212.978 1822.76 213.125 1823.62 213.418C1824.49 213.711 1825.12 214.254 1825.52 215.046C1825.93 215.823 1826.13 216.953 1826.13 218.434V223.802H1822.94L1822.83 222.79H1822.77C1822.49 223.157 1822.05 223.45 1821.47 223.67C1820.88 223.89 1820.12 224 1819.18 224C1816.64 224 1815.37 222.812 1815.37 220.436C1815.37 219.424 1815.7 218.632 1816.36 218.06C1817.04 217.473 1818.09 217.18 1819.53 217.18H1822.79C1822.69 216.564 1822.42 216.153 1822 215.948C1821.57 215.728 1820.84 215.618 1819.82 215.618C1819.17 215.618 1818.53 215.669 1817.9 215.772C1817.29 215.86 1816.75 215.963 1816.28 216.08L1816.21 216.036L1816.23 213.484C1816.53 213.396 1816.9 213.315 1817.35 213.242C1817.81 213.154 1818.29 213.088 1818.78 213.044C1819.3 213 1819.77 212.978 1820.21 212.978ZM1820.08 221.404C1820.99 221.404 1821.67 221.294 1822.13 221.074C1822.58 220.839 1822.82 220.473 1822.83 219.974V219.424H1820.35C1819.7 219.424 1819.25 219.519 1818.98 219.71C1818.73 219.886 1818.61 220.128 1818.61 220.436C1818.61 220.803 1818.74 221.059 1819 221.206C1819.27 221.338 1819.63 221.404 1820.08 221.404Z" fill="#666666"/>
<path d="M1831.95 223.802H1828.43V208.996H1831.95V223.802Z" fill="#666666"/>
<path d="M1838.12 223.802H1834.6V208.996H1838.12V223.802Z" fill="#666666"/>
<path d="M1762 98.802H1758.48V84.876H1764.68C1766.08 84.876 1767.19 85.0447 1768.03 85.382C1768.86 85.7193 1769.47 86.2693 1769.83 87.032C1770.2 87.7947 1770.38 88.8287 1770.38 90.134C1770.38 91.366 1770.2 92.3707 1769.83 93.148C1769.47 93.9107 1768.86 94.4753 1768.03 94.842C1767.19 95.2087 1766.08 95.392 1764.68 95.392H1762V98.802ZM1764.11 87.758H1762V92.51H1764.11C1765.15 92.51 1765.85 92.334 1766.2 91.982C1766.55 91.63 1766.73 91.014 1766.73 90.134C1766.73 89.298 1766.55 88.6967 1766.2 88.33C1765.85 87.9487 1765.15 87.758 1764.11 87.758Z" fill="#262626"/>
<path d="M1781.69 98.45C1781.28 98.5967 1780.71 98.7287 1779.97 98.846C1779.25 98.9487 1778.4 99 1777.4 99C1776.14 99 1775.06 98.8387 1774.17 98.516C1773.29 98.1787 1772.62 97.614 1772.16 96.822C1771.71 96.0153 1771.48 94.9007 1771.48 93.478C1771.48 91.542 1771.92 90.1413 1772.8 89.276C1773.7 88.4107 1775.07 87.978 1776.94 87.978C1778.27 87.978 1779.32 88.1687 1780.08 88.55C1780.86 88.9313 1781.41 89.474 1781.73 90.178C1782.07 90.8673 1782.24 91.6887 1782.24 92.642C1782.24 92.9207 1782.23 93.2213 1782.2 93.544C1782.18 93.8667 1782.14 94.182 1782.09 94.49L1782 94.578H1774.76C1774.86 95.2233 1775.16 95.6487 1775.66 95.854C1776.17 96.0593 1777 96.162 1778.15 96.162C1778.91 96.162 1779.54 96.1473 1780.04 96.118C1780.55 96.074 1781.07 96.0153 1781.6 95.942L1781.69 96.008V98.45ZM1779.18 92.268C1779.18 91.916 1779.12 91.6153 1779.01 91.366C1778.9 91.102 1778.69 90.904 1778.37 90.772C1778.05 90.6253 1777.57 90.552 1776.94 90.552C1776.01 90.552 1775.41 90.7133 1775.11 91.036C1774.83 91.344 1774.69 91.7547 1774.69 92.268H1779.18Z" fill="#262626"/>
<path d="M1787.63 98.802H1784.11V88.088H1786.97L1787.26 90.288H1787.32C1787.45 89.4667 1787.77 88.88 1788.27 88.528C1788.77 88.1613 1789.51 87.978 1790.49 87.978C1790.89 87.978 1791.25 88 1791.57 88.044C1791.89 88.0733 1792.16 88.1027 1792.38 88.132V91.564L1792.34 91.608C1792.1 91.5493 1791.83 91.498 1791.53 91.454C1791.23 91.41 1790.89 91.388 1790.51 91.388C1789.97 91.388 1789.48 91.476 1789.04 91.652C1788.61 91.828 1788.28 92.1727 1788.03 92.686C1787.79 93.1847 1787.68 93.9327 1787.68 94.93L1787.63 98.802Z" fill="#262626"/>
<path d="M1797.25 84.106C1797.3 84.634 1797.32 85.074 1797.32 85.426C1797.32 85.6313 1797.31 85.844 1797.3 86.064C1797.3 86.2693 1797.28 86.504 1797.25 86.768C1796.94 86.8267 1796.64 86.8707 1796.35 86.9C1796.06 86.9293 1795.76 86.944 1795.47 86.944C1795.19 86.944 1794.9 86.9293 1794.61 86.9C1794.33 86.8707 1794.05 86.8267 1793.75 86.768C1793.72 86.5187 1793.7 86.2913 1793.69 86.086C1793.67 85.866 1793.67 85.6533 1793.67 85.448C1793.67 85.2573 1793.67 85.052 1793.69 84.832C1793.7 84.612 1793.72 84.37 1793.75 84.106C1794.05 84.0327 1794.34 83.9887 1794.63 83.974C1794.94 83.9447 1795.24 83.93 1795.54 83.93C1795.81 83.93 1796.09 83.9447 1796.37 83.974C1796.66 83.9887 1796.96 84.0327 1797.25 84.106ZM1797.25 98.802H1793.73V88.088H1797.25V98.802Z" fill="#262626"/>
<path d="M1798.92 93.522C1798.92 91.5567 1799.34 90.1413 1800.17 89.276C1801.01 88.4107 1802.42 87.978 1804.42 87.978C1805.75 87.978 1806.82 88.1687 1807.63 88.55C1808.44 88.9313 1809.02 89.5327 1809.37 90.354C1809.73 91.1607 1809.92 92.2167 1809.92 93.522C1809.92 94.8127 1809.73 95.8613 1809.37 96.668C1809.02 97.4747 1808.44 98.0687 1807.63 98.45C1806.82 98.8167 1805.75 99 1804.42 99C1802.42 99 1801.01 98.5747 1800.17 97.724C1799.34 96.8587 1798.92 95.458 1798.92 93.522ZM1804.42 95.986C1805.27 95.986 1805.84 95.8027 1806.13 95.436C1806.44 95.0547 1806.6 94.3947 1806.6 93.456C1806.6 92.5613 1806.44 91.9233 1806.13 91.542C1805.84 91.146 1805.27 90.948 1804.42 90.948C1803.6 90.948 1803.02 91.146 1802.7 91.542C1802.39 91.9233 1802.24 92.5613 1802.24 93.456C1802.24 94.3947 1802.39 95.0547 1802.7 95.436C1803.02 95.8027 1803.6 95.986 1804.42 95.986Z" fill="#262626"/>
<path d="M1818.47 98.802L1818.34 97.24H1818.25C1818 97.8267 1817.64 98.2667 1817.17 98.56C1816.72 98.8533 1816.05 99 1815.17 99C1813.75 99 1812.71 98.5893 1812.05 97.768C1811.39 96.932 1811.04 95.678 1811.01 94.006C1811 92.51 1811.15 91.322 1811.47 90.442C1811.8 89.562 1812.3 88.9313 1812.99 88.55C1813.68 88.1687 1814.56 87.978 1815.63 87.978C1816.19 87.978 1816.7 88.0293 1817.15 88.132C1817.61 88.22 1817.97 88.3447 1818.25 88.506L1818.29 88.484V83.996H1821.81V98.802H1818.47ZM1816.31 96.008C1816.9 96.008 1817.38 95.8247 1817.74 95.458C1818.11 95.0913 1818.29 94.4827 1818.29 93.632V91.322C1817.75 91.102 1817.11 90.992 1816.38 90.992C1815.69 90.992 1815.19 91.1607 1814.88 91.498C1814.59 91.8207 1814.44 92.4807 1814.44 93.478C1814.44 94.3287 1814.56 94.9667 1814.8 95.392C1815.05 95.8027 1815.55 96.008 1816.31 96.008Z" fill="#262626"/>
<path d="M1830.17 93.742L1835.28 85.316H1840.32V93.984H1842.63V96.58H1840.36V98.846H1837.06L1836.99 96.58H1830.17V93.742ZM1837.24 93.984V87.296L1833.52 93.984H1837.24Z" fill="#262626"/>
<path d="M763.64 207.936V205.216L765.512 204.032H767.912L767.944 213.856H765.512V206.8H765.432L763.72 207.936H763.64Z" fill="white"/>
<path d="M769.911 209.76V204.112H776.854V206.176H772.119V207.744L772.151 207.792H773.862C775.036 207.792 775.889 208.032 776.422 208.512C776.956 208.992 777.222 209.755 777.222 210.8C777.222 211.909 776.876 212.72 776.182 213.232C775.489 213.744 774.412 214 772.951 214C772.257 214 771.628 213.968 771.062 213.904C770.497 213.829 769.99 213.739 769.542 213.632V211.68L769.575 211.648C769.809 211.712 770.086 211.765 770.406 211.808C770.737 211.851 771.073 211.888 771.414 211.92C771.756 211.941 772.065 211.952 772.343 211.952C773.004 211.952 773.51 211.92 773.862 211.856C774.214 211.792 774.455 211.68 774.583 211.52C774.721 211.349 774.791 211.115 774.791 210.816C774.791 210.443 774.7 210.176 774.518 210.016C774.348 209.845 774.001 209.76 773.479 209.76H769.911Z" fill="white"/>
<path d="M778.569 215.488C778.633 215.499 778.708 215.504 778.793 215.504C779.113 215.504 779.353 215.445 779.513 215.328C779.673 215.221 779.753 215.029 779.753 214.752L779.737 214.736C779.556 214.843 779.294 214.896 778.953 214.896C778.121 214.896 777.705 214.501 777.705 213.712C777.705 213.307 777.806 213.003 778.009 212.8C778.222 212.587 778.606 212.48 779.161 212.48C779.726 212.48 780.126 212.64 780.361 212.96C780.606 213.28 780.729 213.739 780.729 214.336C780.729 215.115 780.569 215.653 780.249 215.952C779.929 216.251 779.476 216.4 778.889 216.4C778.836 216.4 778.782 216.395 778.729 216.384C778.676 216.384 778.617 216.379 778.553 216.368V215.504L778.569 215.488Z" fill="white"/>
<path d="M789.868 208.976C789.868 210.192 789.729 211.168 789.452 211.904C789.174 212.64 788.726 213.173 788.108 213.504C787.489 213.835 786.662 214 785.628 214C784.604 214 783.782 213.835 783.164 213.504C782.545 213.173 782.097 212.64 781.82 211.904C781.542 211.168 781.404 210.192 781.404 208.976C781.404 207.749 781.542 206.768 781.82 206.032C782.097 205.296 782.545 204.763 783.164 204.432C783.782 204.101 784.604 203.936 785.628 203.936C786.662 203.936 787.489 204.101 788.108 204.432C788.726 204.763 789.174 205.296 789.452 206.032C789.729 206.768 789.868 207.749 789.868 208.976ZM785.628 211.872C786.353 211.872 786.828 211.637 787.052 211.168C787.286 210.688 787.404 209.957 787.404 208.976C787.404 207.984 787.286 207.253 787.052 206.784C786.828 206.315 786.353 206.08 785.628 206.08C784.913 206.08 784.438 206.315 784.204 206.784C783.98 207.253 783.868 207.984 783.868 208.976C783.868 209.957 783.98 210.688 784.204 211.168C784.438 211.637 784.913 211.872 785.628 211.872Z" fill="white"/>
<path d="M799.446 208.976C799.446 210.192 799.307 211.168 799.03 211.904C798.753 212.64 798.305 213.173 797.686 213.504C797.067 213.835 796.241 214 795.206 214C794.182 214 793.361 213.835 792.742 213.504C792.123 213.173 791.675 212.64 791.398 211.904C791.121 211.168 790.982 210.192 790.982 208.976C790.982 207.749 791.121 206.768 791.398 206.032C791.675 205.296 792.123 204.763 792.742 204.432C793.361 204.101 794.182 203.936 795.206 203.936C796.241 203.936 797.067 204.101 797.686 204.432C798.305 204.763 798.753 205.296 799.03 206.032C799.307 206.768 799.446 207.749 799.446 208.976ZM795.206 211.872C795.931 211.872 796.406 211.637 796.63 211.168C796.865 210.688 796.982 209.957 796.982 208.976C796.982 207.984 796.865 207.253 796.63 206.784C796.406 206.315 795.931 206.08 795.206 206.08C794.491 206.08 794.017 206.315 793.782 206.784C793.558 207.253 793.446 207.984 793.446 208.976C793.446 209.957 793.558 210.688 793.782 211.168C794.017 211.637 794.491 211.872 795.206 211.872Z" fill="white"/>
<path d="M809.024 208.976C809.024 210.192 808.885 211.168 808.608 211.904C808.331 212.64 807.883 213.173 807.264 213.504C806.645 213.835 805.819 214 804.784 214C803.76 214 802.939 213.835 802.32 213.504C801.701 213.173 801.253 212.64 800.976 211.904C800.699 211.168 800.56 210.192 800.56 208.976C800.56 207.749 800.699 206.768 800.976 206.032C801.253 205.296 801.701 204.763 802.32 204.432C802.939 204.101 803.76 203.936 804.784 203.936C805.819 203.936 806.645 204.101 807.264 204.432C807.883 204.763 808.331 205.296 808.608 206.032C808.885 206.768 809.024 207.749 809.024 208.976ZM804.784 211.872C805.509 211.872 805.984 211.637 806.208 211.168C806.443 210.688 806.56 209.957 806.56 208.976C806.56 207.984 806.443 207.253 806.208 206.784C805.984 206.315 805.509 206.08 804.784 206.08C804.069 206.08 803.595 206.315 803.36 206.784C803.136 207.253 803.024 207.984 803.024 208.976C803.024 209.957 803.136 210.688 803.36 211.168C803.595 211.637 804.069 211.872 804.784 211.872Z" fill="white"/>
<path d="M825.015 205.984C825.804 205.984 826.428 206.245 826.887 206.768C827.356 207.291 827.591 208.197 827.591 209.488V213.856H825.031L825.015 209.808C825.015 209.285 824.935 208.907 824.775 208.672C824.626 208.437 824.327 208.32 823.879 208.32C823.431 208.32 823.127 208.437 822.967 208.672C822.818 208.907 822.743 209.285 822.743 209.808V213.856H820.183L820.167 209.808C820.167 209.285 820.087 208.907 819.927 208.672C819.778 208.437 819.479 208.32 819.031 208.32C818.583 208.32 818.279 208.437 818.119 208.672C817.97 208.907 817.895 209.285 817.895 209.808V213.856H815.335V206.064H817.767L817.895 207.488H817.943C818.082 207.019 818.322 206.651 818.663 206.384C819.015 206.117 819.511 205.984 820.151 205.984C820.791 205.984 821.292 206.117 821.655 206.384C822.028 206.651 822.268 207.019 822.375 207.488H822.423C822.562 207.008 822.828 206.64 823.223 206.384C823.628 206.117 824.226 205.984 825.015 205.984Z" fill="white"/>
<path d="M828.999 211.648C829.831 211.883 830.753 212 831.767 212C832.257 212 832.625 211.984 832.871 211.952C833.116 211.92 833.281 211.867 833.367 211.792C833.452 211.717 833.495 211.616 833.495 211.488C833.495 211.307 833.425 211.195 833.287 211.152C833.159 211.109 832.897 211.051 832.503 210.976L831.239 210.736C830.428 210.576 829.841 210.325 829.479 209.984C829.127 209.632 828.951 209.109 828.951 208.416C828.951 207.477 829.228 206.837 829.783 206.496C830.348 206.155 831.244 205.984 832.471 205.984C833.207 205.984 833.852 206.027 834.407 206.112C834.972 206.187 835.441 206.283 835.815 206.4L835.783 208.336L835.735 208.384C834.871 208.107 833.927 207.968 832.903 207.968C832.401 207.968 832.049 208.005 831.847 208.08C831.655 208.144 831.559 208.277 831.559 208.48C831.559 208.587 831.585 208.672 831.639 208.736C831.703 208.8 831.841 208.864 832.055 208.928C832.268 208.981 832.604 209.051 833.063 209.136L834.231 209.36C834.881 209.499 835.361 209.728 835.671 210.048C835.98 210.368 836.135 210.875 836.135 211.568C836.135 212.176 836.023 212.661 835.799 213.024C835.575 213.376 835.196 213.627 834.663 213.776C834.14 213.925 833.415 214 832.487 214C831.783 214 831.132 213.968 830.535 213.904C829.948 213.829 829.42 213.744 828.951 213.648V211.68L828.999 211.648Z" fill="white"/>
<path d="M1563.64 207.936V205.216L1565.51 204.032H1567.91L1567.94 213.856H1565.51V206.8H1565.43L1563.72 207.936H1563.64Z" fill="white"/>
<path d="M1569.91 209.76V204.112H1576.85V206.176H1572.12V207.744L1572.15 207.792H1573.86C1575.04 207.792 1575.89 208.032 1576.42 208.512C1576.96 208.992 1577.22 209.755 1577.22 210.8C1577.22 211.909 1576.88 212.72 1576.18 213.232C1575.49 213.744 1574.41 214 1572.95 214C1572.26 214 1571.63 213.968 1571.06 213.904C1570.5 213.829 1569.99 213.739 1569.54 213.632V211.68L1569.57 211.648C1569.81 211.712 1570.09 211.765 1570.41 211.808C1570.74 211.851 1571.07 211.888 1571.41 211.92C1571.76 211.941 1572.07 211.952 1572.34 211.952C1573 211.952 1573.51 211.92 1573.86 211.856C1574.21 211.792 1574.45 211.68 1574.58 211.52C1574.72 211.349 1574.79 211.115 1574.79 210.816C1574.79 210.443 1574.7 210.176 1574.52 210.016C1574.35 209.845 1574 209.76 1573.48 209.76H1569.91Z" fill="white"/>
<path d="M1578.57 215.488C1578.63 215.499 1578.71 215.504 1578.79 215.504C1579.11 215.504 1579.35 215.445 1579.51 215.328C1579.67 215.221 1579.75 215.029 1579.75 214.752L1579.74 214.736C1579.56 214.843 1579.29 214.896 1578.95 214.896C1578.12 214.896 1577.7 214.501 1577.7 213.712C1577.7 213.307 1577.81 213.003 1578.01 212.8C1578.22 212.587 1578.61 212.48 1579.16 212.48C1579.73 212.48 1580.13 212.64 1580.36 212.96C1580.61 213.28 1580.73 213.739 1580.73 214.336C1580.73 215.115 1580.57 215.653 1580.25 215.952C1579.93 216.251 1579.48 216.4 1578.89 216.4C1578.84 216.4 1578.78 216.395 1578.73 216.384C1578.68 216.384 1578.62 216.379 1578.55 216.368V215.504L1578.57 215.488Z" fill="white"/>
<path d="M1589.87 208.976C1589.87 210.192 1589.73 211.168 1589.45 211.904C1589.17 212.64 1588.73 213.173 1588.11 213.504C1587.49 213.835 1586.66 214 1585.63 214C1584.6 214 1583.78 213.835 1583.16 213.504C1582.55 213.173 1582.1 212.64 1581.82 211.904C1581.54 211.168 1581.4 210.192 1581.4 208.976C1581.4 207.749 1581.54 206.768 1581.82 206.032C1582.1 205.296 1582.55 204.763 1583.16 204.432C1583.78 204.101 1584.6 203.936 1585.63 203.936C1586.66 203.936 1587.49 204.101 1588.11 204.432C1588.73 204.763 1589.17 205.296 1589.45 206.032C1589.73 206.768 1589.87 207.749 1589.87 208.976ZM1585.63 211.872C1586.35 211.872 1586.83 211.637 1587.05 211.168C1587.29 210.688 1587.4 209.957 1587.4 208.976C1587.4 207.984 1587.29 207.253 1587.05 206.784C1586.83 206.315 1586.35 206.08 1585.63 206.08C1584.91 206.08 1584.44 206.315 1584.2 206.784C1583.98 207.253 1583.87 207.984 1583.87 208.976C1583.87 209.957 1583.98 210.688 1584.2 211.168C1584.44 211.637 1584.91 211.872 1585.63 211.872Z" fill="white"/>
<path d="M1599.45 208.976C1599.45 210.192 1599.31 211.168 1599.03 211.904C1598.75 212.64 1598.3 213.173 1597.69 213.504C1597.07 213.835 1596.24 214 1595.21 214C1594.18 214 1593.36 213.835 1592.74 213.504C1592.12 213.173 1591.68 212.64 1591.4 211.904C1591.12 211.168 1590.98 210.192 1590.98 208.976C1590.98 207.749 1591.12 206.768 1591.4 206.032C1591.68 205.296 1592.12 204.763 1592.74 204.432C1593.36 204.101 1594.18 203.936 1595.21 203.936C1596.24 203.936 1597.07 204.101 1597.69 204.432C1598.3 204.763 1598.75 205.296 1599.03 206.032C1599.31 206.768 1599.45 207.749 1599.45 208.976ZM1595.21 211.872C1595.93 211.872 1596.41 211.637 1596.63 211.168C1596.86 210.688 1596.98 209.957 1596.98 208.976C1596.98 207.984 1596.86 207.253 1596.63 206.784C1596.41 206.315 1595.93 206.08 1595.21 206.08C1594.49 206.08 1594.02 206.315 1593.78 206.784C1593.56 207.253 1593.45 207.984 1593.45 208.976C1593.45 209.957 1593.56 210.688 1593.78 211.168C1594.02 211.637 1594.49 211.872 1595.21 211.872Z" fill="white"/>
<path d="M1609.02 208.976C1609.02 210.192 1608.89 211.168 1608.61 211.904C1608.33 212.64 1607.88 213.173 1607.26 213.504C1606.65 213.835 1605.82 214 1604.78 214C1603.76 214 1602.94 213.835 1602.32 213.504C1601.7 213.173 1601.25 212.64 1600.98 211.904C1600.7 211.168 1600.56 210.192 1600.56 208.976C1600.56 207.749 1600.7 206.768 1600.98 206.032C1601.25 205.296 1601.7 204.763 1602.32 204.432C1602.94 204.101 1603.76 203.936 1604.78 203.936C1605.82 203.936 1606.65 204.101 1607.26 204.432C1607.88 204.763 1608.33 205.296 1608.61 206.032C1608.89 206.768 1609.02 207.749 1609.02 208.976ZM1604.78 211.872C1605.51 211.872 1605.98 211.637 1606.21 211.168C1606.44 210.688 1606.56 209.957 1606.56 208.976C1606.56 207.984 1606.44 207.253 1606.21 206.784C1605.98 206.315 1605.51 206.08 1604.78 206.08C1604.07 206.08 1603.59 206.315 1603.36 206.784C1603.14 207.253 1603.02 207.984 1603.02 208.976C1603.02 209.957 1603.14 210.688 1603.36 211.168C1603.59 211.637 1604.07 211.872 1604.78 211.872Z" fill="white"/>
<path d="M1625.02 205.984C1625.8 205.984 1626.43 206.245 1626.89 206.768C1627.36 207.291 1627.59 208.197 1627.59 209.488V213.856H1625.03L1625.02 209.808C1625.02 209.285 1624.94 208.907 1624.78 208.672C1624.63 208.437 1624.33 208.32 1623.88 208.32C1623.43 208.32 1623.13 208.437 1622.97 208.672C1622.82 208.907 1622.74 209.285 1622.74 209.808V213.856H1620.18L1620.17 209.808C1620.17 209.285 1620.09 208.907 1619.93 208.672C1619.78 208.437 1619.48 208.32 1619.03 208.32C1618.58 208.32 1618.28 208.437 1618.12 208.672C1617.97 208.907 1617.9 209.285 1617.9 209.808V213.856H1615.33V206.064H1617.77L1617.9 207.488H1617.94C1618.08 207.019 1618.32 206.651 1618.66 206.384C1619.01 206.117 1619.51 205.984 1620.15 205.984C1620.79 205.984 1621.29 206.117 1621.66 206.384C1622.03 206.651 1622.27 207.019 1622.38 207.488H1622.42C1622.56 207.008 1622.83 206.64 1623.22 206.384C1623.63 206.117 1624.23 205.984 1625.02 205.984Z" fill="white"/>
<path d="M1629 211.648C1629.83 211.883 1630.75 212 1631.77 212C1632.26 212 1632.63 211.984 1632.87 211.952C1633.12 211.92 1633.28 211.867 1633.37 211.792C1633.45 211.717 1633.49 211.616 1633.49 211.488C1633.49 211.307 1633.43 211.195 1633.29 211.152C1633.16 211.109 1632.9 211.051 1632.5 210.976L1631.24 210.736C1630.43 210.576 1629.84 210.325 1629.48 209.984C1629.13 209.632 1628.95 209.109 1628.95 208.416C1628.95 207.477 1629.23 206.837 1629.78 206.496C1630.35 206.155 1631.24 205.984 1632.47 205.984C1633.21 205.984 1633.85 206.027 1634.41 206.112C1634.97 206.187 1635.44 206.283 1635.81 206.4L1635.78 208.336L1635.73 208.384C1634.87 208.107 1633.93 207.968 1632.9 207.968C1632.4 207.968 1632.05 208.005 1631.85 208.08C1631.65 208.144 1631.56 208.277 1631.56 208.48C1631.56 208.587 1631.59 208.672 1631.64 208.736C1631.7 208.8 1631.84 208.864 1632.05 208.928C1632.27 208.981 1632.6 209.051 1633.06 209.136L1634.23 209.36C1634.88 209.499 1635.36 209.728 1635.67 210.048C1635.98 210.368 1636.13 210.875 1636.13 211.568C1636.13 212.176 1636.02 212.661 1635.8 213.024C1635.57 213.376 1635.2 213.627 1634.66 213.776C1634.14 213.925 1633.41 214 1632.49 214C1631.78 214 1631.13 213.968 1630.53 213.904C1629.95 213.829 1629.42 213.744 1628.95 213.648V211.68L1629 211.648Z" fill="white"/>
<path d="M1163.64 207.936V205.216L1165.51 204.032H1167.91L1167.94 213.856H1165.51V206.8H1165.43L1163.72 207.936H1163.64Z" fill="white"/>
<path d="M1169.91 209.76V204.112H1176.85V206.176H1172.12V207.744L1172.15 207.792H1173.86C1175.04 207.792 1175.89 208.032 1176.42 208.512C1176.96 208.992 1177.22 209.755 1177.22 210.8C1177.22 211.909 1176.88 212.72 1176.18 213.232C1175.49 213.744 1174.41 214 1172.95 214C1172.26 214 1171.63 213.968 1171.06 213.904C1170.5 213.829 1169.99 213.739 1169.54 213.632V211.68L1169.57 211.648C1169.81 211.712 1170.09 211.765 1170.41 211.808C1170.74 211.851 1171.07 211.888 1171.41 211.92C1171.76 211.941 1172.07 211.952 1172.34 211.952C1173 211.952 1173.51 211.92 1173.86 211.856C1174.21 211.792 1174.45 211.68 1174.58 211.52C1174.72 211.349 1174.79 211.115 1174.79 210.816C1174.79 210.443 1174.7 210.176 1174.52 210.016C1174.35 209.845 1174 209.76 1173.48 209.76H1169.91Z" fill="white"/>
<path d="M1178.57 215.488C1178.63 215.499 1178.71 215.504 1178.79 215.504C1179.11 215.504 1179.35 215.445 1179.51 215.328C1179.67 215.221 1179.75 215.029 1179.75 214.752L1179.74 214.736C1179.56 214.843 1179.29 214.896 1178.95 214.896C1178.12 214.896 1177.7 214.501 1177.7 213.712C1177.7 213.307 1177.81 213.003 1178.01 212.8C1178.22 212.587 1178.61 212.48 1179.16 212.48C1179.73 212.48 1180.13 212.64 1180.36 212.96C1180.61 213.28 1180.73 213.739 1180.73 214.336C1180.73 215.115 1180.57 215.653 1180.25 215.952C1179.93 216.251 1179.48 216.4 1178.89 216.4C1178.84 216.4 1178.78 216.395 1178.73 216.384C1178.68 216.384 1178.62 216.379 1178.55 216.368V215.504L1178.57 215.488Z" fill="white"/>
<path d="M1189.87 208.976C1189.87 210.192 1189.73 211.168 1189.45 211.904C1189.17 212.64 1188.73 213.173 1188.11 213.504C1187.49 213.835 1186.66 214 1185.63 214C1184.6 214 1183.78 213.835 1183.16 213.504C1182.55 213.173 1182.1 212.64 1181.82 211.904C1181.54 211.168 1181.4 210.192 1181.4 208.976C1181.4 207.749 1181.54 206.768 1181.82 206.032C1182.1 205.296 1182.55 204.763 1183.16 204.432C1183.78 204.101 1184.6 203.936 1185.63 203.936C1186.66 203.936 1187.49 204.101 1188.11 204.432C1188.73 204.763 1189.17 205.296 1189.45 206.032C1189.73 206.768 1189.87 207.749 1189.87 208.976ZM1185.63 211.872C1186.35 211.872 1186.83 211.637 1187.05 211.168C1187.29 210.688 1187.4 209.957 1187.4 208.976C1187.4 207.984 1187.29 207.253 1187.05 206.784C1186.83 206.315 1186.35 206.08 1185.63 206.08C1184.91 206.08 1184.44 206.315 1184.2 206.784C1183.98 207.253 1183.87 207.984 1183.87 208.976C1183.87 209.957 1183.98 210.688 1184.2 211.168C1184.44 211.637 1184.91 211.872 1185.63 211.872Z" fill="white"/>
<path d="M1199.45 208.976C1199.45 210.192 1199.31 211.168 1199.03 211.904C1198.75 212.64 1198.3 213.173 1197.69 213.504C1197.07 213.835 1196.24 214 1195.21 214C1194.18 214 1193.36 213.835 1192.74 213.504C1192.12 213.173 1191.68 212.64 1191.4 211.904C1191.12 211.168 1190.98 210.192 1190.98 208.976C1190.98 207.749 1191.12 206.768 1191.4 206.032C1191.68 205.296 1192.12 204.763 1192.74 204.432C1193.36 204.101 1194.18 203.936 1195.21 203.936C1196.24 203.936 1197.07 204.101 1197.69 204.432C1198.3 204.763 1198.75 205.296 1199.03 206.032C1199.31 206.768 1199.45 207.749 1199.45 208.976ZM1195.21 211.872C1195.93 211.872 1196.41 211.637 1196.63 211.168C1196.86 210.688 1196.98 209.957 1196.98 208.976C1196.98 207.984 1196.86 207.253 1196.63 206.784C1196.41 206.315 1195.93 206.08 1195.21 206.08C1194.49 206.08 1194.02 206.315 1193.78 206.784C1193.56 207.253 1193.45 207.984 1193.45 208.976C1193.45 209.957 1193.56 210.688 1193.78 211.168C1194.02 211.637 1194.49 211.872 1195.21 211.872Z" fill="white"/>
<path d="M1209.02 208.976C1209.02 210.192 1208.89 211.168 1208.61 211.904C1208.33 212.64 1207.88 213.173 1207.26 213.504C1206.65 213.835 1205.82 214 1204.78 214C1203.76 214 1202.94 213.835 1202.32 213.504C1201.7 213.173 1201.25 212.64 1200.98 211.904C1200.7 211.168 1200.56 210.192 1200.56 208.976C1200.56 207.749 1200.7 206.768 1200.98 206.032C1201.25 205.296 1201.7 204.763 1202.32 204.432C1202.94 204.101 1203.76 203.936 1204.78 203.936C1205.82 203.936 1206.65 204.101 1207.26 204.432C1207.88 204.763 1208.33 205.296 1208.61 206.032C1208.89 206.768 1209.02 207.749 1209.02 208.976ZM1204.78 211.872C1205.51 211.872 1205.98 211.637 1206.21 211.168C1206.44 210.688 1206.56 209.957 1206.56 208.976C1206.56 207.984 1206.44 207.253 1206.21 206.784C1205.98 206.315 1205.51 206.08 1204.78 206.08C1204.07 206.08 1203.59 206.315 1203.36 206.784C1203.14 207.253 1203.02 207.984 1203.02 208.976C1203.02 209.957 1203.14 210.688 1203.36 211.168C1203.59 211.637 1204.07 211.872 1204.78 211.872Z" fill="white"/>
<path d="M1225.02 205.984C1225.8 205.984 1226.43 206.245 1226.89 206.768C1227.36 207.291 1227.59 208.197 1227.59 209.488V213.856H1225.03L1225.02 209.808C1225.02 209.285 1224.94 208.907 1224.78 208.672C1224.63 208.437 1224.33 208.32 1223.88 208.32C1223.43 208.32 1223.13 208.437 1222.97 208.672C1222.82 208.907 1222.74 209.285 1222.74 209.808V213.856H1220.18L1220.17 209.808C1220.17 209.285 1220.09 208.907 1219.93 208.672C1219.78 208.437 1219.48 208.32 1219.03 208.32C1218.58 208.32 1218.28 208.437 1218.12 208.672C1217.97 208.907 1217.9 209.285 1217.9 209.808V213.856H1215.33V206.064H1217.77L1217.9 207.488H1217.94C1218.08 207.019 1218.32 206.651 1218.66 206.384C1219.01 206.117 1219.51 205.984 1220.15 205.984C1220.79 205.984 1221.29 206.117 1221.66 206.384C1222.03 206.651 1222.27 207.019 1222.38 207.488H1222.42C1222.56 207.008 1222.83 206.64 1223.22 206.384C1223.63 206.117 1224.23 205.984 1225.02 205.984Z" fill="white"/>
<path d="M1229 211.648C1229.83 211.883 1230.75 212 1231.77 212C1232.26 212 1232.63 211.984 1232.87 211.952C1233.12 211.92 1233.28 211.867 1233.37 211.792C1233.45 211.717 1233.49 211.616 1233.49 211.488C1233.49 211.307 1233.43 211.195 1233.29 211.152C1233.16 211.109 1232.9 211.051 1232.5 210.976L1231.24 210.736C1230.43 210.576 1229.84 210.325 1229.48 209.984C1229.13 209.632 1228.95 209.109 1228.95 208.416C1228.95 207.477 1229.23 206.837 1229.78 206.496C1230.35 206.155 1231.24 205.984 1232.47 205.984C1233.21 205.984 1233.85 206.027 1234.41 206.112C1234.97 206.187 1235.44 206.283 1235.81 206.4L1235.78 208.336L1235.73 208.384C1234.87 208.107 1233.93 207.968 1232.9 207.968C1232.4 207.968 1232.05 208.005 1231.85 208.08C1231.65 208.144 1231.56 208.277 1231.56 208.48C1231.56 208.587 1231.59 208.672 1231.64 208.736C1231.7 208.8 1231.84 208.864 1232.05 208.928C1232.27 208.981 1232.6 209.051 1233.06 209.136L1234.23 209.36C1234.88 209.499 1235.36 209.728 1235.67 210.048C1235.98 210.368 1236.13 210.875 1236.13 211.568C1236.13 212.176 1236.02 212.661 1235.8 213.024C1235.57 213.376 1235.2 213.627 1234.66 213.776C1234.14 213.925 1233.41 214 1232.49 214C1231.78 214 1231.13 213.968 1230.53 213.904C1229.95 213.829 1229.42 213.744 1228.95 213.648V211.68L1229 211.648Z" fill="white"/>
<path d="M364 239.537H428.286V243.463H364V239.537Z" fill="white"/>
<path d="M436 241.5L421.536 250V233L436 241.5Z" fill="white"/>
<path d="M597.922 452V387.714H602.078V452H597.922Z" fill="white"/>
<path d="M600 380L609 394.464H591L600 380Z" fill="white"/>
<path d="M1564 239.537H1628.29V243.463H1564V239.537Z" fill="white"/>
<path d="M1636 241.5L1621.54 250V233L1636 241.5Z" fill="white"/>
<path d="M1164 239.537H1228.29V243.463H1164V239.537Z" fill="white"/>
<path d="M1236 241.5L1221.54 250V233L1236 241.5Z" fill="white"/>
<path d="M764 239.537H828.286V243.463H764V239.537Z" fill="white"/>
<path d="M836 241.5L821.536 250V233L836 241.5Z" fill="white"/>
<path d="M1802 448V452H598V448H1802Z" fill="white"/>
<path d="M1798 380H1802V452H1798V380Z" fill="white"/>
</svg>
