<svg width="2000" height="500" viewBox="0 0 2000 500" fill="none" xmlns="http://www.w3.org/2000/svg">
<path d="M0 0H2000V500H0V0Z" fill="#1E1E1E"/>
<path d="M50 96C50 89.3726 55.3726 84 62 84H338C344.627 84 350 89.3726 350 96V372C350 378.627 344.627 384 338 384H62C55.3726 384 50 378.627 50 372V96Z" fill="#444444"/>
<path d="M450 96C450 89.3726 455.373 84 462 84H738C744.627 84 750 89.3726 750 96V372C750 378.627 744.627 384 738 384H462C455.373 384 450 378.627 450 372V96Z" fill="#444444"/>
<path d="M500 146C500 139.373 505.373 134 512 134H688C694.627 134 700 139.373 700 146V322C700 328.627 694.627 334 688 334H512C505.373 334 500 328.627 500 322V146Z" fill="#333333"/>
<path d="M549.84 241.802H546.32V227.876H552.524C553.917 227.876 555.032 228.045 555.868 228.382C556.704 228.719 557.305 229.269 557.672 230.032C558.039 230.795 558.222 231.829 558.222 233.134C558.222 234.366 558.039 235.371 557.672 236.148C557.305 236.911 556.704 237.475 555.868 237.842C555.032 238.209 553.917 238.392 552.524 238.392H549.84V241.802ZM551.952 230.758H549.84V235.51H551.952C552.993 235.51 553.69 235.334 554.042 234.982C554.394 234.63 554.57 234.014 554.57 233.134C554.57 232.298 554.394 231.697 554.042 231.33C553.69 230.949 552.993 230.758 551.952 230.758Z" fill="#666666"/>
<path d="M564.161 230.978C565.569 230.978 566.706 231.125 567.571 231.418C568.437 231.711 569.068 232.254 569.464 233.046C569.874 233.823 570.079 234.953 570.079 236.434V241.802H566.889L566.779 240.79H566.714C566.435 241.157 566.002 241.45 565.415 241.67C564.829 241.89 564.066 242 563.128 242C560.59 242 559.321 240.812 559.321 238.436C559.321 237.424 559.651 236.632 560.311 236.06C560.986 235.473 562.042 235.18 563.479 235.18H566.735C566.633 234.564 566.369 234.153 565.943 233.948C565.518 233.728 564.792 233.618 563.766 233.618C563.12 233.618 562.482 233.669 561.852 233.772C561.236 233.86 560.693 233.963 560.224 234.08L560.157 234.036L560.18 231.484C560.473 231.396 560.847 231.315 561.302 231.242C561.756 231.154 562.233 231.088 562.732 231.044C563.245 231 563.721 230.978 564.161 230.978ZM564.029 239.404C564.939 239.404 565.621 239.294 566.076 239.074C566.53 238.839 566.765 238.473 566.779 237.974V237.424H564.293C563.648 237.424 563.194 237.519 562.93 237.71C562.68 237.886 562.555 238.128 562.555 238.436C562.555 238.803 562.687 239.059 562.951 239.206C563.215 239.338 563.575 239.404 564.029 239.404Z" fill="#666666"/>
<path d="M575.901 241.802H572.381V231.088H575.241L575.527 233.288H575.593C575.725 232.467 576.04 231.88 576.539 231.528C577.037 231.161 577.778 230.978 578.761 230.978C579.157 230.978 579.516 231 579.839 231.044C580.161 231.073 580.433 231.103 580.653 231.132V234.564L580.609 234.608C580.374 234.549 580.103 234.498 579.795 234.454C579.501 234.41 579.164 234.388 578.783 234.388C578.24 234.388 577.749 234.476 577.309 234.652C576.883 234.828 576.546 235.173 576.297 235.686C576.062 236.185 575.945 236.933 575.945 237.93L575.901 241.802Z" fill="#666666"/>
<path d="M582.419 238.59V233.97H581.099V231.11H582.749L583.409 228.492H585.939V231.11H588.337V233.97H585.939V237.82C585.939 238.231 585.99 238.517 586.093 238.678C586.196 238.825 586.43 238.898 586.797 238.898C587.032 238.898 587.281 238.891 587.545 238.876C587.809 238.847 588.073 238.817 588.337 238.788L588.403 238.832V241.692C587.699 241.897 586.768 242 585.609 242C584.45 242 583.629 241.736 583.145 241.208C582.661 240.68 582.419 239.807 582.419 238.59Z" fill="#666666"/>
<path d="M593.706 227.106C593.75 227.634 593.772 228.074 593.772 228.426C593.772 228.631 593.765 228.844 593.75 229.064C593.75 229.269 593.736 229.504 593.706 229.768C593.398 229.827 593.098 229.871 592.804 229.9C592.511 229.929 592.218 229.944 591.924 229.944C591.646 229.944 591.36 229.929 591.066 229.9C590.788 229.871 590.502 229.827 590.208 229.768C590.179 229.519 590.157 229.291 590.142 229.086C590.128 228.866 590.12 228.653 590.12 228.448C590.12 228.257 590.128 228.052 590.142 227.832C590.157 227.612 590.179 227.37 590.208 227.106C590.502 227.033 590.795 226.989 591.088 226.974C591.396 226.945 591.697 226.93 591.99 226.93C592.269 226.93 592.548 226.945 592.826 226.974C593.12 226.989 593.413 227.033 593.706 227.106ZM593.706 241.802H590.186V231.088H593.706V241.802Z" fill="#666666"/>
<path d="M600.212 230.978C601.62 230.978 602.757 231.125 603.622 231.418C604.488 231.711 605.118 232.254 605.514 233.046C605.925 233.823 606.13 234.953 606.13 236.434V241.802H602.94L602.83 240.79H602.764C602.486 241.157 602.053 241.45 601.466 241.67C600.88 241.89 600.117 242 599.178 242C596.641 242 595.372 240.812 595.372 238.436C595.372 237.424 595.702 236.632 596.362 236.06C597.037 235.473 598.093 235.18 599.53 235.18H602.786C602.684 234.564 602.42 234.153 601.994 233.948C601.569 233.728 600.843 233.618 599.816 233.618C599.171 233.618 598.533 233.669 597.902 233.772C597.286 233.86 596.744 233.963 596.274 234.08L596.208 234.036L596.23 231.484C596.524 231.396 596.898 231.315 597.352 231.242C597.807 231.154 598.284 231.088 598.782 231.044C599.296 231 599.772 230.978 600.212 230.978ZM600.08 239.404C600.99 239.404 601.672 239.294 602.126 239.074C602.581 238.839 602.816 238.473 602.83 237.974V237.424H600.344C599.699 237.424 599.244 237.519 598.98 237.71C598.731 237.886 598.606 238.128 598.606 238.436C598.606 238.803 598.738 239.059 599.002 239.206C599.266 239.338 599.626 239.404 600.08 239.404Z" fill="#666666"/>
<path d="M611.951 241.802H608.431V226.996H611.951V241.802Z" fill="#666666"/>
<path d="M629.531 238.7V241.56C629.164 241.707 628.622 241.817 627.903 241.89C627.184 241.963 626.422 242 625.615 242C624.456 242 623.488 241.839 622.711 241.516C621.948 241.193 621.376 240.636 620.995 239.844C620.628 239.052 620.438 237.952 620.423 236.544C620.423 235.092 620.621 233.963 621.017 233.156C621.428 232.349 622.022 231.785 622.799 231.462C623.576 231.139 624.508 230.978 625.593 230.978C626.238 230.978 626.92 231.022 627.639 231.11C628.358 231.198 628.944 231.315 629.399 231.462L629.421 234.41L629.355 234.454C628.915 234.366 628.446 234.3 627.947 234.256C627.448 234.212 626.957 234.19 626.473 234.19C625.49 234.19 624.808 234.373 624.427 234.74C624.046 235.107 623.855 235.723 623.855 236.588C623.855 237.248 623.936 237.739 624.097 238.062C624.258 238.385 624.53 238.597 624.911 238.7C625.292 238.803 625.813 238.854 626.473 238.854C626.986 238.854 627.478 238.832 627.947 238.788C628.416 238.744 628.915 238.693 629.443 238.634L629.531 238.7Z" fill="#666666"/>
<path d="M635.576 230.978C636.984 230.978 638.12 231.125 638.986 231.418C639.851 231.711 640.482 232.254 640.878 233.046C641.288 233.823 641.494 234.953 641.494 236.434V241.802H638.304L638.194 240.79H638.128C637.849 241.157 637.416 241.45 636.83 241.67C636.243 241.89 635.48 242 634.542 242C632.004 242 630.736 240.812 630.736 238.436C630.736 237.424 631.066 236.632 631.726 236.06C632.4 235.473 633.456 235.18 634.894 235.18H638.15C638.047 234.564 637.783 234.153 637.358 233.948C636.932 233.728 636.206 233.618 635.18 233.618C634.534 233.618 633.896 233.669 633.266 233.772C632.65 233.86 632.107 233.963 631.638 234.08L631.572 234.036L631.594 231.484C631.887 231.396 632.261 231.315 632.716 231.242C633.17 231.154 633.647 231.088 634.146 231.044C634.659 231 635.136 230.978 635.576 230.978ZM635.444 239.404C636.353 239.404 637.035 239.294 637.49 239.074C637.944 238.839 638.179 238.473 638.194 237.974V237.424H635.708C635.062 237.424 634.608 237.519 634.344 237.71C634.094 237.886 633.97 238.128 633.97 238.436C633.97 238.803 634.102 239.059 634.366 239.206C634.63 239.338 634.989 239.404 635.444 239.404Z" fill="#666666"/>
<path d="M647.315 241.802H643.795V226.996H647.315V241.802Z" fill="#666666"/>
<path d="M653.481 241.802H649.961V226.996H653.481V241.802Z" fill="#666666"/>
<path d="M100 146C100 139.373 105.373 134 112 134H288C294.627 134 300 139.373 300 146V322C300 328.627 294.627 334 288 334H112C105.373 334 100 328.627 100 322V146Z" fill="#333333"/>
<path d="M164.84 240.802H161.32V226.876H171.66V229.736H164.84V232.926H171.22V235.786H164.84V240.802Z" fill="#666666"/>
<path d="M176.828 241C175.479 241 174.518 240.641 173.946 239.922C173.374 239.203 173.088 238.177 173.088 236.842V230.088H176.608L176.63 235.984C176.63 236.644 176.748 237.113 176.982 237.392C177.217 237.656 177.694 237.788 178.412 237.788C179.102 237.788 179.564 237.671 179.798 237.436C180.048 237.187 180.18 236.769 180.194 236.182V230.088H183.714V240.802H180.37L180.194 239.592H180.128C179.938 240.017 179.549 240.362 178.962 240.626C178.376 240.875 177.664 241 176.828 241Z" fill="#666666"/>
<path d="M189.869 240.802H186.349V225.996H189.869V240.802Z" fill="#666666"/>
<path d="M196.035 240.802H192.515V225.996H196.035V240.802Z" fill="#666666"/>
<path d="M213.615 237.7V240.56C213.248 240.707 212.706 240.817 211.987 240.89C211.268 240.963 210.506 241 209.699 241C208.54 241 207.572 240.839 206.795 240.516C206.032 240.193 205.46 239.636 205.079 238.844C204.712 238.052 204.522 236.952 204.507 235.544C204.507 234.092 204.705 232.963 205.101 232.156C205.512 231.349 206.106 230.785 206.883 230.462C207.66 230.139 208.592 229.978 209.677 229.978C210.322 229.978 211.004 230.022 211.723 230.11C212.442 230.198 213.028 230.315 213.483 230.462L213.505 233.41L213.439 233.454C212.999 233.366 212.53 233.3 212.031 233.256C211.532 233.212 211.041 233.19 210.557 233.19C209.574 233.19 208.892 233.373 208.511 233.74C208.13 234.107 207.939 234.723 207.939 235.588C207.939 236.248 208.02 236.739 208.181 237.062C208.342 237.385 208.614 237.597 208.995 237.7C209.376 237.803 209.897 237.854 210.557 237.854C211.07 237.854 211.562 237.832 212.031 237.788C212.5 237.744 212.999 237.693 213.527 237.634L213.615 237.7Z" fill="#666666"/>
<path d="M219.66 229.978C221.068 229.978 222.204 230.125 223.07 230.418C223.935 230.711 224.566 231.254 224.962 232.046C225.372 232.823 225.578 233.953 225.578 235.434V240.802H222.388L222.278 239.79H222.212C221.933 240.157 221.5 240.45 220.914 240.67C220.327 240.89 219.564 241 218.626 241C216.088 241 214.82 239.812 214.82 237.436C214.82 236.424 215.15 235.632 215.81 235.06C216.484 234.473 217.54 234.18 218.978 234.18H222.234C222.131 233.564 221.867 233.153 221.442 232.948C221.016 232.728 220.29 232.618 219.264 232.618C218.618 232.618 217.98 232.669 217.35 232.772C216.734 232.86 216.191 232.963 215.722 233.08L215.656 233.036L215.678 230.484C215.971 230.396 216.345 230.315 216.8 230.242C217.254 230.154 217.731 230.088 218.23 230.044C218.743 230 219.22 229.978 219.66 229.978ZM219.528 238.404C220.437 238.404 221.119 238.294 221.574 238.074C222.028 237.839 222.263 237.473 222.278 236.974V236.424H219.792C219.146 236.424 218.692 236.519 218.428 236.71C218.178 236.886 218.054 237.128 218.054 237.436C218.054 237.803 218.186 238.059 218.45 238.206C218.714 238.338 219.073 238.404 219.528 238.404Z" fill="#666666"/>
<path d="M231.399 240.802H227.879V225.996H231.399V240.802Z" fill="#666666"/>
<path d="M237.565 240.802H234.045V225.996H237.565V240.802Z" fill="#666666"/>
<path d="M363.64 225.936V223.216L365.512 222.032H367.912L367.944 231.856H365.512V224.8H365.432L363.72 225.936H363.64Z" fill="white"/>
<path d="M369.91 227.76V222.112H376.854V224.176H372.118V225.744L372.151 225.792H373.862C375.036 225.792 375.889 226.032 376.422 226.512C376.956 226.992 377.223 227.755 377.223 228.8C377.223 229.909 376.876 230.72 376.182 231.232C375.489 231.744 374.412 232 372.951 232C372.257 232 371.628 231.968 371.062 231.904C370.497 231.829 369.991 231.739 369.543 231.632V229.68L369.574 229.648C369.809 229.712 370.086 229.765 370.406 229.808C370.737 229.851 371.073 229.888 371.414 229.92C371.756 229.941 372.065 229.952 372.342 229.952C373.004 229.952 373.51 229.92 373.862 229.856C374.214 229.792 374.454 229.68 374.582 229.52C374.721 229.349 374.79 229.115 374.79 228.816C374.79 228.443 374.7 228.176 374.518 228.016C374.348 227.845 374.001 227.76 373.479 227.76H369.91Z" fill="white"/>
<path d="M378.569 233.488C378.633 233.499 378.708 233.504 378.793 233.504C379.113 233.504 379.353 233.445 379.513 233.328C379.673 233.221 379.753 233.029 379.753 232.752L379.737 232.736C379.556 232.843 379.294 232.896 378.953 232.896C378.121 232.896 377.705 232.501 377.705 231.712C377.705 231.307 377.806 231.003 378.009 230.8C378.222 230.587 378.606 230.48 379.161 230.48C379.726 230.48 380.126 230.64 380.361 230.96C380.606 231.28 380.729 231.739 380.729 232.336C380.729 233.115 380.569 233.653 380.249 233.952C379.929 234.251 379.476 234.4 378.889 234.4C378.836 234.4 378.782 234.395 378.729 234.384C378.676 234.384 378.617 234.379 378.553 234.368V233.504L378.569 233.488Z" fill="white"/>
<path d="M389.868 226.976C389.868 228.192 389.729 229.168 389.452 229.904C389.174 230.64 388.726 231.173 388.108 231.504C387.489 231.835 386.662 232 385.628 232C384.604 232 383.782 231.835 383.164 231.504C382.545 231.173 382.097 230.64 381.82 229.904C381.542 229.168 381.404 228.192 381.404 226.976C381.404 225.749 381.542 224.768 381.82 224.032C382.097 223.296 382.545 222.763 383.164 222.432C383.782 222.101 384.604 221.936 385.628 221.936C386.662 221.936 387.489 222.101 388.108 222.432C388.726 222.763 389.174 223.296 389.452 224.032C389.729 224.768 389.868 225.749 389.868 226.976ZM385.628 229.872C386.353 229.872 386.828 229.637 387.052 229.168C387.286 228.688 387.404 227.957 387.404 226.976C387.404 225.984 387.286 225.253 387.052 224.784C386.828 224.315 386.353 224.08 385.628 224.08C384.913 224.08 384.438 224.315 384.204 224.784C383.98 225.253 383.868 225.984 383.868 226.976C383.868 227.957 383.98 228.688 384.204 229.168C384.438 229.637 384.913 229.872 385.628 229.872Z" fill="white"/>
<path d="M399.446 226.976C399.446 228.192 399.307 229.168 399.03 229.904C398.753 230.64 398.305 231.173 397.686 231.504C397.067 231.835 396.241 232 395.206 232C394.182 232 393.361 231.835 392.742 231.504C392.123 231.173 391.675 230.64 391.398 229.904C391.121 229.168 390.982 228.192 390.982 226.976C390.982 225.749 391.121 224.768 391.398 224.032C391.675 223.296 392.123 222.763 392.742 222.432C393.361 222.101 394.182 221.936 395.206 221.936C396.241 221.936 397.067 222.101 397.686 222.432C398.305 222.763 398.753 223.296 399.03 224.032C399.307 224.768 399.446 225.749 399.446 226.976ZM395.206 229.872C395.931 229.872 396.406 229.637 396.63 229.168C396.865 228.688 396.982 227.957 396.982 226.976C396.982 225.984 396.865 225.253 396.63 224.784C396.406 224.315 395.931 224.08 395.206 224.08C394.491 224.08 394.017 224.315 393.782 224.784C393.558 225.253 393.446 225.984 393.446 226.976C393.446 227.957 393.558 228.688 393.782 229.168C394.017 229.637 394.491 229.872 395.206 229.872Z" fill="white"/>
<path d="M409.024 226.976C409.024 228.192 408.885 229.168 408.608 229.904C408.331 230.64 407.883 231.173 407.264 231.504C406.645 231.835 405.819 232 404.784 232C403.76 232 402.939 231.835 402.32 231.504C401.701 231.173 401.253 230.64 400.976 229.904C400.699 229.168 400.56 228.192 400.56 226.976C400.56 225.749 400.699 224.768 400.976 224.032C401.253 223.296 401.701 222.763 402.32 222.432C402.939 222.101 403.76 221.936 404.784 221.936C405.819 221.936 406.645 222.101 407.264 222.432C407.883 222.763 408.331 223.296 408.608 224.032C408.885 224.768 409.024 225.749 409.024 226.976ZM404.784 229.872C405.509 229.872 405.984 229.637 406.208 229.168C406.443 228.688 406.56 227.957 406.56 226.976C406.56 225.984 406.443 225.253 406.208 224.784C405.984 224.315 405.509 224.08 404.784 224.08C404.069 224.08 403.595 224.315 403.36 224.784C403.136 225.253 403.024 225.984 403.024 226.976C403.024 227.957 403.136 228.688 403.36 229.168C403.595 229.637 404.069 229.872 404.784 229.872Z" fill="white"/>
<path d="M425.015 223.984C425.804 223.984 426.428 224.245 426.887 224.768C427.356 225.291 427.591 226.197 427.591 227.488V231.856H425.031L425.015 227.808C425.015 227.285 424.935 226.907 424.775 226.672C424.626 226.437 424.327 226.32 423.879 226.32C423.431 226.32 423.127 226.437 422.967 226.672C422.818 226.907 422.743 227.285 422.743 227.808V231.856H420.183L420.167 227.808C420.167 227.285 420.087 226.907 419.927 226.672C419.778 226.437 419.479 226.32 419.031 226.32C418.583 226.32 418.279 226.437 418.119 226.672C417.97 226.907 417.895 227.285 417.895 227.808V231.856H415.335V224.064H417.767L417.895 225.488H417.943C418.082 225.019 418.322 224.651 418.663 224.384C419.015 224.117 419.511 223.984 420.151 223.984C420.791 223.984 421.292 224.117 421.655 224.384C422.028 224.651 422.268 225.019 422.375 225.488H422.423C422.562 225.008 422.828 224.64 423.223 224.384C423.628 224.117 424.226 223.984 425.015 223.984Z" fill="white"/>
<path d="M428.999 229.648C429.831 229.883 430.753 230 431.767 230C432.257 230 432.625 229.984 432.871 229.952C433.116 229.92 433.281 229.867 433.367 229.792C433.452 229.717 433.495 229.616 433.495 229.488C433.495 229.307 433.425 229.195 433.287 229.152C433.159 229.109 432.897 229.051 432.503 228.976L431.239 228.736C430.428 228.576 429.841 228.325 429.479 227.984C429.127 227.632 428.951 227.109 428.951 226.416C428.951 225.477 429.228 224.837 429.783 224.496C430.348 224.155 431.244 223.984 432.471 223.984C433.207 223.984 433.852 224.027 434.407 224.112C434.972 224.187 435.441 224.283 435.815 224.4L435.783 226.336L435.735 226.384C434.871 226.107 433.927 225.968 432.903 225.968C432.401 225.968 432.049 226.005 431.847 226.08C431.655 226.144 431.559 226.277 431.559 226.48C431.559 226.587 431.585 226.672 431.639 226.736C431.703 226.8 431.841 226.864 432.055 226.928C432.268 226.981 432.604 227.051 433.063 227.136L434.231 227.36C434.881 227.499 435.361 227.728 435.671 228.048C435.98 228.368 436.135 228.875 436.135 229.568C436.135 230.176 436.023 230.661 435.799 231.024C435.575 231.376 435.196 231.627 434.663 231.776C434.14 231.925 433.415 232 432.487 232C431.783 232 431.132 231.968 430.535 231.904C429.948 231.829 429.42 231.744 428.951 231.648V229.68L428.999 229.648Z" fill="white"/>
<path d="M131.84 116.802H128.32V102.876H134.524C135.917 102.876 137.032 103.045 137.868 103.382C138.704 103.719 139.305 104.269 139.672 105.032C140.039 105.795 140.222 106.829 140.222 108.134C140.222 109.366 140.039 110.371 139.672 111.148C139.305 111.911 138.704 112.475 137.868 112.842C137.032 113.209 135.917 113.392 134.524 113.392H131.84V116.802ZM133.952 105.758H131.84V110.51H133.952C134.993 110.51 135.69 110.334 136.042 109.982C136.394 109.63 136.57 109.014 136.57 108.134C136.57 107.298 136.394 106.697 136.042 106.33C135.69 105.949 134.993 105.758 133.952 105.758Z" fill="#262626"/>
<path d="M145.611 116.802H142.091V106.088H144.951L145.237 108.288H145.303C145.435 107.467 145.751 106.88 146.249 106.528C146.748 106.161 147.489 105.978 148.471 105.978C148.867 105.978 149.227 106 149.549 106.044C149.872 106.073 150.143 106.103 150.363 106.132V109.564L150.319 109.608C150.085 109.549 149.813 109.498 149.505 109.454C149.212 109.41 148.875 109.388 148.493 109.388C147.951 109.388 147.459 109.476 147.019 109.652C146.594 109.828 146.257 110.173 146.007 110.686C145.773 111.185 145.655 111.933 145.655 112.93L145.611 116.802Z" fill="#262626"/>
<path d="M151.14 111.522C151.14 109.557 151.558 108.141 152.394 107.276C153.23 106.411 154.645 105.978 156.64 105.978C157.975 105.978 159.045 106.169 159.852 106.55C160.659 106.931 161.238 107.533 161.59 108.354C161.957 109.161 162.14 110.217 162.14 111.522C162.14 112.813 161.957 113.861 161.59 114.668C161.238 115.475 160.659 116.069 159.852 116.45C159.045 116.817 157.975 117 156.64 117C154.645 117 153.23 116.575 152.394 115.724C151.558 114.859 151.14 113.458 151.14 111.522ZM156.64 113.986C157.491 113.986 158.063 113.803 158.356 113.436C158.664 113.055 158.818 112.395 158.818 111.456C158.818 110.561 158.664 109.923 158.356 109.542C158.063 109.146 157.491 108.948 156.64 108.948C155.819 108.948 155.247 109.146 154.924 109.542C154.616 109.923 154.462 110.561 154.462 111.456C154.462 112.395 154.616 113.055 154.924 113.436C155.247 113.803 155.819 113.986 156.64 113.986Z" fill="#262626"/>
<path d="M164.798 116.076C164.314 115.871 163.962 115.607 163.742 115.284C163.522 114.961 163.412 114.573 163.412 114.118C163.412 113.707 163.522 113.348 163.742 113.04C163.976 112.732 164.284 112.49 164.666 112.314V112.248C164.299 111.955 164.028 111.588 163.852 111.148C163.69 110.693 163.61 110.173 163.61 109.586C163.61 108.413 163.991 107.518 164.754 106.902C165.516 106.286 166.836 105.978 168.714 105.978C170.254 105.978 171.427 106.198 172.234 106.638H172.344C172.578 106.257 172.879 105.941 173.246 105.692C173.612 105.443 174.06 105.318 174.588 105.318C174.749 105.318 174.896 105.325 175.028 105.34C175.16 105.34 175.284 105.347 175.402 105.362V108.068C175.123 108.009 174.793 107.98 174.412 107.98C174.104 107.98 173.81 108.009 173.532 108.068C173.693 108.493 173.774 108.999 173.774 109.586C173.774 110.847 173.392 111.757 172.63 112.314C171.867 112.871 170.562 113.15 168.714 113.15C168.288 113.15 167.892 113.135 167.526 113.106C167.159 113.077 166.822 113.033 166.514 112.974C166.455 113.091 166.426 113.231 166.426 113.392C166.426 113.627 166.499 113.825 166.646 113.986C166.807 114.133 167.078 114.206 167.46 114.206H170.628C171.977 114.206 172.982 114.419 173.642 114.844C174.316 115.269 174.654 116.091 174.654 117.308C174.654 118.511 174.184 119.427 173.246 120.058C172.307 120.689 170.723 121.004 168.494 121.004C166.66 121.004 165.326 120.755 164.49 120.256C163.654 119.772 163.236 119.061 163.236 118.122C163.236 117.609 163.375 117.183 163.654 116.846C163.932 116.494 164.314 116.259 164.798 116.142V116.076ZM168.714 110.796C169.403 110.796 169.887 110.715 170.166 110.554C170.444 110.378 170.584 110.07 170.584 109.63C170.584 109.19 170.444 108.867 170.166 108.662C169.887 108.457 169.403 108.354 168.714 108.354C168.01 108.354 167.518 108.457 167.24 108.662C166.961 108.867 166.822 109.19 166.822 109.63C166.822 110.07 166.961 110.378 167.24 110.554C167.518 110.715 168.01 110.796 168.714 110.796ZM168.912 118.408C169.689 118.408 170.261 118.371 170.628 118.298C170.994 118.225 171.236 118.115 171.354 117.968C171.471 117.821 171.53 117.638 171.53 117.418C171.53 117.169 171.456 116.971 171.31 116.824C171.163 116.663 170.943 116.582 170.65 116.582H167.284C166.99 116.582 166.77 116.663 166.624 116.824C166.477 116.971 166.404 117.169 166.404 117.418C166.404 117.638 166.462 117.821 166.58 117.968C166.712 118.115 166.954 118.225 167.306 118.298C167.672 118.371 168.208 118.408 168.912 118.408Z" fill="#262626"/>
<path d="M180.029 116.802H176.509V106.088H179.369L179.655 108.288H179.721C179.853 107.467 180.169 106.88 180.667 106.528C181.166 106.161 181.907 105.978 182.889 105.978C183.285 105.978 183.645 106 183.967 106.044C184.29 106.073 184.561 106.103 184.781 106.132V109.564L184.737 109.608C184.503 109.549 184.231 109.498 183.923 109.454C183.63 109.41 183.293 109.388 182.911 109.388C182.369 109.388 181.877 109.476 181.437 109.652C181.012 109.828 180.675 110.173 180.425 110.686C180.191 111.185 180.073 111.933 180.073 112.93L180.029 116.802Z" fill="#262626"/>
<path d="M190.398 105.978C191.806 105.978 192.942 106.125 193.808 106.418C194.673 106.711 195.304 107.254 195.7 108.046C196.11 108.823 196.316 109.953 196.316 111.434V116.802H193.126L193.016 115.79H192.95C192.671 116.157 192.238 116.45 191.652 116.67C191.065 116.89 190.302 117 189.364 117C186.826 117 185.558 115.812 185.558 113.436C185.558 112.424 185.888 111.632 186.548 111.06C187.222 110.473 188.278 110.18 189.716 110.18H192.972C192.869 109.564 192.605 109.153 192.18 108.948C191.754 108.728 191.028 108.618 190.002 108.618C189.356 108.618 188.718 108.669 188.088 108.772C187.472 108.86 186.929 108.963 186.46 109.08L186.394 109.036L186.416 106.484C186.709 106.396 187.083 106.315 187.538 106.242C187.992 106.154 188.469 106.088 188.968 106.044C189.481 106 189.958 105.978 190.398 105.978ZM190.266 114.404C191.175 114.404 191.857 114.294 192.312 114.074C192.766 113.839 193.001 113.473 193.016 112.974V112.424H190.53C189.884 112.424 189.43 112.519 189.166 112.71C188.916 112.886 188.792 113.128 188.792 113.436C188.792 113.803 188.924 114.059 189.188 114.206C189.452 114.338 189.811 114.404 190.266 114.404Z" fill="#262626"/>
<path d="M211.927 105.978C213.012 105.978 213.87 106.337 214.501 107.056C215.146 107.775 215.469 109.021 215.469 110.796V116.802H211.949L211.927 111.236C211.927 110.517 211.817 109.997 211.597 109.674C211.392 109.351 210.981 109.19 210.365 109.19C209.749 109.19 209.331 109.351 209.111 109.674C208.906 109.997 208.803 110.517 208.803 111.236V116.802H205.283L205.261 111.236C205.261 110.517 205.151 109.997 204.931 109.674C204.726 109.351 204.315 109.19 203.699 109.19C203.083 109.19 202.665 109.351 202.445 109.674C202.24 109.997 202.137 110.517 202.137 111.236V116.802H198.617V106.088H201.961L202.137 108.046H202.203C202.394 107.401 202.724 106.895 203.193 106.528C203.677 106.161 204.359 105.978 205.239 105.978C206.119 105.978 206.808 106.161 207.307 106.528C207.82 106.895 208.15 107.401 208.297 108.046H208.363C208.554 107.386 208.92 106.88 209.463 106.528C210.02 106.161 210.842 105.978 211.927 105.978Z" fill="#262626"/>
<path d="M224 113.766C225.144 114.089 226.413 114.25 227.806 114.25C228.481 114.25 228.987 114.228 229.324 114.184C229.661 114.14 229.889 114.067 230.006 113.964C230.123 113.861 230.182 113.722 230.182 113.546C230.182 113.297 230.087 113.143 229.896 113.084C229.72 113.025 229.361 112.945 228.818 112.842L227.08 112.512C225.965 112.292 225.159 111.947 224.66 111.478C224.176 110.994 223.934 110.275 223.934 109.322C223.934 108.031 224.315 107.151 225.078 106.682C225.855 106.213 227.087 105.978 228.774 105.978C229.786 105.978 230.673 106.037 231.436 106.154C232.213 106.257 232.859 106.389 233.372 106.55L233.328 109.212L233.262 109.278C232.074 108.897 230.776 108.706 229.368 108.706C228.679 108.706 228.195 108.757 227.916 108.86C227.652 108.948 227.52 109.131 227.52 109.41C227.52 109.557 227.557 109.674 227.63 109.762C227.718 109.85 227.909 109.938 228.202 110.026C228.495 110.099 228.957 110.195 229.588 110.312L231.194 110.62C232.089 110.811 232.749 111.126 233.174 111.566C233.599 112.006 233.812 112.703 233.812 113.656C233.812 114.492 233.658 115.159 233.35 115.658C233.042 116.142 232.521 116.487 231.788 116.692C231.069 116.897 230.072 117 228.796 117C227.828 117 226.933 116.956 226.112 116.868C225.305 116.765 224.579 116.648 223.934 116.516V113.81L224 113.766Z" fill="#262626"/>
<path d="M235.897 113.59V108.97H234.577V106.11H236.227L236.887 103.492H239.417V106.11H241.815V108.97H239.417V112.82C239.417 113.231 239.469 113.517 239.571 113.678C239.674 113.825 239.909 113.898 240.275 113.898C240.51 113.898 240.759 113.891 241.023 113.876C241.287 113.847 241.551 113.817 241.815 113.788L241.881 113.832V116.692C241.177 116.897 240.246 117 239.087 117C237.929 117 237.107 116.736 236.623 116.208C236.139 115.68 235.897 114.807 235.897 113.59Z" fill="#262626"/>
<path d="M247.933 105.978C249.341 105.978 250.478 106.125 251.343 106.418C252.208 106.711 252.839 107.254 253.235 108.046C253.646 108.823 253.851 109.953 253.851 111.434V116.802H250.661L250.551 115.79H250.485C250.206 116.157 249.774 116.45 249.187 116.67C248.6 116.89 247.838 117 246.899 117C244.362 117 243.093 115.812 243.093 113.436C243.093 112.424 243.423 111.632 244.083 111.06C244.758 110.473 245.814 110.18 247.251 110.18H250.507C250.404 109.564 250.14 109.153 249.715 108.948C249.29 108.728 248.564 108.618 247.537 108.618C246.892 108.618 246.254 108.669 245.623 108.772C245.007 108.86 244.464 108.963 243.995 109.08L243.929 109.036L243.951 106.484C244.244 106.396 244.618 106.315 245.073 106.242C245.528 106.154 246.004 106.088 246.503 106.044C247.016 106 247.493 105.978 247.933 105.978ZM247.801 114.404C248.71 114.404 249.392 114.294 249.847 114.074C250.302 113.839 250.536 113.473 250.551 112.974V112.424H248.065C247.42 112.424 246.965 112.519 246.701 112.71C246.452 112.886 246.327 113.128 246.327 113.436C246.327 113.803 246.459 114.059 246.723 114.206C246.987 114.338 247.346 114.404 247.801 114.404Z" fill="#262626"/>
<path d="M259.672 116.802H256.152V106.088H259.012L259.298 108.288H259.364C259.496 107.467 259.811 106.88 260.31 106.528C260.809 106.161 261.549 105.978 262.532 105.978C262.928 105.978 263.287 106 263.61 106.044C263.933 106.073 264.204 106.103 264.424 106.132V109.564L264.38 109.608C264.145 109.549 263.874 109.498 263.566 109.454C263.273 109.41 262.935 109.388 262.554 109.388C262.011 109.388 261.52 109.476 261.08 109.652C260.655 109.828 260.317 110.173 260.068 110.686C259.833 111.185 259.716 111.933 259.716 112.93L259.672 116.802Z" fill="#262626"/>
<path d="M266.19 113.59V108.97H264.87V106.11H266.52L267.18 103.492H269.71V106.11H272.108V108.97H269.71V112.82C269.71 113.231 269.762 113.517 269.864 113.678C269.967 113.825 270.202 113.898 270.568 113.898C270.803 113.898 271.052 113.891 271.316 113.876C271.58 113.847 271.844 113.817 272.108 113.788L272.174 113.832V116.692C271.47 116.897 270.539 117 269.38 117C268.222 117 267.4 116.736 266.916 116.208C266.432 115.68 266.19 114.807 266.19 113.59Z" fill="#262626"/>
<path d="M564.84 116.802H561.32V102.876H567.524C568.917 102.876 570.032 103.045 570.868 103.382C571.704 103.719 572.305 104.269 572.672 105.032C573.039 105.795 573.222 106.829 573.222 108.134C573.222 109.366 573.039 110.371 572.672 111.148C572.305 111.911 571.704 112.475 570.868 112.842C570.032 113.209 568.917 113.392 567.524 113.392H564.84V116.802ZM566.952 105.758H564.84V110.51H566.952C567.993 110.51 568.69 110.334 569.042 109.982C569.394 109.63 569.57 109.014 569.57 108.134C569.57 107.298 569.394 106.697 569.042 106.33C568.69 105.949 567.993 105.758 566.952 105.758Z" fill="#262626"/>
<path d="M584.529 116.45C584.119 116.597 583.547 116.729 582.813 116.846C582.095 116.949 581.237 117 580.24 117C578.978 117 577.9 116.839 577.005 116.516C576.125 116.179 575.458 115.614 575.003 114.822C574.549 114.015 574.321 112.901 574.321 111.478C574.321 109.542 574.761 108.141 575.641 107.276C576.536 106.411 577.915 105.978 579.777 105.978C581.112 105.978 582.161 106.169 582.923 106.55C583.701 106.931 584.251 107.474 584.573 108.178C584.911 108.867 585.079 109.689 585.079 110.642C585.079 110.921 585.065 111.221 585.035 111.544C585.021 111.867 584.984 112.182 584.925 112.49L584.837 112.578H577.599C577.702 113.223 578.003 113.649 578.501 113.854C579.015 114.059 579.843 114.162 580.987 114.162C581.75 114.162 582.381 114.147 582.879 114.118C583.393 114.074 583.913 114.015 584.441 113.942L584.529 114.008V116.45ZM582.021 110.268C582.021 109.916 581.963 109.615 581.845 109.366C581.743 109.102 581.53 108.904 581.207 108.772C580.885 108.625 580.408 108.552 579.777 108.552C578.853 108.552 578.245 108.713 577.951 109.036C577.673 109.344 577.534 109.755 577.534 110.268H582.021Z" fill="#262626"/>
<path d="M590.471 116.802H586.951V106.088H589.811L590.097 108.288H590.163C590.295 107.467 590.61 106.88 591.109 106.528C591.608 106.161 592.348 105.978 593.331 105.978C593.727 105.978 594.086 106 594.409 106.044C594.732 106.073 595.003 106.103 595.223 106.132V109.564L595.179 109.608C594.944 109.549 594.673 109.498 594.365 109.454C594.072 109.41 593.734 109.388 593.353 109.388C592.81 109.388 592.319 109.476 591.879 109.652C591.454 109.828 591.116 110.173 590.867 110.686C590.632 111.185 590.515 111.933 590.515 112.93L590.471 116.802Z" fill="#262626"/>
<path d="M600.091 102.106C600.135 102.634 600.157 103.074 600.157 103.426C600.157 103.631 600.15 103.844 600.135 104.064C600.135 104.269 600.121 104.504 600.091 104.768C599.783 104.827 599.483 104.871 599.189 104.9C598.896 104.929 598.603 104.944 598.309 104.944C598.031 104.944 597.745 104.929 597.451 104.9C597.173 104.871 596.887 104.827 596.593 104.768C596.564 104.519 596.542 104.291 596.527 104.086C596.513 103.866 596.505 103.653 596.505 103.448C596.505 103.257 596.513 103.052 596.527 102.832C596.542 102.612 596.564 102.37 596.593 102.106C596.887 102.033 597.18 101.989 597.473 101.974C597.781 101.945 598.082 101.93 598.375 101.93C598.654 101.93 598.933 101.945 599.211 101.974C599.505 101.989 599.798 102.033 600.091 102.106ZM600.091 116.802H596.571V106.088H600.091V116.802Z" fill="#262626"/>
<path d="M601.757 111.522C601.757 109.557 602.175 108.141 603.011 107.276C603.847 106.411 605.262 105.978 607.257 105.978C608.592 105.978 609.662 106.169 610.469 106.55C611.276 106.931 611.855 107.533 612.207 108.354C612.574 109.161 612.757 110.217 612.757 111.522C612.757 112.813 612.574 113.861 612.207 114.668C611.855 115.475 611.276 116.069 610.469 116.45C609.662 116.817 608.592 117 607.257 117C605.262 117 603.847 116.575 603.011 115.724C602.175 114.859 601.757 113.458 601.757 111.522ZM607.257 113.986C608.108 113.986 608.68 113.803 608.973 113.436C609.281 113.055 609.435 112.395 609.435 111.456C609.435 110.561 609.281 109.923 608.973 109.542C608.68 109.146 608.108 108.948 607.257 108.948C606.436 108.948 605.864 109.146 605.541 109.542C605.233 109.923 605.079 110.561 605.079 111.456C605.079 112.395 605.233 113.055 605.541 113.436C605.864 113.803 606.436 113.986 607.257 113.986Z" fill="#262626"/>
<path d="M621.311 116.802L621.179 115.24H621.091C620.841 115.827 620.482 116.267 620.013 116.56C619.558 116.853 618.891 117 618.011 117C616.588 117 615.547 116.589 614.887 115.768C614.227 114.932 613.882 113.678 613.853 112.006C613.838 110.51 613.992 109.322 614.315 108.442C614.637 107.562 615.143 106.931 615.833 106.55C616.522 106.169 617.402 105.978 618.473 105.978C619.03 105.978 619.536 106.029 619.991 106.132C620.445 106.22 620.812 106.345 621.091 106.506L621.135 106.484V101.996H624.655V116.802H621.311ZM619.155 114.008C619.741 114.008 620.218 113.825 620.585 113.458C620.951 113.091 621.135 112.483 621.135 111.632V109.322C620.592 109.102 619.954 108.992 619.221 108.992C618.531 108.992 618.033 109.161 617.725 109.498C617.431 109.821 617.285 110.481 617.285 111.478C617.285 112.329 617.402 112.967 617.637 113.392C617.886 113.803 618.392 114.008 619.155 114.008Z" fill="#262626"/>
<path d="M633.454 108.662V104.922L636.028 103.294H639.328L639.372 116.802H636.028V107.1H635.918L633.564 108.662H633.454Z" fill="#262626"/>
<path d="M850 96C850 89.3726 855.373 84 862 84H1138C1144.63 84 1150 89.3726 1150 96V372C1150 378.627 1144.63 384 1138 384H862C855.373 384 850 378.627 850 372V96Z" fill="#444444"/>
<path d="M900 146C900 139.373 905.373 134 912 134H1088C1094.63 134 1100 139.373 1100 146V322C1100 328.627 1094.63 334 1088 334H912C905.373 334 900 328.627 900 322V146Z" fill="#333333"/>
<path d="M949.84 241.802H946.32V227.876H952.524C953.917 227.876 955.032 228.045 955.868 228.382C956.704 228.719 957.305 229.269 957.672 230.032C958.039 230.795 958.222 231.829 958.222 233.134C958.222 234.366 958.039 235.371 957.672 236.148C957.305 236.911 956.704 237.475 955.868 237.842C955.032 238.209 953.917 238.392 952.524 238.392H949.84V241.802ZM951.952 230.758H949.84V235.51H951.952C952.993 235.51 953.69 235.334 954.042 234.982C954.394 234.63 954.57 234.014 954.57 233.134C954.57 232.298 954.394 231.697 954.042 231.33C953.69 230.949 952.993 230.758 951.952 230.758Z" fill="#666666"/>
<path d="M964.161 230.978C965.569 230.978 966.706 231.125 967.571 231.418C968.437 231.711 969.068 232.254 969.464 233.046C969.874 233.823 970.079 234.953 970.079 236.434V241.802H966.889L966.779 240.79H966.714C966.435 241.157 966.002 241.45 965.415 241.67C964.829 241.89 964.066 242 963.128 242C960.59 242 959.321 240.812 959.321 238.436C959.321 237.424 959.651 236.632 960.311 236.06C960.986 235.473 962.042 235.18 963.479 235.18H966.735C966.633 234.564 966.369 234.153 965.943 233.948C965.518 233.728 964.792 233.618 963.766 233.618C963.12 233.618 962.482 233.669 961.852 233.772C961.236 233.86 960.693 233.963 960.224 234.08L960.157 234.036L960.18 231.484C960.473 231.396 960.847 231.315 961.302 231.242C961.756 231.154 962.233 231.088 962.732 231.044C963.245 231 963.721 230.978 964.161 230.978ZM964.029 239.404C964.939 239.404 965.621 239.294 966.076 239.074C966.53 238.839 966.765 238.473 966.779 237.974V237.424H964.293C963.648 237.424 963.194 237.519 962.93 237.71C962.68 237.886 962.555 238.128 962.555 238.436C962.555 238.803 962.687 239.059 962.951 239.206C963.215 239.338 963.575 239.404 964.029 239.404Z" fill="#666666"/>
<path d="M975.901 241.802H972.381V231.088H975.241L975.527 233.288H975.593C975.725 232.467 976.04 231.88 976.539 231.528C977.037 231.161 977.778 230.978 978.761 230.978C979.157 230.978 979.516 231 979.839 231.044C980.161 231.073 980.433 231.103 980.653 231.132V234.564L980.609 234.608C980.374 234.549 980.103 234.498 979.795 234.454C979.501 234.41 979.164 234.388 978.783 234.388C978.24 234.388 977.749 234.476 977.309 234.652C976.883 234.828 976.546 235.173 976.297 235.686C976.062 236.185 975.945 236.933 975.945 237.93L975.901 241.802Z" fill="#666666"/>
<path d="M982.419 238.59V233.97H981.099V231.11H982.749L983.409 228.492H985.939V231.11H988.337V233.97H985.939V237.82C985.939 238.231 985.99 238.517 986.093 238.678C986.196 238.825 986.43 238.898 986.797 238.898C987.032 238.898 987.281 238.891 987.545 238.876C987.809 238.847 988.073 238.817 988.337 238.788L988.403 238.832V241.692C987.699 241.897 986.768 242 985.609 242C984.45 242 983.629 241.736 983.145 241.208C982.661 240.68 982.419 239.807 982.419 238.59Z" fill="#666666"/>
<path d="M993.706 227.106C993.75 227.634 993.772 228.074 993.772 228.426C993.772 228.631 993.765 228.844 993.75 229.064C993.75 229.269 993.736 229.504 993.706 229.768C993.398 229.827 993.098 229.871 992.804 229.9C992.511 229.929 992.218 229.944 991.924 229.944C991.646 229.944 991.36 229.929 991.066 229.9C990.788 229.871 990.502 229.827 990.208 229.768C990.179 229.519 990.157 229.291 990.142 229.086C990.128 228.866 990.12 228.653 990.12 228.448C990.12 228.257 990.128 228.052 990.142 227.832C990.157 227.612 990.179 227.37 990.208 227.106C990.502 227.033 990.795 226.989 991.088 226.974C991.396 226.945 991.697 226.93 991.99 226.93C992.269 226.93 992.548 226.945 992.826 226.974C993.12 226.989 993.413 227.033 993.706 227.106ZM993.706 241.802H990.186V231.088H993.706V241.802Z" fill="#666666"/>
<path d="M1000.21 230.978C1001.62 230.978 1002.76 231.125 1003.62 231.418C1004.49 231.711 1005.12 232.254 1005.51 233.046C1005.92 233.823 1006.13 234.953 1006.13 236.434V241.802H1002.94L1002.83 240.79H1002.76C1002.49 241.157 1002.05 241.45 1001.47 241.67C1000.88 241.89 1000.12 242 999.178 242C996.641 242 995.372 240.812 995.372 238.436C995.372 237.424 995.702 236.632 996.362 236.06C997.037 235.473 998.093 235.18 999.53 235.18H1002.79C1002.68 234.564 1002.42 234.153 1001.99 233.948C1001.57 233.728 1000.84 233.618 999.816 233.618C999.171 233.618 998.533 233.669 997.902 233.772C997.286 233.86 996.744 233.963 996.274 234.08L996.208 234.036L996.23 231.484C996.524 231.396 996.898 231.315 997.352 231.242C997.807 231.154 998.284 231.088 998.782 231.044C999.296 231 999.772 230.978 1000.21 230.978ZM1000.08 239.404C1000.99 239.404 1001.67 239.294 1002.13 239.074C1002.58 238.839 1002.82 238.473 1002.83 237.974V237.424H1000.34C999.699 237.424 999.244 237.519 998.98 237.71C998.731 237.886 998.606 238.128 998.606 238.436C998.606 238.803 998.738 239.059 999.002 239.206C999.266 239.338 999.626 239.404 1000.08 239.404Z" fill="#666666"/>
<path d="M1011.95 241.802H1008.43V226.996H1011.95V241.802Z" fill="#666666"/>
<path d="M1029.53 238.7V241.56C1029.16 241.707 1028.62 241.817 1027.9 241.89C1027.18 241.963 1026.42 242 1025.61 242C1024.46 242 1023.49 241.839 1022.71 241.516C1021.95 241.193 1021.38 240.636 1021 239.844C1020.63 239.052 1020.44 237.952 1020.42 236.544C1020.42 235.092 1020.62 233.963 1021.02 233.156C1021.43 232.349 1022.02 231.785 1022.8 231.462C1023.58 231.139 1024.51 230.978 1025.59 230.978C1026.24 230.978 1026.92 231.022 1027.64 231.11C1028.36 231.198 1028.94 231.315 1029.4 231.462L1029.42 234.41L1029.36 234.454C1028.92 234.366 1028.45 234.3 1027.95 234.256C1027.45 234.212 1026.96 234.19 1026.47 234.19C1025.49 234.19 1024.81 234.373 1024.43 234.74C1024.05 235.107 1023.86 235.723 1023.86 236.588C1023.86 237.248 1023.94 237.739 1024.1 238.062C1024.26 238.385 1024.53 238.597 1024.91 238.7C1025.29 238.803 1025.81 238.854 1026.47 238.854C1026.99 238.854 1027.48 238.832 1027.95 238.788C1028.42 238.744 1028.91 238.693 1029.44 238.634L1029.53 238.7Z" fill="#666666"/>
<path d="M1035.58 230.978C1036.98 230.978 1038.12 231.125 1038.99 231.418C1039.85 231.711 1040.48 232.254 1040.88 233.046C1041.29 233.823 1041.49 234.953 1041.49 236.434V241.802H1038.3L1038.19 240.79H1038.13C1037.85 241.157 1037.42 241.45 1036.83 241.67C1036.24 241.89 1035.48 242 1034.54 242C1032 242 1030.74 240.812 1030.74 238.436C1030.74 237.424 1031.07 236.632 1031.73 236.06C1032.4 235.473 1033.46 235.18 1034.89 235.18H1038.15C1038.05 234.564 1037.78 234.153 1037.36 233.948C1036.93 233.728 1036.21 233.618 1035.18 233.618C1034.53 233.618 1033.9 233.669 1033.27 233.772C1032.65 233.86 1032.11 233.963 1031.64 234.08L1031.57 234.036L1031.59 231.484C1031.89 231.396 1032.26 231.315 1032.72 231.242C1033.17 231.154 1033.65 231.088 1034.15 231.044C1034.66 231 1035.14 230.978 1035.58 230.978ZM1035.44 239.404C1036.35 239.404 1037.03 239.294 1037.49 239.074C1037.94 238.839 1038.18 238.473 1038.19 237.974V237.424H1035.71C1035.06 237.424 1034.61 237.519 1034.34 237.71C1034.09 237.886 1033.97 238.128 1033.97 238.436C1033.97 238.803 1034.1 239.059 1034.37 239.206C1034.63 239.338 1034.99 239.404 1035.44 239.404Z" fill="#666666"/>
<path d="M1047.31 241.802H1043.79V226.996H1047.31V241.802Z" fill="#666666"/>
<path d="M1053.48 241.802H1049.96V226.996H1053.48V241.802Z" fill="#666666"/>
<path d="M962.84 116.802H959.32V102.876H965.524C966.917 102.876 968.032 103.045 968.868 103.382C969.704 103.719 970.305 104.269 970.672 105.032C971.039 105.795 971.222 106.829 971.222 108.134C971.222 109.366 971.039 110.371 970.672 111.148C970.305 111.911 969.704 112.475 968.868 112.842C968.032 113.209 966.917 113.392 965.524 113.392H962.84V116.802ZM964.952 105.758H962.84V110.51H964.952C965.993 110.51 966.69 110.334 967.042 109.982C967.394 109.63 967.57 109.014 967.57 108.134C967.57 107.298 967.394 106.697 967.042 106.33C966.69 105.949 965.993 105.758 964.952 105.758Z" fill="#262626"/>
<path d="M982.529 116.45C982.119 116.597 981.547 116.729 980.813 116.846C980.095 116.949 979.237 117 978.24 117C976.978 117 975.9 116.839 975.005 116.516C974.125 116.179 973.458 115.614 973.003 114.822C972.549 114.015 972.321 112.901 972.321 111.478C972.321 109.542 972.761 108.141 973.641 107.276C974.536 106.411 975.915 105.978 977.777 105.978C979.112 105.978 980.161 106.169 980.923 106.55C981.701 106.931 982.251 107.474 982.573 108.178C982.911 108.867 983.079 109.689 983.079 110.642C983.079 110.921 983.065 111.221 983.035 111.544C983.021 111.867 982.984 112.182 982.925 112.49L982.837 112.578H975.599C975.702 113.223 976.003 113.649 976.501 113.854C977.015 114.059 977.843 114.162 978.987 114.162C979.75 114.162 980.381 114.147 980.879 114.118C981.393 114.074 981.913 114.015 982.441 113.942L982.529 114.008V116.45ZM980.021 110.268C980.021 109.916 979.963 109.615 979.845 109.366C979.743 109.102 979.53 108.904 979.207 108.772C978.885 108.625 978.408 108.552 977.777 108.552C976.853 108.552 976.245 108.713 975.951 109.036C975.673 109.344 975.534 109.755 975.534 110.268H980.021Z" fill="#262626"/>
<path d="M988.471 116.802H984.951V106.088H987.811L988.097 108.288H988.163C988.295 107.467 988.61 106.88 989.109 106.528C989.608 106.161 990.348 105.978 991.331 105.978C991.727 105.978 992.086 106 992.409 106.044C992.732 106.073 993.003 106.103 993.223 106.132V109.564L993.179 109.608C992.944 109.549 992.673 109.498 992.365 109.454C992.072 109.41 991.734 109.388 991.353 109.388C990.81 109.388 990.319 109.476 989.879 109.652C989.454 109.828 989.116 110.173 988.867 110.686C988.632 111.185 988.515 111.933 988.515 112.93L988.471 116.802Z" fill="#262626"/>
<path d="M998.091 102.106C998.135 102.634 998.157 103.074 998.157 103.426C998.157 103.631 998.15 103.844 998.135 104.064C998.135 104.269 998.121 104.504 998.091 104.768C997.783 104.827 997.483 104.871 997.189 104.9C996.896 104.929 996.603 104.944 996.309 104.944C996.031 104.944 995.745 104.929 995.451 104.9C995.173 104.871 994.887 104.827 994.593 104.768C994.564 104.519 994.542 104.291 994.527 104.086C994.513 103.866 994.505 103.653 994.505 103.448C994.505 103.257 994.513 103.052 994.527 102.832C994.542 102.612 994.564 102.37 994.593 102.106C994.887 102.033 995.18 101.989 995.473 101.974C995.781 101.945 996.082 101.93 996.375 101.93C996.654 101.93 996.933 101.945 997.211 101.974C997.505 101.989 997.798 102.033 998.091 102.106ZM998.091 116.802H994.571V106.088H998.091V116.802Z" fill="#262626"/>
<path d="M999.757 111.522C999.757 109.557 1000.18 108.141 1001.01 107.276C1001.85 106.411 1003.26 105.978 1005.26 105.978C1006.59 105.978 1007.66 106.169 1008.47 106.55C1009.28 106.931 1009.86 107.533 1010.21 108.354C1010.57 109.161 1010.76 110.217 1010.76 111.522C1010.76 112.813 1010.57 113.861 1010.21 114.668C1009.86 115.475 1009.28 116.069 1008.47 116.45C1007.66 116.817 1006.59 117 1005.26 117C1003.26 117 1001.85 116.575 1001.01 115.724C1000.18 114.859 999.757 113.458 999.757 111.522ZM1005.26 113.986C1006.11 113.986 1006.68 113.803 1006.97 113.436C1007.28 113.055 1007.44 112.395 1007.44 111.456C1007.44 110.561 1007.28 109.923 1006.97 109.542C1006.68 109.146 1006.11 108.948 1005.26 108.948C1004.44 108.948 1003.86 109.146 1003.54 109.542C1003.23 109.923 1003.08 110.561 1003.08 111.456C1003.08 112.395 1003.23 113.055 1003.54 113.436C1003.86 113.803 1004.44 113.986 1005.26 113.986Z" fill="#262626"/>
<path d="M1019.31 116.802L1019.18 115.24H1019.09C1018.84 115.827 1018.48 116.267 1018.01 116.56C1017.56 116.853 1016.89 117 1016.01 117C1014.59 117 1013.55 116.589 1012.89 115.768C1012.23 114.932 1011.88 113.678 1011.85 112.006C1011.84 110.51 1011.99 109.322 1012.31 108.442C1012.64 107.562 1013.14 106.931 1013.83 106.55C1014.52 106.169 1015.4 105.978 1016.47 105.978C1017.03 105.978 1017.54 106.029 1017.99 106.132C1018.45 106.22 1018.81 106.345 1019.09 106.506L1019.13 106.484V101.996H1022.65V116.802H1019.31ZM1017.15 114.008C1017.74 114.008 1018.22 113.825 1018.58 113.458C1018.95 113.091 1019.13 112.483 1019.13 111.632V109.322C1018.59 109.102 1017.95 108.992 1017.22 108.992C1016.53 108.992 1016.03 109.161 1015.72 109.498C1015.43 109.821 1015.28 110.481 1015.28 111.478C1015.28 112.329 1015.4 112.967 1015.64 113.392C1015.89 113.803 1016.39 114.008 1017.15 114.008Z" fill="#262626"/>
<path d="M1031.5 107.166V104.284C1032.01 103.961 1032.69 103.697 1033.52 103.492C1034.36 103.287 1035.27 103.184 1036.25 103.184C1037.82 103.184 1039.07 103.492 1040.01 104.108C1040.97 104.724 1041.44 105.765 1041.44 107.232C1041.44 108.391 1041.17 109.322 1040.63 110.026C1040.1 110.715 1039.16 111.317 1037.81 111.83C1036.51 112.329 1035.6 112.754 1035.11 113.106C1034.62 113.443 1034.38 113.781 1034.38 114.118H1041.55V116.912H1031.12V114.448C1031.12 113.7 1031.25 113.062 1031.5 112.534C1031.76 112.006 1032.21 111.522 1032.84 111.082C1033.47 110.642 1034.34 110.187 1035.46 109.718C1036.29 109.366 1036.95 109.029 1037.42 108.706C1037.9 108.369 1038.13 107.965 1038.12 107.496C1038.11 106.939 1037.89 106.55 1037.48 106.33C1037.09 106.095 1036.52 105.978 1035.79 105.978C1035.08 105.978 1034.37 106.103 1033.63 106.352C1032.9 106.587 1032.25 106.858 1031.7 107.166H1031.5Z" fill="#262626"/>
<path d="M1250 96C1250 89.3726 1255.37 84 1262 84H1538C1544.63 84 1550 89.3726 1550 96V372C1550 378.627 1544.63 384 1538 384H1262C1255.37 384 1250 378.627 1250 372V96Z" fill="#444444"/>
<path d="M1300 146C1300 139.373 1305.37 134 1312 134H1488C1494.63 134 1500 139.373 1500 146V322C1500 328.627 1494.63 334 1488 334H1312C1305.37 334 1300 328.627 1300 322V146Z" fill="#333333"/>
<path d="M1349.84 241.802H1346.32V227.876H1352.52C1353.92 227.876 1355.03 228.045 1355.87 228.382C1356.7 228.719 1357.31 229.269 1357.67 230.032C1358.04 230.795 1358.22 231.829 1358.22 233.134C1358.22 234.366 1358.04 235.371 1357.67 236.148C1357.31 236.911 1356.7 237.475 1355.87 237.842C1355.03 238.209 1353.92 238.392 1352.52 238.392H1349.84V241.802ZM1351.95 230.758H1349.84V235.51H1351.95C1352.99 235.51 1353.69 235.334 1354.04 234.982C1354.39 234.63 1354.57 234.014 1354.57 233.134C1354.57 232.298 1354.39 231.697 1354.04 231.33C1353.69 230.949 1352.99 230.758 1351.95 230.758Z" fill="#666666"/>
<path d="M1364.16 230.978C1365.57 230.978 1366.71 231.125 1367.57 231.418C1368.44 231.711 1369.07 232.254 1369.46 233.046C1369.87 233.823 1370.08 234.953 1370.08 236.434V241.802H1366.89L1366.78 240.79H1366.71C1366.43 241.157 1366 241.45 1365.42 241.67C1364.83 241.89 1364.07 242 1363.13 242C1360.59 242 1359.32 240.812 1359.32 238.436C1359.32 237.424 1359.65 236.632 1360.31 236.06C1360.99 235.473 1362.04 235.18 1363.48 235.18H1366.74C1366.63 234.564 1366.37 234.153 1365.94 233.948C1365.52 233.728 1364.79 233.618 1363.77 233.618C1363.12 233.618 1362.48 233.669 1361.85 233.772C1361.24 233.86 1360.69 233.963 1360.22 234.08L1360.16 234.036L1360.18 231.484C1360.47 231.396 1360.85 231.315 1361.3 231.242C1361.76 231.154 1362.23 231.088 1362.73 231.044C1363.24 231 1363.72 230.978 1364.16 230.978ZM1364.03 239.404C1364.94 239.404 1365.62 239.294 1366.08 239.074C1366.53 238.839 1366.76 238.473 1366.78 237.974V237.424H1364.29C1363.65 237.424 1363.19 237.519 1362.93 237.71C1362.68 237.886 1362.56 238.128 1362.56 238.436C1362.56 238.803 1362.69 239.059 1362.95 239.206C1363.22 239.338 1363.57 239.404 1364.03 239.404Z" fill="#666666"/>
<path d="M1375.9 241.802H1372.38V231.088H1375.24L1375.53 233.288H1375.59C1375.72 232.467 1376.04 231.88 1376.54 231.528C1377.04 231.161 1377.78 230.978 1378.76 230.978C1379.16 230.978 1379.52 231 1379.84 231.044C1380.16 231.073 1380.43 231.103 1380.65 231.132V234.564L1380.61 234.608C1380.37 234.549 1380.1 234.498 1379.79 234.454C1379.5 234.41 1379.16 234.388 1378.78 234.388C1378.24 234.388 1377.75 234.476 1377.31 234.652C1376.88 234.828 1376.55 235.173 1376.3 235.686C1376.06 236.185 1375.94 236.933 1375.94 237.93L1375.9 241.802Z" fill="#666666"/>
<path d="M1382.42 238.59V233.97H1381.1V231.11H1382.75L1383.41 228.492H1385.94V231.11H1388.34V233.97H1385.94V237.82C1385.94 238.231 1385.99 238.517 1386.09 238.678C1386.2 238.825 1386.43 238.898 1386.8 238.898C1387.03 238.898 1387.28 238.891 1387.54 238.876C1387.81 238.847 1388.07 238.817 1388.34 238.788L1388.4 238.832V241.692C1387.7 241.897 1386.77 242 1385.61 242C1384.45 242 1383.63 241.736 1383.14 241.208C1382.66 240.68 1382.42 239.807 1382.42 238.59Z" fill="#666666"/>
<path d="M1393.71 227.106C1393.75 227.634 1393.77 228.074 1393.77 228.426C1393.77 228.631 1393.77 228.844 1393.75 229.064C1393.75 229.269 1393.74 229.504 1393.71 229.768C1393.4 229.827 1393.1 229.871 1392.8 229.9C1392.51 229.929 1392.22 229.944 1391.92 229.944C1391.65 229.944 1391.36 229.929 1391.07 229.9C1390.79 229.871 1390.5 229.827 1390.21 229.768C1390.18 229.519 1390.16 229.291 1390.14 229.086C1390.13 228.866 1390.12 228.653 1390.12 228.448C1390.12 228.257 1390.13 228.052 1390.14 227.832C1390.16 227.612 1390.18 227.37 1390.21 227.106C1390.5 227.033 1390.8 226.989 1391.09 226.974C1391.4 226.945 1391.7 226.93 1391.99 226.93C1392.27 226.93 1392.55 226.945 1392.83 226.974C1393.12 226.989 1393.41 227.033 1393.71 227.106ZM1393.71 241.802H1390.19V231.088H1393.71V241.802Z" fill="#666666"/>
<path d="M1400.21 230.978C1401.62 230.978 1402.76 231.125 1403.62 231.418C1404.49 231.711 1405.12 232.254 1405.51 233.046C1405.92 233.823 1406.13 234.953 1406.13 236.434V241.802H1402.94L1402.83 240.79H1402.76C1402.49 241.157 1402.05 241.45 1401.47 241.67C1400.88 241.89 1400.12 242 1399.18 242C1396.64 242 1395.37 240.812 1395.37 238.436C1395.37 237.424 1395.7 236.632 1396.36 236.06C1397.04 235.473 1398.09 235.18 1399.53 235.18H1402.79C1402.68 234.564 1402.42 234.153 1401.99 233.948C1401.57 233.728 1400.84 233.618 1399.82 233.618C1399.17 233.618 1398.53 233.669 1397.9 233.772C1397.29 233.86 1396.74 233.963 1396.27 234.08L1396.21 234.036L1396.23 231.484C1396.52 231.396 1396.9 231.315 1397.35 231.242C1397.81 231.154 1398.28 231.088 1398.78 231.044C1399.3 231 1399.77 230.978 1400.21 230.978ZM1400.08 239.404C1400.99 239.404 1401.67 239.294 1402.13 239.074C1402.58 238.839 1402.82 238.473 1402.83 237.974V237.424H1400.34C1399.7 237.424 1399.24 237.519 1398.98 237.71C1398.73 237.886 1398.61 238.128 1398.61 238.436C1398.61 238.803 1398.74 239.059 1399 239.206C1399.27 239.338 1399.63 239.404 1400.08 239.404Z" fill="#666666"/>
<path d="M1411.95 241.802H1408.43V226.996H1411.95V241.802Z" fill="#666666"/>
<path d="M1429.53 238.7V241.56C1429.16 241.707 1428.62 241.817 1427.9 241.89C1427.18 241.963 1426.42 242 1425.61 242C1424.46 242 1423.49 241.839 1422.71 241.516C1421.95 241.193 1421.38 240.636 1420.99 239.844C1420.63 239.052 1420.44 237.952 1420.42 236.544C1420.42 235.092 1420.62 233.963 1421.02 233.156C1421.43 232.349 1422.02 231.785 1422.8 231.462C1423.58 231.139 1424.51 230.978 1425.59 230.978C1426.24 230.978 1426.92 231.022 1427.64 231.11C1428.36 231.198 1428.94 231.315 1429.4 231.462L1429.42 234.41L1429.36 234.454C1428.92 234.366 1428.45 234.3 1427.95 234.256C1427.45 234.212 1426.96 234.19 1426.47 234.19C1425.49 234.19 1424.81 234.373 1424.43 234.74C1424.05 235.107 1423.86 235.723 1423.86 236.588C1423.86 237.248 1423.94 237.739 1424.1 238.062C1424.26 238.385 1424.53 238.597 1424.91 238.7C1425.29 238.803 1425.81 238.854 1426.47 238.854C1426.99 238.854 1427.48 238.832 1427.95 238.788C1428.42 238.744 1428.91 238.693 1429.44 238.634L1429.53 238.7Z" fill="#666666"/>
<path d="M1435.58 230.978C1436.98 230.978 1438.12 231.125 1438.99 231.418C1439.85 231.711 1440.48 232.254 1440.88 233.046C1441.29 233.823 1441.49 234.953 1441.49 236.434V241.802H1438.3L1438.19 240.79H1438.13C1437.85 241.157 1437.42 241.45 1436.83 241.67C1436.24 241.89 1435.48 242 1434.54 242C1432 242 1430.74 240.812 1430.74 238.436C1430.74 237.424 1431.07 236.632 1431.73 236.06C1432.4 235.473 1433.46 235.18 1434.89 235.18H1438.15C1438.05 234.564 1437.78 234.153 1437.36 233.948C1436.93 233.728 1436.21 233.618 1435.18 233.618C1434.53 233.618 1433.9 233.669 1433.27 233.772C1432.65 233.86 1432.11 233.963 1431.64 234.08L1431.57 234.036L1431.59 231.484C1431.89 231.396 1432.26 231.315 1432.72 231.242C1433.17 231.154 1433.65 231.088 1434.15 231.044C1434.66 231 1435.14 230.978 1435.58 230.978ZM1435.44 239.404C1436.35 239.404 1437.03 239.294 1437.49 239.074C1437.94 238.839 1438.18 238.473 1438.19 237.974V237.424H1435.71C1435.06 237.424 1434.61 237.519 1434.34 237.71C1434.09 237.886 1433.97 238.128 1433.97 238.436C1433.97 238.803 1434.1 239.059 1434.37 239.206C1434.63 239.338 1434.99 239.404 1435.44 239.404Z" fill="#666666"/>
<path d="M1447.31 241.802H1443.79V226.996H1447.31V241.802Z" fill="#666666"/>
<path d="M1453.48 241.802H1449.96V226.996H1453.48V241.802Z" fill="#666666"/>
<path d="M1362.71 116.802H1359.19V102.876H1365.39C1366.79 102.876 1367.9 103.045 1368.74 103.382C1369.57 103.719 1370.17 104.269 1370.54 105.032C1370.91 105.795 1371.09 106.829 1371.09 108.134C1371.09 109.366 1370.91 110.371 1370.54 111.148C1370.17 111.911 1369.57 112.475 1368.74 112.842C1367.9 113.209 1366.79 113.392 1365.39 113.392H1362.71V116.802ZM1364.82 105.758H1362.71V110.51H1364.82C1365.86 110.51 1366.56 110.334 1366.91 109.982C1367.26 109.63 1367.44 109.014 1367.44 108.134C1367.44 107.298 1367.26 106.697 1366.91 106.33C1366.56 105.949 1365.86 105.758 1364.82 105.758Z" fill="#262626"/>
<path d="M1382.4 116.45C1381.99 116.597 1381.42 116.729 1380.68 116.846C1379.96 116.949 1379.11 117 1378.11 117C1376.85 117 1375.77 116.839 1374.87 116.516C1373.99 116.179 1373.33 115.614 1372.87 114.822C1372.42 114.015 1372.19 112.901 1372.19 111.478C1372.19 109.542 1372.63 108.141 1373.51 107.276C1374.41 106.411 1375.78 105.978 1377.65 105.978C1378.98 105.978 1380.03 106.169 1380.79 106.55C1381.57 106.931 1382.12 107.474 1382.44 108.178C1382.78 108.867 1382.95 109.689 1382.95 110.642C1382.95 110.921 1382.93 111.221 1382.9 111.544C1382.89 111.867 1382.85 112.182 1382.79 112.49L1382.71 112.578H1375.47C1375.57 113.223 1375.87 113.649 1376.37 113.854C1376.88 114.059 1377.71 114.162 1378.86 114.162C1379.62 114.162 1380.25 114.147 1380.75 114.118C1381.26 114.074 1381.78 114.015 1382.31 113.942L1382.4 114.008V116.45ZM1379.89 110.268C1379.89 109.916 1379.83 109.615 1379.71 109.366C1379.61 109.102 1379.4 108.904 1379.08 108.772C1378.75 108.625 1378.28 108.552 1377.65 108.552C1376.72 108.552 1376.11 108.713 1375.82 109.036C1375.54 109.344 1375.4 109.755 1375.4 110.268H1379.89Z" fill="#262626"/>
<path d="M1388.34 116.802H1384.82V106.088H1387.68L1387.97 108.288H1388.03C1388.16 107.467 1388.48 106.88 1388.98 106.528C1389.48 106.161 1390.22 105.978 1391.2 105.978C1391.6 105.978 1391.96 106 1392.28 106.044C1392.6 106.073 1392.87 106.103 1393.09 106.132V109.564L1393.05 109.608C1392.81 109.549 1392.54 109.498 1392.23 109.454C1391.94 109.41 1391.6 109.388 1391.22 109.388C1390.68 109.388 1390.19 109.476 1389.75 109.652C1389.32 109.828 1388.99 110.173 1388.74 110.686C1388.5 111.185 1388.38 111.933 1388.38 112.93L1388.34 116.802Z" fill="#262626"/>
<path d="M1397.96 102.106C1398 102.634 1398.03 103.074 1398.03 103.426C1398.03 103.631 1398.02 103.844 1398 104.064C1398 104.269 1397.99 104.504 1397.96 104.768C1397.65 104.827 1397.35 104.871 1397.06 104.9C1396.77 104.929 1396.47 104.944 1396.18 104.944C1395.9 104.944 1395.61 104.929 1395.32 104.9C1395.04 104.871 1394.76 104.827 1394.46 104.768C1394.43 104.519 1394.41 104.291 1394.4 104.086C1394.38 103.866 1394.37 103.653 1394.37 103.448C1394.37 103.257 1394.38 103.052 1394.4 102.832C1394.41 102.612 1394.43 102.37 1394.46 102.106C1394.76 102.033 1395.05 101.989 1395.34 101.974C1395.65 101.945 1395.95 101.93 1396.24 101.93C1396.52 101.93 1396.8 101.945 1397.08 101.974C1397.37 101.989 1397.67 102.033 1397.96 102.106ZM1397.96 116.802H1394.44V106.088H1397.96V116.802Z" fill="#262626"/>
<path d="M1399.63 111.522C1399.63 109.557 1400.04 108.141 1400.88 107.276C1401.72 106.411 1403.13 105.978 1405.13 105.978C1406.46 105.978 1407.53 106.169 1408.34 106.55C1409.14 106.931 1409.72 107.533 1410.08 108.354C1410.44 109.161 1410.63 110.217 1410.63 111.522C1410.63 112.813 1410.44 113.861 1410.08 114.668C1409.72 115.475 1409.14 116.069 1408.34 116.45C1407.53 116.817 1406.46 117 1405.13 117C1403.13 117 1401.72 116.575 1400.88 115.724C1400.04 114.859 1399.63 113.458 1399.63 111.522ZM1405.13 113.986C1405.98 113.986 1406.55 113.803 1406.84 113.436C1407.15 113.055 1407.3 112.395 1407.3 111.456C1407.3 110.561 1407.15 109.923 1406.84 109.542C1406.55 109.146 1405.98 108.948 1405.13 108.948C1404.3 108.948 1403.73 109.146 1403.41 109.542C1403.1 109.923 1402.95 110.561 1402.95 111.456C1402.95 112.395 1403.1 113.055 1403.41 113.436C1403.73 113.803 1404.3 113.986 1405.13 113.986Z" fill="#262626"/>
<path d="M1419.18 116.802L1419.05 115.24H1418.96C1418.71 115.827 1418.35 116.267 1417.88 116.56C1417.43 116.853 1416.76 117 1415.88 117C1414.46 117 1413.42 116.589 1412.76 115.768C1412.1 114.932 1411.75 113.678 1411.72 112.006C1411.71 110.51 1411.86 109.322 1412.18 108.442C1412.51 107.562 1413.01 106.931 1413.7 106.55C1414.39 106.169 1415.27 105.978 1416.34 105.978C1416.9 105.978 1417.41 106.029 1417.86 106.132C1418.31 106.22 1418.68 106.345 1418.96 106.506L1419 106.484V101.996H1422.52V116.802H1419.18ZM1417.02 114.008C1417.61 114.008 1418.09 113.825 1418.45 113.458C1418.82 113.091 1419 112.483 1419 111.632V109.322C1418.46 109.102 1417.82 108.992 1417.09 108.992C1416.4 108.992 1415.9 109.161 1415.59 109.498C1415.3 109.821 1415.15 110.481 1415.15 111.478C1415.15 112.329 1415.27 112.967 1415.51 113.392C1415.76 113.803 1416.26 114.008 1417.02 114.008Z" fill="#262626"/>
<path d="M1431.98 103.69C1432.63 103.485 1433.3 103.345 1433.99 103.272C1434.69 103.184 1435.44 103.14 1436.25 103.14C1437.51 103.14 1438.51 103.265 1439.24 103.514C1439.98 103.749 1440.5 104.115 1440.81 104.614C1441.13 105.113 1441.29 105.743 1441.29 106.506C1441.29 107.401 1441.08 108.156 1440.65 108.772C1440.23 109.373 1439.49 109.74 1438.45 109.872V109.982C1439.54 110.041 1440.31 110.341 1440.76 110.884C1441.23 111.427 1441.47 112.094 1441.47 112.886C1441.47 114.206 1441.03 115.203 1440.15 115.878C1439.28 116.538 1437.89 116.89 1435.97 116.934C1434.98 116.949 1434.12 116.897 1433.37 116.78C1432.62 116.663 1431.94 116.501 1431.32 116.296V113.546H1431.46C1432.04 113.737 1432.64 113.876 1433.24 113.964C1433.84 114.052 1434.52 114.096 1435.28 114.096C1436.31 114.096 1437.05 113.986 1437.51 113.766C1437.96 113.546 1438.19 113.165 1438.19 112.622C1438.19 112.123 1438.01 111.786 1437.66 111.61C1437.32 111.419 1436.69 111.324 1435.77 111.324H1434.01V108.486H1435.48C1436.54 108.486 1437.25 108.398 1437.62 108.222C1438 108.031 1438.19 107.694 1438.19 107.21C1438.19 106.711 1437.97 106.381 1437.55 106.22C1437.14 106.059 1436.41 105.978 1435.37 105.978C1434.8 105.978 1434.22 106.022 1433.63 106.11C1433.06 106.198 1432.54 106.315 1432.07 106.462L1431.98 106.44V103.69Z" fill="#262626"/>
<path d="M1650 96C1650 89.3726 1655.37 84 1662 84H1938C1944.63 84 1950 89.3726 1950 96V372C1950 378.627 1944.63 384 1938 384H1662C1655.37 384 1650 378.627 1650 372V96Z" fill="#444444"/>
<path d="M1700 146C1700 139.373 1705.37 134 1712 134H1888C1894.63 134 1900 139.373 1900 146V322C1900 328.627 1894.63 334 1888 334H1712C1705.37 334 1700 328.627 1700 322V146Z" fill="#333333"/>
<path d="M1765.39 241.802H1761.87V227.876H1772.21V230.736H1765.39V233.926H1771.77V236.786H1765.39V241.802Z" fill="#666666"/>
<path d="M1777.38 242C1776.03 242 1775.07 241.641 1774.5 240.922C1773.93 240.203 1773.64 239.177 1773.64 237.842V231.088H1777.16L1777.18 236.984C1777.18 237.644 1777.3 238.113 1777.54 238.392C1777.77 238.656 1778.25 238.788 1778.97 238.788C1779.66 238.788 1780.12 238.671 1780.35 238.436C1780.6 238.187 1780.73 237.769 1780.75 237.182V231.088H1784.27V241.802H1780.92L1780.75 240.592H1780.68C1780.49 241.017 1780.1 241.362 1779.52 241.626C1778.93 241.875 1778.22 242 1777.38 242Z" fill="#666666"/>
<path d="M1790.42 241.802H1786.9V226.996H1790.42V241.802Z" fill="#666666"/>
<path d="M1796.59 241.802H1793.07V226.996H1796.59V241.802Z" fill="#666666"/>
<path d="M1814.17 238.7V241.56C1813.8 241.707 1813.26 241.817 1812.54 241.89C1811.82 241.963 1811.06 242 1810.25 242C1809.09 242 1808.13 241.839 1807.35 241.516C1806.59 241.193 1806.02 240.636 1805.63 239.844C1805.27 239.052 1805.08 237.952 1805.06 236.544C1805.06 235.092 1805.26 233.963 1805.66 233.156C1806.07 232.349 1806.66 231.785 1807.44 231.462C1808.22 231.139 1809.15 230.978 1810.23 230.978C1810.88 230.978 1811.56 231.022 1812.28 231.11C1813 231.198 1813.58 231.315 1814.04 231.462L1814.06 234.41L1813.99 234.454C1813.55 234.366 1813.08 234.3 1812.59 234.256C1812.09 234.212 1811.6 234.19 1811.11 234.19C1810.13 234.19 1809.45 234.373 1809.07 234.74C1808.68 235.107 1808.49 235.723 1808.49 236.588C1808.49 237.248 1808.57 237.739 1808.74 238.062C1808.9 238.385 1809.17 238.597 1809.55 238.7C1809.93 238.803 1810.45 238.854 1811.11 238.854C1811.63 238.854 1812.12 238.832 1812.59 238.788C1813.06 238.744 1813.55 238.693 1814.08 238.634L1814.17 238.7Z" fill="#666666"/>
<path d="M1820.21 230.978C1821.62 230.978 1822.76 231.125 1823.62 231.418C1824.49 231.711 1825.12 232.254 1825.52 233.046C1825.93 233.823 1826.13 234.953 1826.13 236.434V241.802H1822.94L1822.83 240.79H1822.77C1822.49 241.157 1822.05 241.45 1821.47 241.67C1820.88 241.89 1820.12 242 1819.18 242C1816.64 242 1815.37 240.812 1815.37 238.436C1815.37 237.424 1815.7 236.632 1816.36 236.06C1817.04 235.473 1818.09 235.18 1819.53 235.18H1822.79C1822.69 234.564 1822.42 234.153 1822 233.948C1821.57 233.728 1820.84 233.618 1819.82 233.618C1819.17 233.618 1818.53 233.669 1817.9 233.772C1817.29 233.86 1816.75 233.963 1816.28 234.08L1816.21 234.036L1816.23 231.484C1816.53 231.396 1816.9 231.315 1817.35 231.242C1817.81 231.154 1818.29 231.088 1818.78 231.044C1819.3 231 1819.77 230.978 1820.21 230.978ZM1820.08 239.404C1820.99 239.404 1821.67 239.294 1822.13 239.074C1822.58 238.839 1822.82 238.473 1822.83 237.974V237.424H1820.35C1819.7 237.424 1819.25 237.519 1818.98 237.71C1818.73 237.886 1818.61 238.128 1818.61 238.436C1818.61 238.803 1818.74 239.059 1819 239.206C1819.27 239.338 1819.63 239.404 1820.08 239.404Z" fill="#666666"/>
<path d="M1831.95 241.802H1828.43V226.996H1831.95V241.802Z" fill="#666666"/>
<path d="M1838.12 241.802H1834.6V226.996H1838.12V241.802Z" fill="#666666"/>
<path d="M1762 116.802H1758.48V102.876H1764.68C1766.08 102.876 1767.19 103.045 1768.03 103.382C1768.86 103.719 1769.47 104.269 1769.83 105.032C1770.2 105.795 1770.38 106.829 1770.38 108.134C1770.38 109.366 1770.2 110.371 1769.83 111.148C1769.47 111.911 1768.86 112.475 1768.03 112.842C1767.19 113.209 1766.08 113.392 1764.68 113.392H1762V116.802ZM1764.11 105.758H1762V110.51H1764.11C1765.15 110.51 1765.85 110.334 1766.2 109.982C1766.55 109.63 1766.73 109.014 1766.73 108.134C1766.73 107.298 1766.55 106.697 1766.2 106.33C1765.85 105.949 1765.15 105.758 1764.11 105.758Z" fill="#262626"/>
<path d="M1781.69 116.45C1781.28 116.597 1780.71 116.729 1779.97 116.846C1779.25 116.949 1778.4 117 1777.4 117C1776.14 117 1775.06 116.839 1774.17 116.516C1773.29 116.179 1772.62 115.614 1772.16 114.822C1771.71 114.015 1771.48 112.901 1771.48 111.478C1771.48 109.542 1771.92 108.141 1772.8 107.276C1773.7 106.411 1775.07 105.978 1776.94 105.978C1778.27 105.978 1779.32 106.169 1780.08 106.55C1780.86 106.931 1781.41 107.474 1781.73 108.178C1782.07 108.867 1782.24 109.689 1782.24 110.642C1782.24 110.921 1782.23 111.221 1782.2 111.544C1782.18 111.867 1782.14 112.182 1782.09 112.49L1782 112.578H1774.76C1774.86 113.223 1775.16 113.649 1775.66 113.854C1776.17 114.059 1777 114.162 1778.15 114.162C1778.91 114.162 1779.54 114.147 1780.04 114.118C1780.55 114.074 1781.07 114.015 1781.6 113.942L1781.69 114.008V116.45ZM1779.18 110.268C1779.18 109.916 1779.12 109.615 1779.01 109.366C1778.9 109.102 1778.69 108.904 1778.37 108.772C1778.05 108.625 1777.57 108.552 1776.94 108.552C1776.01 108.552 1775.41 108.713 1775.11 109.036C1774.83 109.344 1774.69 109.755 1774.69 110.268H1779.18Z" fill="#262626"/>
<path d="M1787.63 116.802H1784.11V106.088H1786.97L1787.26 108.288H1787.32C1787.45 107.467 1787.77 106.88 1788.27 106.528C1788.77 106.161 1789.51 105.978 1790.49 105.978C1790.89 105.978 1791.25 106 1791.57 106.044C1791.89 106.073 1792.16 106.103 1792.38 106.132V109.564L1792.34 109.608C1792.1 109.549 1791.83 109.498 1791.53 109.454C1791.23 109.41 1790.89 109.388 1790.51 109.388C1789.97 109.388 1789.48 109.476 1789.04 109.652C1788.61 109.828 1788.28 110.173 1788.03 110.686C1787.79 111.185 1787.68 111.933 1787.68 112.93L1787.63 116.802Z" fill="#262626"/>
<path d="M1797.25 102.106C1797.3 102.634 1797.32 103.074 1797.32 103.426C1797.32 103.631 1797.31 103.844 1797.3 104.064C1797.3 104.269 1797.28 104.504 1797.25 104.768C1796.94 104.827 1796.64 104.871 1796.35 104.9C1796.06 104.929 1795.76 104.944 1795.47 104.944C1795.19 104.944 1794.9 104.929 1794.61 104.9C1794.33 104.871 1794.05 104.827 1793.75 104.768C1793.72 104.519 1793.7 104.291 1793.69 104.086C1793.67 103.866 1793.67 103.653 1793.67 103.448C1793.67 103.257 1793.67 103.052 1793.69 102.832C1793.7 102.612 1793.72 102.37 1793.75 102.106C1794.05 102.033 1794.34 101.989 1794.63 101.974C1794.94 101.945 1795.24 101.93 1795.54 101.93C1795.81 101.93 1796.09 101.945 1796.37 101.974C1796.66 101.989 1796.96 102.033 1797.25 102.106ZM1797.25 116.802H1793.73V106.088H1797.25V116.802Z" fill="#262626"/>
<path d="M1798.92 111.522C1798.92 109.557 1799.34 108.141 1800.17 107.276C1801.01 106.411 1802.42 105.978 1804.42 105.978C1805.75 105.978 1806.82 106.169 1807.63 106.55C1808.44 106.931 1809.02 107.533 1809.37 108.354C1809.73 109.161 1809.92 110.217 1809.92 111.522C1809.92 112.813 1809.73 113.861 1809.37 114.668C1809.02 115.475 1808.44 116.069 1807.63 116.45C1806.82 116.817 1805.75 117 1804.42 117C1802.42 117 1801.01 116.575 1800.17 115.724C1799.34 114.859 1798.92 113.458 1798.92 111.522ZM1804.42 113.986C1805.27 113.986 1805.84 113.803 1806.13 113.436C1806.44 113.055 1806.6 112.395 1806.6 111.456C1806.6 110.561 1806.44 109.923 1806.13 109.542C1805.84 109.146 1805.27 108.948 1804.42 108.948C1803.6 108.948 1803.02 109.146 1802.7 109.542C1802.39 109.923 1802.24 110.561 1802.24 111.456C1802.24 112.395 1802.39 113.055 1802.7 113.436C1803.02 113.803 1803.6 113.986 1804.42 113.986Z" fill="#262626"/>
<path d="M1818.47 116.802L1818.34 115.24H1818.25C1818 115.827 1817.64 116.267 1817.17 116.56C1816.72 116.853 1816.05 117 1815.17 117C1813.75 117 1812.71 116.589 1812.05 115.768C1811.39 114.932 1811.04 113.678 1811.01 112.006C1811 110.51 1811.15 109.322 1811.47 108.442C1811.8 107.562 1812.3 106.931 1812.99 106.55C1813.68 106.169 1814.56 105.978 1815.63 105.978C1816.19 105.978 1816.7 106.029 1817.15 106.132C1817.61 106.22 1817.97 106.345 1818.25 106.506L1818.29 106.484V101.996H1821.81V116.802H1818.47ZM1816.31 114.008C1816.9 114.008 1817.38 113.825 1817.74 113.458C1818.11 113.091 1818.29 112.483 1818.29 111.632V109.322C1817.75 109.102 1817.11 108.992 1816.38 108.992C1815.69 108.992 1815.19 109.161 1814.88 109.498C1814.59 109.821 1814.44 110.481 1814.44 111.478C1814.44 112.329 1814.56 112.967 1814.8 113.392C1815.05 113.803 1815.55 114.008 1816.31 114.008Z" fill="#262626"/>
<path d="M1830.17 111.742L1835.28 103.316H1840.32V111.984H1842.63V114.58H1840.36V116.846H1837.06L1836.99 114.58H1830.17V111.742ZM1837.24 111.984V105.296L1833.52 111.984H1837.24Z" fill="#262626"/>
<path d="M763.64 225.936V223.216L765.512 222.032H767.912L767.944 231.856H765.512V224.8H765.432L763.72 225.936H763.64Z" fill="white"/>
<path d="M769.911 227.76V222.112H776.854V224.176H772.119V225.744L772.151 225.792H773.862C775.036 225.792 775.889 226.032 776.422 226.512C776.956 226.992 777.222 227.755 777.222 228.8C777.222 229.909 776.876 230.72 776.182 231.232C775.489 231.744 774.412 232 772.951 232C772.257 232 771.628 231.968 771.062 231.904C770.497 231.829 769.99 231.739 769.542 231.632V229.68L769.575 229.648C769.809 229.712 770.086 229.765 770.406 229.808C770.737 229.851 771.073 229.888 771.414 229.92C771.756 229.941 772.065 229.952 772.343 229.952C773.004 229.952 773.51 229.92 773.862 229.856C774.214 229.792 774.455 229.68 774.583 229.52C774.721 229.349 774.791 229.115 774.791 228.816C774.791 228.443 774.7 228.176 774.518 228.016C774.348 227.845 774.001 227.76 773.479 227.76H769.911Z" fill="white"/>
<path d="M778.569 233.488C778.633 233.499 778.708 233.504 778.793 233.504C779.113 233.504 779.353 233.445 779.513 233.328C779.673 233.221 779.753 233.029 779.753 232.752L779.737 232.736C779.556 232.843 779.294 232.896 778.953 232.896C778.121 232.896 777.705 232.501 777.705 231.712C777.705 231.307 777.806 231.003 778.009 230.8C778.222 230.587 778.606 230.48 779.161 230.48C779.726 230.48 780.126 230.64 780.361 230.96C780.606 231.28 780.729 231.739 780.729 232.336C780.729 233.115 780.569 233.653 780.249 233.952C779.929 234.251 779.476 234.4 778.889 234.4C778.836 234.4 778.782 234.395 778.729 234.384C778.676 234.384 778.617 234.379 778.553 234.368V233.504L778.569 233.488Z" fill="white"/>
<path d="M789.868 226.976C789.868 228.192 789.729 229.168 789.452 229.904C789.174 230.64 788.726 231.173 788.108 231.504C787.489 231.835 786.662 232 785.628 232C784.604 232 783.782 231.835 783.164 231.504C782.545 231.173 782.097 230.64 781.82 229.904C781.542 229.168 781.404 228.192 781.404 226.976C781.404 225.749 781.542 224.768 781.82 224.032C782.097 223.296 782.545 222.763 783.164 222.432C783.782 222.101 784.604 221.936 785.628 221.936C786.662 221.936 787.489 222.101 788.108 222.432C788.726 222.763 789.174 223.296 789.452 224.032C789.729 224.768 789.868 225.749 789.868 226.976ZM785.628 229.872C786.353 229.872 786.828 229.637 787.052 229.168C787.286 228.688 787.404 227.957 787.404 226.976C787.404 225.984 787.286 225.253 787.052 224.784C786.828 224.315 786.353 224.08 785.628 224.08C784.913 224.08 784.438 224.315 784.204 224.784C783.98 225.253 783.868 225.984 783.868 226.976C783.868 227.957 783.98 228.688 784.204 229.168C784.438 229.637 784.913 229.872 785.628 229.872Z" fill="white"/>
<path d="M799.446 226.976C799.446 228.192 799.307 229.168 799.03 229.904C798.753 230.64 798.305 231.173 797.686 231.504C797.067 231.835 796.241 232 795.206 232C794.182 232 793.361 231.835 792.742 231.504C792.123 231.173 791.675 230.64 791.398 229.904C791.121 229.168 790.982 228.192 790.982 226.976C790.982 225.749 791.121 224.768 791.398 224.032C791.675 223.296 792.123 222.763 792.742 222.432C793.361 222.101 794.182 221.936 795.206 221.936C796.241 221.936 797.067 222.101 797.686 222.432C798.305 222.763 798.753 223.296 799.03 224.032C799.307 224.768 799.446 225.749 799.446 226.976ZM795.206 229.872C795.931 229.872 796.406 229.637 796.63 229.168C796.865 228.688 796.982 227.957 796.982 226.976C796.982 225.984 796.865 225.253 796.63 224.784C796.406 224.315 795.931 224.08 795.206 224.08C794.491 224.08 794.017 224.315 793.782 224.784C793.558 225.253 793.446 225.984 793.446 226.976C793.446 227.957 793.558 228.688 793.782 229.168C794.017 229.637 794.491 229.872 795.206 229.872Z" fill="white"/>
<path d="M809.024 226.976C809.024 228.192 808.885 229.168 808.608 229.904C808.331 230.64 807.883 231.173 807.264 231.504C806.645 231.835 805.819 232 804.784 232C803.76 232 802.939 231.835 802.32 231.504C801.701 231.173 801.253 230.64 800.976 229.904C800.699 229.168 800.56 228.192 800.56 226.976C800.56 225.749 800.699 224.768 800.976 224.032C801.253 223.296 801.701 222.763 802.32 222.432C802.939 222.101 803.76 221.936 804.784 221.936C805.819 221.936 806.645 222.101 807.264 222.432C807.883 222.763 808.331 223.296 808.608 224.032C808.885 224.768 809.024 225.749 809.024 226.976ZM804.784 229.872C805.509 229.872 805.984 229.637 806.208 229.168C806.443 228.688 806.56 227.957 806.56 226.976C806.56 225.984 806.443 225.253 806.208 224.784C805.984 224.315 805.509 224.08 804.784 224.08C804.069 224.08 803.595 224.315 803.36 224.784C803.136 225.253 803.024 225.984 803.024 226.976C803.024 227.957 803.136 228.688 803.36 229.168C803.595 229.637 804.069 229.872 804.784 229.872Z" fill="white"/>
<path d="M825.015 223.984C825.804 223.984 826.428 224.245 826.887 224.768C827.356 225.291 827.591 226.197 827.591 227.488V231.856H825.031L825.015 227.808C825.015 227.285 824.935 226.907 824.775 226.672C824.626 226.437 824.327 226.32 823.879 226.32C823.431 226.32 823.127 226.437 822.967 226.672C822.818 226.907 822.743 227.285 822.743 227.808V231.856H820.183L820.167 227.808C820.167 227.285 820.087 226.907 819.927 226.672C819.778 226.437 819.479 226.32 819.031 226.32C818.583 226.32 818.279 226.437 818.119 226.672C817.97 226.907 817.895 227.285 817.895 227.808V231.856H815.335V224.064H817.767L817.895 225.488H817.943C818.082 225.019 818.322 224.651 818.663 224.384C819.015 224.117 819.511 223.984 820.151 223.984C820.791 223.984 821.292 224.117 821.655 224.384C822.028 224.651 822.268 225.019 822.375 225.488H822.423C822.562 225.008 822.828 224.64 823.223 224.384C823.628 224.117 824.226 223.984 825.015 223.984Z" fill="white"/>
<path d="M828.999 229.648C829.831 229.883 830.753 230 831.767 230C832.257 230 832.625 229.984 832.871 229.952C833.116 229.92 833.281 229.867 833.367 229.792C833.452 229.717 833.495 229.616 833.495 229.488C833.495 229.307 833.425 229.195 833.287 229.152C833.159 229.109 832.897 229.051 832.503 228.976L831.239 228.736C830.428 228.576 829.841 228.325 829.479 227.984C829.127 227.632 828.951 227.109 828.951 226.416C828.951 225.477 829.228 224.837 829.783 224.496C830.348 224.155 831.244 223.984 832.471 223.984C833.207 223.984 833.852 224.027 834.407 224.112C834.972 224.187 835.441 224.283 835.815 224.4L835.783 226.336L835.735 226.384C834.871 226.107 833.927 225.968 832.903 225.968C832.401 225.968 832.049 226.005 831.847 226.08C831.655 226.144 831.559 226.277 831.559 226.48C831.559 226.587 831.585 226.672 831.639 226.736C831.703 226.8 831.841 226.864 832.055 226.928C832.268 226.981 832.604 227.051 833.063 227.136L834.231 227.36C834.881 227.499 835.361 227.728 835.671 228.048C835.98 228.368 836.135 228.875 836.135 229.568C836.135 230.176 836.023 230.661 835.799 231.024C835.575 231.376 835.196 231.627 834.663 231.776C834.14 231.925 833.415 232 832.487 232C831.783 232 831.132 231.968 830.535 231.904C829.948 231.829 829.42 231.744 828.951 231.648V229.68L828.999 229.648Z" fill="white"/>
<path d="M1563.64 225.936V223.216L1565.51 222.032H1567.91L1567.94 231.856H1565.51V224.8H1565.43L1563.72 225.936H1563.64Z" fill="white"/>
<path d="M1569.91 227.76V222.112H1576.85V224.176H1572.12V225.744L1572.15 225.792H1573.86C1575.04 225.792 1575.89 226.032 1576.42 226.512C1576.96 226.992 1577.22 227.755 1577.22 228.8C1577.22 229.909 1576.88 230.72 1576.18 231.232C1575.49 231.744 1574.41 232 1572.95 232C1572.26 232 1571.63 231.968 1571.06 231.904C1570.5 231.829 1569.99 231.739 1569.54 231.632V229.68L1569.57 229.648C1569.81 229.712 1570.09 229.765 1570.41 229.808C1570.74 229.851 1571.07 229.888 1571.41 229.92C1571.76 229.941 1572.07 229.952 1572.34 229.952C1573 229.952 1573.51 229.92 1573.86 229.856C1574.21 229.792 1574.45 229.68 1574.58 229.52C1574.72 229.349 1574.79 229.115 1574.79 228.816C1574.79 228.443 1574.7 228.176 1574.52 228.016C1574.35 227.845 1574 227.76 1573.48 227.76H1569.91Z" fill="white"/>
<path d="M1578.57 233.488C1578.63 233.499 1578.71 233.504 1578.79 233.504C1579.11 233.504 1579.35 233.445 1579.51 233.328C1579.67 233.221 1579.75 233.029 1579.75 232.752L1579.74 232.736C1579.56 232.843 1579.29 232.896 1578.95 232.896C1578.12 232.896 1577.7 232.501 1577.7 231.712C1577.7 231.307 1577.81 231.003 1578.01 230.8C1578.22 230.587 1578.61 230.48 1579.16 230.48C1579.73 230.48 1580.13 230.64 1580.36 230.96C1580.61 231.28 1580.73 231.739 1580.73 232.336C1580.73 233.115 1580.57 233.653 1580.25 233.952C1579.93 234.251 1579.48 234.4 1578.89 234.4C1578.84 234.4 1578.78 234.395 1578.73 234.384C1578.68 234.384 1578.62 234.379 1578.55 234.368V233.504L1578.57 233.488Z" fill="white"/>
<path d="M1589.87 226.976C1589.87 228.192 1589.73 229.168 1589.45 229.904C1589.17 230.64 1588.73 231.173 1588.11 231.504C1587.49 231.835 1586.66 232 1585.63 232C1584.6 232 1583.78 231.835 1583.16 231.504C1582.55 231.173 1582.1 230.64 1581.82 229.904C1581.54 229.168 1581.4 228.192 1581.4 226.976C1581.4 225.749 1581.54 224.768 1581.82 224.032C1582.1 223.296 1582.55 222.763 1583.16 222.432C1583.78 222.101 1584.6 221.936 1585.63 221.936C1586.66 221.936 1587.49 222.101 1588.11 222.432C1588.73 222.763 1589.17 223.296 1589.45 224.032C1589.73 224.768 1589.87 225.749 1589.87 226.976ZM1585.63 229.872C1586.35 229.872 1586.83 229.637 1587.05 229.168C1587.29 228.688 1587.4 227.957 1587.4 226.976C1587.4 225.984 1587.29 225.253 1587.05 224.784C1586.83 224.315 1586.35 224.08 1585.63 224.08C1584.91 224.08 1584.44 224.315 1584.2 224.784C1583.98 225.253 1583.87 225.984 1583.87 226.976C1583.87 227.957 1583.98 228.688 1584.2 229.168C1584.44 229.637 1584.91 229.872 1585.63 229.872Z" fill="white"/>
<path d="M1599.45 226.976C1599.45 228.192 1599.31 229.168 1599.03 229.904C1598.75 230.64 1598.3 231.173 1597.69 231.504C1597.07 231.835 1596.24 232 1595.21 232C1594.18 232 1593.36 231.835 1592.74 231.504C1592.12 231.173 1591.68 230.64 1591.4 229.904C1591.12 229.168 1590.98 228.192 1590.98 226.976C1590.98 225.749 1591.12 224.768 1591.4 224.032C1591.68 223.296 1592.12 222.763 1592.74 222.432C1593.36 222.101 1594.18 221.936 1595.21 221.936C1596.24 221.936 1597.07 222.101 1597.69 222.432C1598.3 222.763 1598.75 223.296 1599.03 224.032C1599.31 224.768 1599.45 225.749 1599.45 226.976ZM1595.21 229.872C1595.93 229.872 1596.41 229.637 1596.63 229.168C1596.86 228.688 1596.98 227.957 1596.98 226.976C1596.98 225.984 1596.86 225.253 1596.63 224.784C1596.41 224.315 1595.93 224.08 1595.21 224.08C1594.49 224.08 1594.02 224.315 1593.78 224.784C1593.56 225.253 1593.45 225.984 1593.45 226.976C1593.45 227.957 1593.56 228.688 1593.78 229.168C1594.02 229.637 1594.49 229.872 1595.21 229.872Z" fill="white"/>
<path d="M1609.02 226.976C1609.02 228.192 1608.89 229.168 1608.61 229.904C1608.33 230.64 1607.88 231.173 1607.26 231.504C1606.65 231.835 1605.82 232 1604.78 232C1603.76 232 1602.94 231.835 1602.32 231.504C1601.7 231.173 1601.25 230.64 1600.98 229.904C1600.7 229.168 1600.56 228.192 1600.56 226.976C1600.56 225.749 1600.7 224.768 1600.98 224.032C1601.25 223.296 1601.7 222.763 1602.32 222.432C1602.94 222.101 1603.76 221.936 1604.78 221.936C1605.82 221.936 1606.65 222.101 1607.26 222.432C1607.88 222.763 1608.33 223.296 1608.61 224.032C1608.89 224.768 1609.02 225.749 1609.02 226.976ZM1604.78 229.872C1605.51 229.872 1605.98 229.637 1606.21 229.168C1606.44 228.688 1606.56 227.957 1606.56 226.976C1606.56 225.984 1606.44 225.253 1606.21 224.784C1605.98 224.315 1605.51 224.08 1604.78 224.08C1604.07 224.08 1603.59 224.315 1603.36 224.784C1603.14 225.253 1603.02 225.984 1603.02 226.976C1603.02 227.957 1603.14 228.688 1603.36 229.168C1603.59 229.637 1604.07 229.872 1604.78 229.872Z" fill="white"/>
<path d="M1625.02 223.984C1625.8 223.984 1626.43 224.245 1626.89 224.768C1627.36 225.291 1627.59 226.197 1627.59 227.488V231.856H1625.03L1625.02 227.808C1625.02 227.285 1624.94 226.907 1624.78 226.672C1624.63 226.437 1624.33 226.32 1623.88 226.32C1623.43 226.32 1623.13 226.437 1622.97 226.672C1622.82 226.907 1622.74 227.285 1622.74 227.808V231.856H1620.18L1620.17 227.808C1620.17 227.285 1620.09 226.907 1619.93 226.672C1619.78 226.437 1619.48 226.32 1619.03 226.32C1618.58 226.32 1618.28 226.437 1618.12 226.672C1617.97 226.907 1617.9 227.285 1617.9 227.808V231.856H1615.33V224.064H1617.77L1617.9 225.488H1617.94C1618.08 225.019 1618.32 224.651 1618.66 224.384C1619.01 224.117 1619.51 223.984 1620.15 223.984C1620.79 223.984 1621.29 224.117 1621.66 224.384C1622.03 224.651 1622.27 225.019 1622.38 225.488H1622.42C1622.56 225.008 1622.83 224.64 1623.22 224.384C1623.63 224.117 1624.23 223.984 1625.02 223.984Z" fill="white"/>
<path d="M1629 229.648C1629.83 229.883 1630.75 230 1631.77 230C1632.26 230 1632.63 229.984 1632.87 229.952C1633.12 229.92 1633.28 229.867 1633.37 229.792C1633.45 229.717 1633.49 229.616 1633.49 229.488C1633.49 229.307 1633.43 229.195 1633.29 229.152C1633.16 229.109 1632.9 229.051 1632.5 228.976L1631.24 228.736C1630.43 228.576 1629.84 228.325 1629.48 227.984C1629.13 227.632 1628.95 227.109 1628.95 226.416C1628.95 225.477 1629.23 224.837 1629.78 224.496C1630.35 224.155 1631.24 223.984 1632.47 223.984C1633.21 223.984 1633.85 224.027 1634.41 224.112C1634.97 224.187 1635.44 224.283 1635.81 224.4L1635.78 226.336L1635.73 226.384C1634.87 226.107 1633.93 225.968 1632.9 225.968C1632.4 225.968 1632.05 226.005 1631.85 226.08C1631.65 226.144 1631.56 226.277 1631.56 226.48C1631.56 226.587 1631.59 226.672 1631.64 226.736C1631.7 226.8 1631.84 226.864 1632.05 226.928C1632.27 226.981 1632.6 227.051 1633.06 227.136L1634.23 227.36C1634.88 227.499 1635.36 227.728 1635.67 228.048C1635.98 228.368 1636.13 228.875 1636.13 229.568C1636.13 230.176 1636.02 230.661 1635.8 231.024C1635.57 231.376 1635.2 231.627 1634.66 231.776C1634.14 231.925 1633.41 232 1632.49 232C1631.78 232 1631.13 231.968 1630.53 231.904C1629.95 231.829 1629.42 231.744 1628.95 231.648V229.68L1629 229.648Z" fill="white"/>
<path d="M1163.64 225.936V223.216L1165.51 222.032H1167.91L1167.94 231.856H1165.51V224.8H1165.43L1163.72 225.936H1163.64Z" fill="white"/>
<path d="M1169.91 227.76V222.112H1176.85V224.176H1172.12V225.744L1172.15 225.792H1173.86C1175.04 225.792 1175.89 226.032 1176.42 226.512C1176.96 226.992 1177.22 227.755 1177.22 228.8C1177.22 229.909 1176.88 230.72 1176.18 231.232C1175.49 231.744 1174.41 232 1172.95 232C1172.26 232 1171.63 231.968 1171.06 231.904C1170.5 231.829 1169.99 231.739 1169.54 231.632V229.68L1169.57 229.648C1169.81 229.712 1170.09 229.765 1170.41 229.808C1170.74 229.851 1171.07 229.888 1171.41 229.92C1171.76 229.941 1172.07 229.952 1172.34 229.952C1173 229.952 1173.51 229.92 1173.86 229.856C1174.21 229.792 1174.45 229.68 1174.58 229.52C1174.72 229.349 1174.79 229.115 1174.79 228.816C1174.79 228.443 1174.7 228.176 1174.52 228.016C1174.35 227.845 1174 227.76 1173.48 227.76H1169.91Z" fill="white"/>
<path d="M1178.57 233.488C1178.63 233.499 1178.71 233.504 1178.79 233.504C1179.11 233.504 1179.35 233.445 1179.51 233.328C1179.67 233.221 1179.75 233.029 1179.75 232.752L1179.74 232.736C1179.56 232.843 1179.29 232.896 1178.95 232.896C1178.12 232.896 1177.7 232.501 1177.7 231.712C1177.7 231.307 1177.81 231.003 1178.01 230.8C1178.22 230.587 1178.61 230.48 1179.16 230.48C1179.73 230.48 1180.13 230.64 1180.36 230.96C1180.61 231.28 1180.73 231.739 1180.73 232.336C1180.73 233.115 1180.57 233.653 1180.25 233.952C1179.93 234.251 1179.48 234.4 1178.89 234.4C1178.84 234.4 1178.78 234.395 1178.73 234.384C1178.68 234.384 1178.62 234.379 1178.55 234.368V233.504L1178.57 233.488Z" fill="white"/>
<path d="M1189.87 226.976C1189.87 228.192 1189.73 229.168 1189.45 229.904C1189.17 230.64 1188.73 231.173 1188.11 231.504C1187.49 231.835 1186.66 232 1185.63 232C1184.6 232 1183.78 231.835 1183.16 231.504C1182.55 231.173 1182.1 230.64 1181.82 229.904C1181.54 229.168 1181.4 228.192 1181.4 226.976C1181.4 225.749 1181.54 224.768 1181.82 224.032C1182.1 223.296 1182.55 222.763 1183.16 222.432C1183.78 222.101 1184.6 221.936 1185.63 221.936C1186.66 221.936 1187.49 222.101 1188.11 222.432C1188.73 222.763 1189.17 223.296 1189.45 224.032C1189.73 224.768 1189.87 225.749 1189.87 226.976ZM1185.63 229.872C1186.35 229.872 1186.83 229.637 1187.05 229.168C1187.29 228.688 1187.4 227.957 1187.4 226.976C1187.4 225.984 1187.29 225.253 1187.05 224.784C1186.83 224.315 1186.35 224.08 1185.63 224.08C1184.91 224.08 1184.44 224.315 1184.2 224.784C1183.98 225.253 1183.87 225.984 1183.87 226.976C1183.87 227.957 1183.98 228.688 1184.2 229.168C1184.44 229.637 1184.91 229.872 1185.63 229.872Z" fill="white"/>
<path d="M1199.45 226.976C1199.45 228.192 1199.31 229.168 1199.03 229.904C1198.75 230.64 1198.3 231.173 1197.69 231.504C1197.07 231.835 1196.24 232 1195.21 232C1194.18 232 1193.36 231.835 1192.74 231.504C1192.12 231.173 1191.68 230.64 1191.4 229.904C1191.12 229.168 1190.98 228.192 1190.98 226.976C1190.98 225.749 1191.12 224.768 1191.4 224.032C1191.68 223.296 1192.12 222.763 1192.74 222.432C1193.36 222.101 1194.18 221.936 1195.21 221.936C1196.24 221.936 1197.07 222.101 1197.69 222.432C1198.3 222.763 1198.75 223.296 1199.03 224.032C1199.31 224.768 1199.45 225.749 1199.45 226.976ZM1195.21 229.872C1195.93 229.872 1196.41 229.637 1196.63 229.168C1196.86 228.688 1196.98 227.957 1196.98 226.976C1196.98 225.984 1196.86 225.253 1196.63 224.784C1196.41 224.315 1195.93 224.08 1195.21 224.08C1194.49 224.08 1194.02 224.315 1193.78 224.784C1193.56 225.253 1193.45 225.984 1193.45 226.976C1193.45 227.957 1193.56 228.688 1193.78 229.168C1194.02 229.637 1194.49 229.872 1195.21 229.872Z" fill="white"/>
<path d="M1209.02 226.976C1209.02 228.192 1208.89 229.168 1208.61 229.904C1208.33 230.64 1207.88 231.173 1207.26 231.504C1206.65 231.835 1205.82 232 1204.78 232C1203.76 232 1202.94 231.835 1202.32 231.504C1201.7 231.173 1201.25 230.64 1200.98 229.904C1200.7 229.168 1200.56 228.192 1200.56 226.976C1200.56 225.749 1200.7 224.768 1200.98 224.032C1201.25 223.296 1201.7 222.763 1202.32 222.432C1202.94 222.101 1203.76 221.936 1204.78 221.936C1205.82 221.936 1206.65 222.101 1207.26 222.432C1207.88 222.763 1208.33 223.296 1208.61 224.032C1208.89 224.768 1209.02 225.749 1209.02 226.976ZM1204.78 229.872C1205.51 229.872 1205.98 229.637 1206.21 229.168C1206.44 228.688 1206.56 227.957 1206.56 226.976C1206.56 225.984 1206.44 225.253 1206.21 224.784C1205.98 224.315 1205.51 224.08 1204.78 224.08C1204.07 224.08 1203.59 224.315 1203.36 224.784C1203.14 225.253 1203.02 225.984 1203.02 226.976C1203.02 227.957 1203.14 228.688 1203.36 229.168C1203.59 229.637 1204.07 229.872 1204.78 229.872Z" fill="white"/>
<path d="M1225.02 223.984C1225.8 223.984 1226.43 224.245 1226.89 224.768C1227.36 225.291 1227.59 226.197 1227.59 227.488V231.856H1225.03L1225.02 227.808C1225.02 227.285 1224.94 226.907 1224.78 226.672C1224.63 226.437 1224.33 226.32 1223.88 226.32C1223.43 226.32 1223.13 226.437 1222.97 226.672C1222.82 226.907 1222.74 227.285 1222.74 227.808V231.856H1220.18L1220.17 227.808C1220.17 227.285 1220.09 226.907 1219.93 226.672C1219.78 226.437 1219.48 226.32 1219.03 226.32C1218.58 226.32 1218.28 226.437 1218.12 226.672C1217.97 226.907 1217.9 227.285 1217.9 227.808V231.856H1215.33V224.064H1217.77L1217.9 225.488H1217.94C1218.08 225.019 1218.32 224.651 1218.66 224.384C1219.01 224.117 1219.51 223.984 1220.15 223.984C1220.79 223.984 1221.29 224.117 1221.66 224.384C1222.03 224.651 1222.27 225.019 1222.38 225.488H1222.42C1222.56 225.008 1222.83 224.64 1223.22 224.384C1223.63 224.117 1224.23 223.984 1225.02 223.984Z" fill="white"/>
<path d="M1229 229.648C1229.83 229.883 1230.75 230 1231.77 230C1232.26 230 1232.63 229.984 1232.87 229.952C1233.12 229.92 1233.28 229.867 1233.37 229.792C1233.45 229.717 1233.49 229.616 1233.49 229.488C1233.49 229.307 1233.43 229.195 1233.29 229.152C1233.16 229.109 1232.9 229.051 1232.5 228.976L1231.24 228.736C1230.43 228.576 1229.84 228.325 1229.48 227.984C1229.13 227.632 1228.95 227.109 1228.95 226.416C1228.95 225.477 1229.23 224.837 1229.78 224.496C1230.35 224.155 1231.24 223.984 1232.47 223.984C1233.21 223.984 1233.85 224.027 1234.41 224.112C1234.97 224.187 1235.44 224.283 1235.81 224.4L1235.78 226.336L1235.73 226.384C1234.87 226.107 1233.93 225.968 1232.9 225.968C1232.4 225.968 1232.05 226.005 1231.85 226.08C1231.65 226.144 1231.56 226.277 1231.56 226.48C1231.56 226.587 1231.59 226.672 1231.64 226.736C1231.7 226.8 1231.84 226.864 1232.05 226.928C1232.27 226.981 1232.6 227.051 1233.06 227.136L1234.23 227.36C1234.88 227.499 1235.36 227.728 1235.67 228.048C1235.98 228.368 1236.13 228.875 1236.13 229.568C1236.13 230.176 1236.02 230.661 1235.8 231.024C1235.57 231.376 1235.2 231.627 1234.66 231.776C1234.14 231.925 1233.41 232 1232.49 232C1231.78 232 1231.13 231.968 1230.53 231.904C1229.95 231.829 1229.42 231.744 1228.95 231.648V229.68L1229 229.648Z" fill="white"/>
<path d="M364 257.537H428.286V261.463H364V257.537Z" fill="white"/>
<path d="M436 259.5L421.536 268V251L436 259.5Z" fill="white"/>
<path d="M597.922 420V355.714H602.078V420H597.922Z" fill="white"/>
<path d="M600 348L609 362.464H591L600 348Z" fill="white"/>
<path d="M1564 257.537H1628.29V261.463H1564V257.537Z" fill="white"/>
<path d="M1636 259.5L1621.54 268V251L1636 259.5Z" fill="white"/>
<path d="M1164 257.537H1228.29V261.463H1164V257.537Z" fill="white"/>
<path d="M1236 259.5L1221.54 268V251L1236 259.5Z" fill="white"/>
<path d="M764 257.537H828.286V261.463H764V257.537Z" fill="white"/>
<path d="M836 259.5L821.536 268V251L836 259.5Z" fill="white"/>
<path d="M1802 416V420H598V416H1802Z" fill="white"/>
<path d="M1798 348H1802V420H1798V348Z" fill="white"/>
</svg>
